<?xml version="1.0" standalone="no"?>
<!DOCTYPE svg PUBLIC "-//W3C//DTD SVG 1.1//EN" "http://www.w3.org/Graphics/SVG/1.1/DTD/svg11.dtd" >
<svg xmlns="http://www.w3.org/2000/svg" xmlns:xlink="http://www.w3.org/1999/xlink" version="1.1">
<metadata>
Created by FontForge 20190801 at Wed Apr 17 19:02:22 2019
 By Unknown
Copyright (c) 2018 ParaType Inc., ParaType Ltd. All rights reserved.
</metadata>
<defs>
<font id="SBSansText-Regular" horiz-adv-x="650" >
  <font-face 
    font-family="SB Sans Text"
    font-weight="400"
    font-stretch="normal"
    units-per-em="1000"
    panose-1="2 11 5 3 4 5 4 2 2 4"
    ascent="801"
    descent="-199"
    x-height="530"
    cap-height="700"
    bbox="-349 -252 1255 955"
    underline-thickness="50"
    underline-position="-225"
    unicode-range="U+000D-FEFF"
  />
<missing-glyph horiz-adv-x="500" 
d="M442 8v496h-384v-496h384zM50 512h400v-512h-400v512z" />
    <glyph glyph-name="f_f" unicode="ff" horiz-adv-x="738" 
d="M454 452h-248v-452h-83v452h-83v78h84v60q0 47 11.5 79t34.5 51t57 27t78 8q31 0 51.5 -3t30.5 -6v-87q-14 6 -32.5 11.5t-50.5 5.5q-29 0 -48 -4t-30 -15.5t-15.5 -30.5t-4.5 -49v-47h249v60q0 47 11.5 79t34.5 51t57 27t78 8q31 0 51.5 -3t30.5 -6v-87
q-14 6 -32.5 11.5t-50.5 5.5q-29 0 -48 -4t-30 -15.5t-15.5 -30.5t-4.5 -49v-47h180v-78h-180v-452h-83v452z" />
    <glyph glyph-name="fi" unicode="fi" horiz-adv-x="647" 
d="M440 702q0 21 11.5 36t43.5 15t44 -15t12 -36t-12 -37.5t-44 -16.5t-43.5 16.5t-11.5 37.5zM124 590q0 47 11 79t32.5 51t53 27t73.5 8q27 0 49.5 -3.5t35.5 -5.5v-87q-17 5 -39 11t-47 6q-26 0 -42.5 -4t-26.5 -15.5t-14 -30.5t-4 -49v-47h331v-530h-83v452h-248v-452
h-83v452h-83v78h84v60z" />
    <glyph glyph-name="fl" unicode="fl" horiz-adv-x="705" 
d="M124 590q0 47 11.5 79t34.5 51t57 27t78 8q42 0 79.5 -2.5t69.5 -2.5h83v-599q0 -25 4 -41t12.5 -25t23 -12.5t35.5 -3.5q23 0 42 4t31 9v-74q-12 -7 -37.5 -12.5t-53.5 -5.5q-65 0 -102.5 30t-37.5 100v550q-30 2 -69 4t-81 2q-29 0 -48 -4t-30 -15.5t-15.5 -30.5
t-4.5 -49v-47h180v-78h-180v-452h-83v452h-83v78h84v60z" />
    <glyph glyph-name="f_f_i" unicode="ffi" horiz-adv-x="978" 
d="M123 452h-83v78h84v60q0 47 11.5 79t34.5 51t57 27t78 8q31 0 51.5 -3t30.5 -6v-87q-14 6 -32.5 11.5t-50.5 5.5q-29 0 -48 -4t-30 -15.5t-15.5 -30.5t-4.5 -49v-47h249v60q0 47 11 79t32.5 51t53 27t73.5 8q27 0 49.5 -3.5t35.5 -5.5v-87q-17 5 -39 11t-47 6
q-26 0 -42.5 -4t-26.5 -15.5t-14 -30.5t-4 -49v-47h331v-530h-83v452h-248v-452h-83v452h-248v-452h-83v452zM771 702q0 21 11.5 36t43.5 15t44 -15t12 -36t-12 -37.5t-44 -16.5t-43.5 16.5t-11.5 37.5z" />
    <glyph glyph-name="f_f_l" unicode="ffl" horiz-adv-x="1036" 
d="M123 452h-83v78h84v60q0 47 11.5 79t34.5 51t57 27t78 8q31 0 51.5 -3t30.5 -6v-87q-14 6 -32.5 11.5t-50.5 5.5q-29 0 -48 -4t-30 -15.5t-15.5 -30.5t-4.5 -49v-47h249v60q0 47 11.5 79t34.5 51t57 27t78 8q42 0 79.5 -2.5t69.5 -2.5h83v-599q0 -25 4 -41t12.5 -25
t23 -12.5t35.5 -3.5q23 0 42 4t31 9v-74q-12 -7 -37.5 -12.5t-53.5 -5.5q-65 0 -102.5 30t-37.5 100v550q-30 2 -69 4t-81 2q-29 0 -48 -4t-30 -15.5t-15.5 -30.5t-4.5 -49v-47h180v-78h-180v-452h-83v452h-248v-452h-83v452z" />
    <glyph glyph-name=".notdef" horiz-adv-x="500" 
d="M442 8v496h-384v-496h384zM50 512h400v-512h-400v512z" />
    <glyph glyph-name=".null" horiz-adv-x="0" 
 />
    <glyph glyph-name=".null" horiz-adv-x="0" 
 />
    <glyph glyph-name="uni000D" unicode="&#xd;" horiz-adv-x="300" 
 />
    <glyph glyph-name="space" unicode=" " horiz-adv-x="300" 
 />
    <glyph glyph-name="exclam" unicode="!" horiz-adv-x="381" 
d="M150 54q0 27 13.5 46t51.5 19t52 -19t14 -46q0 -26 -14 -45t-52 -19t-51.5 19t-13.5 45zM170 700h90v-470h-90v470z" />
    <glyph glyph-name="quotedbl" unicode="&#x22;" horiz-adv-x="594" 
d="M150 700h84v-270h-84v270zM360 700h84v-270h-84v270z" />
    <glyph glyph-name="numbersign" unicode="#" horiz-adv-x="759" 
d="M163 188h-123l26 75h119l53 182h-133l26 75h129l53 180h80l-53 -180h170l53 180h80l-53 -180h129l-26 -75h-125l-53 -182h139l-26 -75h-135l-55 -188h-80l55 188h-170l-55 -188h-80zM435 263l53 182h-170l-53 -182h170z" />
    <glyph glyph-name="dollar" unicode="$" horiz-adv-x="600" 
d="M434 185q0 47 -26 72.5t-65 42t-85 29.5t-85 34t-65 56.5t-26 96.5q0 83 43.5 131t145.5 58v95h64v-92q50 -2 92 -10.5t74 -25.5v-106q-30 28 -78.5 45t-101.5 17q-43 0 -71 -6t-44.5 -18.5t-23.5 -31t-7 -43.5q0 -45 26 -69t65.5 -39t85.5 -28t85.5 -35.5t65.5 -61
t26 -105.5q0 -85 -45.5 -135.5t-148.5 -60.5v-115h-64v112q-59 2 -112.5 17t-85.5 41v118q17 -19 38.5 -36t47.5 -30.5t56.5 -21.5t65.5 -8q80 0 116.5 28t36.5 85z" />
    <glyph glyph-name="percent" unicode="%" horiz-adv-x="931" 
d="M680 700h87l-504 -700h-90zM500 147q0 78 47 120.5t131 42.5q73 0 118 -41t45 -122q0 -79 -48 -122t-129 -43q-78 0 -121 43t-43 122zM770 147q0 44 -24 67.5t-75 23.5t-75 -23.5t-24 -67.5q0 -43 26.5 -68t74.5 -25q46 0 71.5 23t25.5 70zM90 547q0 78 47 120.5
t131 42.5q73 0 118 -41t45 -122q0 -79 -48 -122t-129 -43q-78 0 -121 43t-43 122zM360 547q0 44 -24 67.5t-75 23.5t-75 -23.5t-24 -67.5q0 -43 26.5 -68t74.5 -25q46 0 71.5 23t25.5 70z" />
    <glyph glyph-name="ampersand" unicode="&#x26;" horiz-adv-x="896" 
d="M756 520q0 -44 -6.5 -93.5t-20 -99.5t-35 -98.5t-50.5 -90.5q35 -20 68 -33.5t64 -18.5v-101q-45 10 -92.5 33t-95.5 55q-44 -42 -101 -66.5t-129 -24.5q-132 0 -195 55t-63 174q0 32 7.5 63t26.5 60t51 54.5t81 46.5q-32 69 -32 126q0 75 38.5 112.5t124.5 37.5
q65 0 105 -31.5t40 -94.5q0 -69 -37.5 -112t-130.5 -69q37 -60 90 -117t116 -105q48 66 69 156t21 182h86zM523 122q-69 56 -126 119t-98 132q-60 -23 -85.5 -59.5t-25.5 -90.5q0 -83 42 -117t137 -34q43 0 82 12t74 38zM342 461q65 22 90.5 44.5t25.5 61.5q0 35 -15.5 50
t-56.5 15q-35 0 -52 -16t-17 -61q0 -39 25 -94z" />
    <glyph glyph-name="quotesingle" unicode="'" horiz-adv-x="384" 
d="M150 700h84v-270h-84v270z" />
    <glyph glyph-name="parenleft" unicode="(" horiz-adv-x="355" 
d="M272 -192q-13 9 -44.5 44t-64.5 95t-58 145t-25 193q0 95 23 177t54.5 144.5t63.5 103t50 53.5l44 -34q-12 -14 -37 -49.5t-50 -91.5t-44 -132t-19 -171q0 -93 18.5 -169t43 -132t49 -92t36.5 -49z" />
    <glyph glyph-name="parenright" unicode=")" horiz-adv-x="355" 
d="M43 -157q12 13 36.5 48.5t49 91t43 131t18.5 168.5q0 95 -19 171.5t-44 133t-50 92.5t-37 50l44 34q18 -13 50 -53.5t63.5 -103t54.5 -144.5t23 -177q0 -108 -25 -193t-58 -145t-64.5 -95t-44.5 -44l-40 35v0z" />
    <glyph glyph-name="asterisk" unicode="*" horiz-adv-x="584" 
d="M241 486l-151 35l28 85l143 -61l-14 155h90l-14 -155l144 61l27 -85l-151 -35l102 -118l-73 -52l-80 133l-80 -133l-72 52z" />
    <glyph glyph-name="plus" unicode="+" horiz-adv-x="600" 
d="M90 387h168v168h84v-168h168v-84h-168v-168h-84v168h-168v84z" />
    <glyph glyph-name="comma" unicode="," horiz-adv-x="364" 
d="M60 -102q51 5 81.5 31t38.5 62q-33 0 -50.5 14t-17.5 49q0 27 16 46t49 19q38 0 57.5 -24t19.5 -69q0 -43 -14 -76t-36 -56t-47.5 -37t-47.5 -18l-49 59v0z" />
    <glyph glyph-name="hyphen" unicode="-" horiz-adv-x="467" 
d="M100 337h267v-84h-267v84z" />
    <glyph glyph-name="period" unicode="." horiz-adv-x="351" 
d="M110 54q0 27 13.5 46t51.5 19t52 -19t14 -46q0 -26 -14 -45t-52 -19t-51.5 19t-13.5 45z" />
    <glyph glyph-name="slash" unicode="/" horiz-adv-x="330" 
d="M251 700h80l-251 -880h-80z" />
    <glyph glyph-name="zero" unicode="0" horiz-adv-x="600" 
d="M60 349q0 100 15.5 169t46.5 111t78 60.5t111 18.5q61 0 104.5 -20.5t71 -64t40.5 -111.5t13 -163q0 -105 -15.5 -174t-46 -110.5t-75.5 -58t-103 -16.5q-125 0 -182.5 88t-57.5 271zM148 349q0 -80 9.5 -134t29 -87t48.5 -47.5t69 -14.5t68 12.5t46 44t26 85.5t8 138
q0 87 -8 142.5t-26 87.5t-47 44t-71 12q-43 0 -72 -13.5t-47 -45.5t-25.5 -87t-7.5 -137z" />
    <glyph glyph-name="one" unicode="1" horiz-adv-x="600" 
d="M100 80h206v522l-206 -123v87l230 141h60v-627h128v-80h-418v80z" />
    <glyph glyph-name="two" unicode="2" horiz-adv-x="600" 
d="M58 56q72 62 127 109t96 84t69 67t45 57.5t24.5 55t7.5 60.5q0 72 -40 103.5t-122 31.5q-60 0 -106.5 -18.5t-89.5 -45.5v102q40 21 92 33.5t121 12.5q124 0 178.5 -53.5t54.5 -151.5q0 -57 -14.5 -103.5t-50.5 -93.5t-97.5 -101t-155.5 -125h334v-80h-473v56z" />
    <glyph glyph-name="three" unicode="3" horiz-adv-x="600" 
d="M185 393h55q91 0 131 32t40 98q0 26 -6.5 45.5t-22.5 32t-44 19t-70 6.5q-66 0 -115.5 -21t-82.5 -42v93q31 20 83.5 36t130.5 16q109 0 160 -39t52 -131q1 -68 -33 -109.5t-109 -61.5q83 -5 129.5 -46t46.5 -118q0 -103 -59.5 -157t-182.5 -54q-83 0 -138.5 14.5
t-84.5 34.5v110q15 -13 36.5 -26t49 -23t60 -16.5t70.5 -6.5q90 0 127 30.5t37 93.5q0 27 -9.5 48t-32.5 36t-62.5 23t-99.5 8h-56v75z" />
    <glyph glyph-name="four" unicode="4" horiz-adv-x="600" 
d="M42 250l315 450h107v-427h104v-80h-104v-193h-84v193h-338v57zM380 602l-226 -329h226v329z" />
    <glyph glyph-name="five" unicode="5" horiz-adv-x="600" 
d="M127 700h383v-80h-313l-18 -182q11 1 41 1h64q70 0 116.5 -14.5t75 -41.5t40.5 -66.5t12 -88.5q0 -113 -60.5 -174.5t-196.5 -61.5q-50 0 -102 7t-87 23v101q16 -11 38.5 -19t47 -14t48.5 -9t44 -3q51 0 85.5 9t55.5 27t30 44.5t9 61.5q0 37 -8 64t-29.5 44t-59 25
t-97.5 8q-43 0 -84.5 -1.5t-67.5 -5.5z" />
    <glyph glyph-name="six" unicode="6" horiz-adv-x="600" 
d="M313 -8q-71 0 -120 22.5t-80 65t-45 105.5t-14 144q0 107 23.5 179.5t65.5 117t100 63.5t127 19q35 0 69.5 -5.5t59.5 -15.5v-96q-22 12 -53.5 21.5t-89.5 9.5q-49 0 -89.5 -14.5t-70 -47t-46 -83.5t-16.5 -124q0 -18 0.5 -22.5t1.5 -9.5q26 63 74 98t136 35q51 0 89 -17
t63 -45.5t37 -66t12 -79.5q0 -67 -19 -115t-51 -79t-74.5 -45.5t-89.5 -14.5zM154 256q1 -81 41 -128.5t124 -47.5q63 0 102.5 36.5t39.5 111.5q0 70 -32.5 107.5t-110.5 37.5q-39 0 -67 -10.5t-47.5 -27t-31 -37.5t-18.5 -42z" />
    <glyph glyph-name="seven" unicode="7" horiz-adv-x="600" 
d="M439 610h-374v90h480v-58l-289 -642h-97z" />
    <glyph glyph-name="eight" unicode="8" horiz-adv-x="600" 
d="M59 200q0 25 4.5 51t18.5 49.5t39.5 43t66.5 30.5q-62 16 -87.5 50.5t-25.5 99.5q0 43 12.5 77.5t39.5 59t70 37.5t103 13t101.5 -12.5t67 -34.5t37 -52t11.5 -64q0 -32 -3.5 -59.5t-15.5 -49.5t-34 -38t-58 -26q77 -18 106 -59t29 -110q0 -47 -13.5 -86t-43 -67.5
t-75 -44.5t-108.5 -16q-120 0 -181 55.5t-61 152.5zM147 213q0 -71 41.5 -103t113.5 -32q84 0 118.5 34t34.5 99q0 63 -41 93t-113 30q-75 0 -114.5 -32.5t-39.5 -88.5zM158 513q0 -46 33.5 -79t107.5 -33q72 0 103.5 31.5t31.5 82.5q0 58 -30 84t-105 26t-108 -28t-33 -84z
" />
    <glyph glyph-name="nine" unicode="9" horiz-adv-x="600" 
d="M288 708q70 0 119.5 -22.5t80.5 -65t45 -105.5t14 -144q0 -107 -23.5 -180t-65.5 -117t-100 -63t-127 -19q-35 0 -69.5 5.5t-59.5 15.5v96q22 -12 53.5 -21.5t89.5 -9.5q49 0 89.5 14.5t70 47t46 83.5t16.5 124q0 18 -0.5 22.5t-1.5 9.5q-13 -32 -30 -56.5t-41.5 -41.5
t-57 -26t-76.5 -9q-51 0 -90 17t-64.5 45.5t-38.5 66t-13 79.5q0 67 19 115t51 79t74.5 45.5t89.5 14.5zM448 454q-2 36 -12.5 67t-31 53t-50.5 34t-72 12q-63 -1 -101.5 -37t-40.5 -111q-2 -70 34 -107.5t114 -37.5q39 0 67 10.5t47 28t30 40.5t16 48z" />
    <glyph glyph-name="colon" unicode=":" horiz-adv-x="351" 
d="M110 54q0 27 13.5 46t51.5 19t52 -19t14 -46q0 -26 -14 -45t-52 -19t-51.5 19t-13.5 45zM110 426q0 27 13.5 46t51.5 19t52 -19t14 -46q0 -26 -14 -45t-52 -19t-51.5 19t-13.5 45z" />
    <glyph glyph-name="semicolon" unicode=";" horiz-adv-x="364" 
d="M112 425q0 27 13.5 46t51.5 19t52 -19t14 -46q0 -26 -14 -45t-52 -19t-51.5 19t-13.5 45zM60 -102q51 5 81.5 31t38.5 62q-33 0 -50.5 14t-17.5 49q0 27 16 46t49 19q38 0 57.5 -24t19.5 -69q0 -43 -14 -76t-36 -56t-47.5 -37t-47.5 -18l-49 59v0z" />
    <glyph glyph-name="less" unicode="&#x3c;" horiz-adv-x="600" 
d="M68 361l415 173v-84l-316 -123v-2l316 -123v-85l-415 174v70z" />
    <glyph glyph-name="equal" unicode="=" horiz-adv-x="601" 
d="M88 263h425v-79h-425v79zM88 477h425v-79h-425v79z" />
    <glyph glyph-name="greater" unicode="&#x3e;" horiz-adv-x="600" 
d="M117 202l315 123v2l-315 123v84l415 -173v-70l-415 -174v85z" />
    <glyph glyph-name="question" unicode="?" horiz-adv-x="597" 
d="M197 230q0 42 16.5 69.5t42 47t54.5 35t54.5 34t42 42.5t16.5 62q0 48 -39 78t-118 30q-53 0 -88.5 -10.5t-67.5 -28.5v93q27 11 69.5 18.5t93.5 7.5q55 0 98.5 -10.5t73.5 -33t46 -58.5t16 -86q0 -47 -17 -79.5t-42.5 -55.5t-55.5 -40t-55.5 -33.5t-42.5 -35.5t-17 -46
h-80zM172 54q0 27 13.5 46t51.5 19t52 -19t14 -46q0 -26 -14 -45t-52 -19t-51.5 19t-13.5 45z" />
    <glyph glyph-name="at" unicode="@" horiz-adv-x="1053" 
d="M741 63q-56 0 -81.5 24t-33.5 71q-13 -43 -47 -69t-88 -26q-42 0 -74 12.5t-53.5 40t-32 71.5t-10.5 107q0 55 13.5 97t38 70t58.5 42t75 14q27 0 46.5 -6.5t33 -17t22 -23t13.5 -25.5l11 61h60v-307q0 -36 13.5 -50.5t40.5 -14.5q22 0 43.5 10.5t38.5 33.5t28 58.5
t11 85.5q0 73 -21.5 131.5t-63.5 99.5t-104.5 62.5t-144.5 21.5q-164 0 -255.5 -87t-91.5 -260q0 -78 21.5 -143t65 -111t109 -71.5t153.5 -25.5q60 0 108 15.5t74 38.5v-78q-24 -14 -73 -26.5t-109 -12.5q-101 0 -178 30t-130 84.5t-80 131.5t-27 170q0 91 27 166t80 129
t130 83.5t178 29.5q92 0 166 -26t125.5 -75t79 -119t27.5 -158q0 -56 -14 -103.5t-39.5 -82t-61 -54t-77.5 -19.5zM401 296q0 -46 6 -77t19.5 -50t33.5 -27.5t49 -8.5q48 0 75.5 36t27.5 103v52q0 37 -8 60.5t-21.5 37t-31.5 18.5t-38 5q-53 0 -82.5 -34t-29.5 -115z" />
    <glyph glyph-name="A" unicode="A" horiz-adv-x="679" 
d="M485 187h-299l-69 -187h-92l267 700h91l271 -700h-99zM216 267h239l-120 321z" />
    <glyph glyph-name="B" unicode="B" horiz-adv-x="661" 
d="M112 697q16 1 41 3t52.5 3l55 2t48.5 1q72 0 120 -10t77 -31.5t41.5 -55t12.5 -79.5q0 -128 -110 -163q77 -9 111.5 -51.5t34.5 -111.5q0 -54 -15 -94t-48 -66.5t-85 -39t-126 -12.5q-65 0 -121.5 3.5t-88.5 8.5v693zM202 80q28 -5 62.5 -6.5t63.5 -1.5q51 0 85 7.5
t54.5 23.5t29 40.5t8.5 59.5q0 67 -40 92.5t-121 25.5h-142v-241zM328 391q80 0 111 30.5t31 83.5q0 37 -6.5 61t-23.5 37t-47.5 18t-79.5 5q-27 0 -56.5 -0.5t-54.5 -2.5v-232h126z" />
    <glyph glyph-name="C" unicode="C" horiz-adv-x="658" 
d="M579 577q-27 19 -77 35t-113 16q-56 0 -98 -14t-70 -45.5t-42.5 -83t-14.5 -126.5q0 -82 16 -137t46 -88t73.5 -47t97.5 -14q35 0 66.5 6t58 14.5t46 18t30.5 15.5v-91q-24 -14 -77 -29t-125 -15q-83 0 -144 20t-101.5 63.5t-60.5 111.5t-20 163t20.5 162.5t61 111
t100.5 64t140 20.5q68 0 114.5 -11.5t72.5 -19.5v-100z" />
    <glyph glyph-name="D" unicode="D" horiz-adv-x="743" 
d="M112 698q15 2 33.5 3.5t43 3t55.5 2.5t72 1q101 0 169.5 -20.5t110 -62t59.5 -104t18 -147.5q0 -104 -23.5 -177t-70.5 -118.5t-117.5 -66t-164.5 -20.5q-69 0 -114 4.5t-71 8.5v693zM202 79q20 -3 43 -5t46 -2q76 0 131 15t89.5 49t51 89.5t16.5 136.5q0 73 -13 124
t-44 82.5t-82.5 45.5t-128.5 14q-30 0 -57.5 -2t-51.5 -5v-542z" />
    <glyph glyph-name="E" unicode="E" horiz-adv-x="608" 
d="M112 700h426v-80h-336v-225h308v-80h-308v-235h336v-80h-426v700z" />
    <glyph glyph-name="F" unicode="F" horiz-adv-x="587" 
d="M112 700h415v-80h-325v-253h308v-80h-308v-287h-90v700z" />
    <glyph glyph-name="G" unicode="G" horiz-adv-x="709" 
d="M401 350h238v-320q-24 -10 -77 -24t-131 -14q-92 0 -159.5 20t-112.5 63t-67 111t-22 164q0 185 91.5 271.5t264.5 86.5q58 0 98.5 -9t64.5 -22v-95q-29 17 -70.5 31.5t-98.5 14.5q-64 0 -112 -15t-80 -47t-48 -83t-16 -124q0 -83 17 -138t50.5 -88t84 -47t116.5 -14
q35 0 66.5 4t56.5 11v184h-154v79z" />
    <glyph glyph-name="H" unicode="H" horiz-adv-x="790" 
d="M112 700h90v-300h386v300h90v-700h-90v320h-386v-320h-90v700z" />
    <glyph glyph-name="I" unicode="I" horiz-adv-x="324" 
d="M117 700h90v-700h-90v700z" />
    <glyph glyph-name="J" unicode="J" horiz-adv-x="393" 
d="M191 700h90v-549q0 -81 -39.5 -118.5t-130.5 -37.5q-47 0 -96 18v87q9 -8 36 -16.5t58 -8.5q46 0 64 17.5t18 61.5v546z" />
    <glyph glyph-name="K" unicode="K" horiz-adv-x="691" 
d="M112 700h90v-308h52l269 308h116l-307 -339l344 -361h-116l-305 322h-53v-322h-90v700z" />
    <glyph glyph-name="L" unicode="L" horiz-adv-x="573" 
d="M112 700h90v-620h346v-80h-436v700z" />
    <glyph glyph-name="M" unicode="M" horiz-adv-x="905" 
d="M112 700h110l237 -465l235 465h99v-700h-90v420q0 33 2 73t5 82q-21 -46 -41 -89t-33 -68l-142 -278h-77l-142 277q-14 28 -36 73t-45 92q4 -43 6 -84t2 -76v-422h-90v700z" />
    <glyph glyph-name="N" unicode="N" horiz-adv-x="789" 
d="M112 700h93l322 -459q20 -30 35.5 -54t29.5 -48q-2 28 -3.5 57t-1.5 65v439h90v-700h-94l-301 433q-21 29 -44 67.5t-44 75.5q3 -35 5.5 -66.5t2.5 -71.5v-438h-90v700z" />
    <glyph glyph-name="O" unicode="O" horiz-adv-x="788" 
d="M70 350q0 185 82 272.5t253 87.5q160 0 236.5 -87.5t76.5 -272.5q0 -98 -22.5 -166t-64.5 -111.5t-102 -63t-136 -19.5q-69 0 -128.5 19t-102.5 62t-67.5 111.5t-24.5 167.5zM164 347q0 -78 17 -130.5t48 -85t74 -46.5t95 -14q53 0 95 14t71 46.5t44.5 85t15.5 130.5
q0 80 -15.5 134t-45.5 87t-73 47t-97 14q-118 0 -173.5 -69.5t-55.5 -212.5z" />
    <glyph glyph-name="P" unicode="P" horiz-adv-x="641" 
d="M112 694q32 4 80.5 8t99.5 4q80 0 136 -14t91 -42.5t50.5 -71t15.5 -100.5q0 -133 -68.5 -195t-224.5 -62q-20 0 -44 1t-46 3v-225h-90v694zM202 304q22 -2 44.5 -3t45.5 -1q55 0 93 8.5t61.5 28.5t34 52t10.5 80q0 44 -10 74t-33.5 48.5t-60.5 26.5t-91 8
q-23 0 -47.5 -1t-46.5 -3v-318z" />
    <glyph glyph-name="Q" unicode="Q" horiz-adv-x="788" 
d="M70 350q0 185 82 272.5t253 87.5q160 0 236.5 -87.5t76.5 -272.5q0 -153 -54 -235.5t-151 -109.5l140 -165h-105l-131 151q-6 -1 -12 -1h-12q-69 0 -128.5 19t-102.5 62t-67.5 111.5t-24.5 167.5zM164 347q0 -78 17 -130.5t48 -85t74 -46.5t95 -14q53 0 95 14t71 46.5
t44.5 85t15.5 130.5q0 80 -15.5 134t-45.5 87t-73 47t-97 14q-118 0 -173.5 -69.5t-55.5 -212.5z" />
    <glyph glyph-name="R" unicode="R" horiz-adv-x="663" 
d="M112 0v691q16 3 39.5 5.5t49 4.5t51.5 3.5t47 1.5q132 0 193 -48t62 -157q0 -38 -6.5 -69.5t-22.5 -57t-43 -45.5t-67 -33l228 -296h-109l-217 281h-115v-281h-90zM288 351q47 0 79.5 8.5t53 26t29.5 44t9 63.5q0 35 -8 60t-27 41.5t-51 24t-80 7.5q-26 0 -48.5 -1.5
t-42.5 -5.5v-268h86z" />
    <glyph glyph-name="S" unicode="S" horiz-adv-x="586" 
d="M426 185q0 47 -26 72.5t-65 42t-85 29.5t-85 34t-65 56.5t-26 96.5q0 94 55.5 143t186.5 49q54 0 98.5 -9.5t78.5 -26.5v-106q-30 28 -78.5 45t-101.5 17q-43 0 -71 -6t-44.5 -18.5t-23.5 -31t-7 -43.5q0 -45 26 -69t65.5 -39t85.5 -28t85.5 -35.5t65.5 -61t26 -105.5
q0 -95 -58.5 -147t-188.5 -52q-61 0 -118 16t-91 42v118q17 -19 38.5 -36t47.5 -30.5t56.5 -21.5t65.5 -8q80 0 116.5 28t36.5 85z" />
    <glyph glyph-name="T" unicode="T" horiz-adv-x="582" 
d="M246 620h-221v80h532v-80h-221v-620h-90v620z" />
    <glyph glyph-name="U" unicode="U" horiz-adv-x="750" 
d="M107 700h90v-425q0 -66 14 -106.5t39 -62t60 -29t77 -7.5q34 0 64.5 6t53 26t35.5 58t13 103v437h90v-433q0 -84 -21 -137.5t-57 -84.5t-84.5 -43t-103.5 -12q-141 0 -205.5 64t-64.5 205v441z" />
    <glyph glyph-name="V" unicode="V" horiz-adv-x="652" 
d="M20 700h98l216 -585l204 585h94l-259 -700h-91z" />
    <glyph glyph-name="W" unicode="W" horiz-adv-x="940" 
d="M48 700h94l89 -435q4 -18 6.5 -33.5t5 -30.5t4.5 -31t4 -35q6 19 10 34.5t8 30t8.5 30t10.5 33.5l145 437h87l143 -434q6 -18 10.5 -33.5t9 -30.5t8.5 -31.5t10 -35.5q2 19 3.5 35t4 31t5 30.5t6.5 33.5l84 435h88l-138 -700h-91l-189 572l-192 -572h-92z" />
    <glyph glyph-name="X" unicode="X" horiz-adv-x="656" 
d="M263 356l-220 344h106l177 -281l189 281h102l-234 -337l243 -363h-106l-198 298l-190 -298h-102z" />
    <glyph glyph-name="Y" unicode="Y" horiz-adv-x="623" 
d="M267 267l-247 433h99l197 -347l190 347h96l-245 -432v-268h-90v267z" />
    <glyph glyph-name="Z" unicode="Z" horiz-adv-x="607" 
d="M40 50l400 570h-388v80h509v-51l-400 -569h406v-80h-527v50z" />
    <glyph glyph-name="bracketleft" unicode="[" horiz-adv-x="446" 
d="M100 750h246v-80h-166v-770h166v-80h-246v930z" />
    <glyph glyph-name="backslash" unicode="\" horiz-adv-x="331" 
d="M0 750h80l251 -930h-80z" />
    <glyph glyph-name="bracketright" unicode="]" horiz-adv-x="446" 
d="M100 -100h166v770h-166v80h246v-930h-246v80z" />
    <glyph glyph-name="asciicircum" unicode="^" horiz-adv-x="600" 
d="M229 700h139l185 -349h-92l-161 313l-161 -313h-92z" />
    <glyph glyph-name="underscore" unicode="_" horiz-adv-x="320" 
d="M0 -76h320v-84h-320v84z" />
    <glyph glyph-name="grave" unicode="`" 
d="M287 625l-114 130h116l74 -130h-76z" />
    <glyph glyph-name="a" unicode="a" horiz-adv-x="563" 
d="M392 76q-20 -36 -61.5 -61.5t-98.5 -25.5q-80 0 -126 40.5t-46 117.5q0 44 11.5 74.5t37 50t65.5 28.5t97 9h119v50q0 32 -7.5 52.5t-23.5 32t-40.5 16t-57.5 4.5q-45 0 -89.5 -17t-71.5 -40v96q16 9 37.5 16t44.5 11.5t46 7t42 2.5q52 0 90.5 -9t63.5 -30t37 -55.5
t12 -85.5v-360h-76zM145 160q0 -43 24 -67t79 -24q74 0 108 38t34 96v45h-116q-38 0 -63 -5t-39.5 -15.5t-20.5 -27t-6 -40.5z" />
    <glyph glyph-name="b" unicode="b" horiz-adv-x="626" 
d="M96 750h83v-305q10 20 24 37.5t34 30t47.5 20t65.5 7.5q52 0 92.5 -13.5t68 -45t41.5 -82t14 -123.5q0 -77 -14 -131.5t-41.5 -89t-69.5 -50.5t-98 -16q-66 0 -106.5 21.5t-61.5 58.5l-5 -69h-74v750zM177 229q0 -84 41 -124.5t112 -40.5q41 0 70 11t47.5 36t27 64.5
t8.5 95.5q0 57 -9.5 94.5t-28 59.5t-47 31t-67.5 9q-80 0 -116.5 -42t-37.5 -114v-80z" />
    <glyph glyph-name="c" unicode="c" horiz-adv-x="524" 
d="M453 419q-24 17 -62 29.5t-83 12.5q-36 0 -66 -9.5t-51.5 -31.5t-33 -59.5t-11.5 -92.5q0 -56 12 -94t35.5 -61.5t57 -33.5t77.5 -10q41 0 78.5 12t63.5 34v-90q-21 -17 -60.5 -26.5t-93.5 -9.5q-60 0 -107.5 14.5t-80.5 48.5t-50.5 88.5t-17.5 134.5q0 137 64.5 201
t194.5 64q49 0 80 -7.5t54 -19.5v-94z" />
    <glyph glyph-name="d" unicode="d" horiz-adv-x="626" 
d="M449 94q-11 -21 -25 -40.5t-33.5 -33.5t-47 -22.5t-64.5 -8.5q-54 0 -95 14.5t-68.5 46.5t-41.5 83.5t-14 125.5q0 76 14.5 129t42.5 87t70 49.5t96 15.5q35 0 62 -5.5t46.5 -15t33 -22t22.5 -26.5v279h83v-750h-76zM298 64q81 0 116 46t34 124v85q0 67 -34.5 107
t-120.5 40q-39 0 -67.5 -10t-47 -33.5t-27 -62t-8.5 -95.5q0 -108 36 -154.5t119 -46.5z" />
    <glyph glyph-name="e" unicode="e" horiz-adv-x="582" 
d="M144 235q0 -86 44.5 -128.5t132.5 -42.5q51 0 92 17.5t70 40.5v-86q-20 -14 -62 -30.5t-102 -16.5q-64 0 -112.5 15.5t-81 50t-49 88t-16.5 130.5q0 131 61 199t178 68q61 0 104 -18t69 -51t38 -79.5t12 -102.5v-54h-378zM298 465q-73 0 -113.5 -38.5t-40.5 -119.5h295
q0 81 -33.5 119.5t-107.5 38.5z" />
    <glyph glyph-name="f" unicode="f" horiz-adv-x="407" 
d="M123 452h-83v78h84v60q0 47 11.5 79t34.5 51t57 27t78 8q31 0 51.5 -3t30.5 -6v-87q-14 6 -32.5 11.5t-50.5 5.5q-29 0 -48 -4t-30 -15.5t-15.5 -30.5t-4.5 -49v-47h180v-78h-180v-452h-83v452z" />
    <glyph glyph-name="g" unicode="g" horiz-adv-x="627" 
d="M97 -52q11 -9 29 -19.5t41.5 -19.5t51 -15t57.5 -6q87 0 129 31t43 106v82q-20 -41 -62.5 -69t-108.5 -28q-108 0 -162.5 59.5t-54.5 194.5q0 75 14 127.5t43 85.5t73 48t103 15q57 0 98.5 -22t59.5 -58l5 70h75v-500q0 -57 -17.5 -98.5t-49 -67.5t-77 -38.5
t-101.5 -12.5q-69 0 -115.5 12t-73.5 26v97zM295 85q74 0 114 38.5t40 123.5v57q0 46 -11 77t-31 50t-48 26.5t-63 7.5q-36 0 -64 -10t-48 -32.5t-30.5 -60.5t-10.5 -93q0 -52 11.5 -87t31.5 -56.5t48 -31t61 -9.5z" />
    <glyph glyph-name="h" unicode="h" horiz-adv-x="622" 
d="M96 750h83v-302q19 45 62 68.5t111 23.5q94 0 137.5 -42t43.5 -140v-358h-83v347q0 64 -29.5 91.5t-99.5 27.5q-71 0 -106.5 -34t-35.5 -113v-319h-83v750z" />
    <glyph glyph-name="i" unicode="i" horiz-adv-x="303" 
d="M110 530h83v-530h-83v530zM100 690q0 52 52 52t52 -52t-52 -52t-52 52z" />
    <glyph glyph-name="j" unicode="j" horiz-adv-x="303" 
d="M110 530h83v-525q0 -94 -34.5 -142.5t-120.5 -48.5q-26 0 -47 4t-32 9v87q17 -11 37.5 -16t41.5 -5q38 0 55 22.5t17 76.5v538zM100 690q0 52 52 52t52 -52t-52 -52t-52 52z" />
    <glyph glyph-name="k" unicode="k" horiz-adv-x="566" 
d="M179 750v-446h47l193 226h95l-218 -251l250 -279h-105l-217 239h-45v-239h-83v750h83z" />
    <glyph glyph-name="l" unicode="l" horiz-adv-x="348" 
d="M180 151q0 -25 4 -41t12.5 -25t23 -12.5t35.5 -3.5q23 0 42 4t31 9v-74q-12 -7 -37.5 -12.5t-53.5 -5.5q-65 0 -102.5 30t-37.5 100v630h83v-599v0z" />
    <glyph glyph-name="m" unicode="m" horiz-adv-x="907" 
d="M96 530h78l5 -89q14 42 54.5 70.5t103.5 28.5q66 0 101 -29.5t43 -69.5q18 44 61.5 71.5t110.5 27.5q89 0 126.5 -42.5t37.5 -127.5v-370h-83v338q0 71 -28 97t-89 26q-57 0 -88 -35t-31 -101v-325h-83v348q0 34 -8 56t-22.5 34.5t-34.5 17.5t-45 5q-60 0 -93 -32.5
t-33 -95.5v-333h-83v530z" />
    <glyph glyph-name="n" unicode="n" horiz-adv-x="622" 
d="M96 530h77l5 -84q26 46 68.5 70t105.5 24q48 0 82 -10t56 -33.5t32.5 -62.5t10.5 -96v-338h-83v321q0 41 -6 68.5t-20.5 44.5t-39.5 24.5t-62 7.5q-70 0 -106.5 -39t-36.5 -108v-319h-83v530z" />
    <glyph glyph-name="o" unicode="o" horiz-adv-x="615" 
d="M60 267q0 69 19 120t53 85t81.5 51t104.5 17q54 0 98 -16t74.5 -50t47.5 -86t17 -124q0 -75 -19.5 -127t-53 -85t-78.5 -48t-97 -15q-119 0 -183 73t-64 205zM143 264q0 -95 43.5 -147.5t127.5 -52.5q74 0 116 47.5t42 152.5v3q0 101 -42.5 150t-122.5 49
q-79 0 -121.5 -50.5t-42.5 -148.5v-3z" />
    <glyph glyph-name="p" unicode="p" horiz-adv-x="626" 
d="M95 530h76l5 -93q42 103 185 103q103 0 154 -61.5t51 -202.5q0 -77 -14 -131.5t-41.5 -89t-68.5 -50.5t-95 -16q-68 0 -108.5 24.5t-60.5 57.5v-251h-83v710zM178 213q0 -69 39.5 -109t112.5 -40q42 0 71 11t47 36t26.5 64t8.5 96q0 54 -10 91.5t-29 60t-47.5 32.5
t-65.5 10q-39 0 -68 -11t-48 -30.5t-28 -46.5t-9 -58v-106z" />
    <glyph glyph-name="q" unicode="q" horiz-adv-x="626" 
d="M447 83q-21 -40 -61 -67t-101 -27q-55 0 -97 14.5t-70.5 46t-43 81.5t-14.5 122q0 152 57.5 219.5t176.5 67.5q57 0 96.5 -22t60.5 -58l6 70h73v-710h-83v263zM303 64q37 0 64.5 11.5t45 31.5t26 47.5t8.5 59.5v102q0 73 -38 111t-113 38q-77 0 -115 -46.5t-38 -160.5
q0 -57 9.5 -94t29.5 -59.5t50 -31.5t71 -9z" />
    <glyph glyph-name="r" unicode="r" horiz-adv-x="401" 
d="M96 530h74l5 -71q9 19 24 34.5t34 26t41 16t45 5.5q31 0 47 -4v-94q-30 24 -71 24q-62 0 -89 -38t-27 -106v-323h-83v530z" />
    <glyph glyph-name="s" unicode="s" horiz-adv-x="507" 
d="M419 410q-29 25 -62.5 40.5t-82.5 15.5q-60 0 -86 -16.5t-26 -54.5q0 -30 20.5 -46t52 -26.5t67.5 -19t67.5 -25t52 -44.5t20.5 -77q0 -85 -49 -126.5t-146 -41.5q-63 0 -106 11t-76 31v103q31 -31 81 -50.5t101 -19.5q112 0 112 89q0 30 -20.5 46t-52 26t-67.5 19
t-67.5 25.5t-52 44t-20.5 75.5q0 35 10 63t32.5 47.5t59 30t89.5 10.5q55 0 90.5 -10t58.5 -21v-99z" />
    <glyph glyph-name="t" unicode="t" horiz-adv-x="467" 
d="M138 456h-113v74h113v109l83 31v-140h191v-74h-191v-289q0 -58 22 -80t68 -22q45 0 72 9t49 23v-77q-17 -12 -52 -21t-75 -9q-83 0 -125 39.5t-42 134.5v292z" />
    <glyph glyph-name="u" unicode="u" horiz-adv-x="617" 
d="M440 84q-50 -95 -174 -95q-84 0 -129.5 43.5t-45.5 141.5v356h83v-331q0 -37 6.5 -62.5t20.5 -41.5t37.5 -23.5t57.5 -7.5q78 0 110 36t32 116v314h83v-530h-76z" />
    <glyph glyph-name="v" unicode="v" horiz-adv-x="541" 
d="M30 530h93l151 -424l149 424h88l-203 -530h-76z" />
    <glyph glyph-name="w" unicode="w" horiz-adv-x="802" 
d="M35 530h87l97 -417l142 417h86l145 -412l94 412h81l-131 -530h-88l-144 433l-152 -433h-88z" />
    <glyph glyph-name="x" unicode="x" horiz-adv-x="527" 
d="M211 271l-174 259h102l127 -195l127 195h97l-176 -252l188 -278h-102l-139 215l-139 -215h-97z" />
    <glyph glyph-name="y" unicode="y" horiz-adv-x="532" 
d="M154 -108q14 0 25.5 3.5t22 14.5t21 32t22.5 56l-215 532h96l162 -423l135 423h89l-183 -512q-26 -74 -49.5 -115t-44.5 -61t-41 -24.5t-39 -4.5q-32 0 -47 8v83q21 -12 46 -12z" />
    <glyph glyph-name="z" unicode="z" horiz-adv-x="505" 
d="M40 46l303 410h-285v74h400v-46l-306 -409h308v-75h-420v46z" />
    <glyph glyph-name="braceleft" unicode="{" horiz-adv-x="518" 
d="M172 135q0 30 -10 51t-26 34.5t-35.5 20t-38.5 6.5v76q19 0 38.5 7.5t35.5 22.5t26 36t10 48v153q0 85 37.5 122.5t122.5 37.5h86v-80h-82q-45 0 -64.5 -19.5t-19.5 -64.5v-150q0 -61 -24.5 -96t-85.5 -55q61 -15 85.5 -57.5t24.5 -102.5v-141q0 -45 19.5 -64.5
t64.5 -19.5h82v-80h-86q-85 0 -122.5 37.5t-37.5 122.5v155z" />
    <glyph glyph-name="bar" unicode="|" horiz-adv-x="330" 
d="M120 750h90v-930h-90v930z" />
    <glyph glyph-name="braceright" unicode="}" horiz-adv-x="518" 
d="M346 -20q0 -85 -37.5 -122.5t-122.5 -37.5h-86v80h82q45 0 64.5 19.5t19.5 64.5v150q0 61 24.5 96t85.5 55q-61 15 -85.5 57.5t-24.5 102.5v141q0 45 -19.5 64.5t-64.5 19.5h-82v80h86q85 0 122.5 -37.5t37.5 -122.5v-155q0 -30 10 -51t26 -34.5t35.5 -20t38.5 -6.5v-76
q-19 0 -38.5 -7.5t-35.5 -22.5t-26 -36t-10 -48v-153v0z" />
    <glyph glyph-name="asciitilde" unicode="~" horiz-adv-x="600" 
d="M90 371q23 20 52 30t59 10q33 0 61.5 -13.5t55.5 -29.5t53.5 -29.5t54.5 -13.5q20 0 44 11t40 36v-89q-20 -19 -45.5 -28.5t-52.5 -9.5q-34 0 -63.5 13.5t-56 29.5t-50.5 29.5t-46 13.5q-34 0 -57.5 -11t-48.5 -32v83z" />
    <glyph glyph-name="uni00A0" unicode="&#xa0;" horiz-adv-x="300" 
 />
    <glyph glyph-name="exclamdown" unicode="&#xa1;" horiz-adv-x="381" 
d="M150 476q0 26 13.5 45t51.5 19t52 -19t14 -45q0 -27 -14 -46t-52 -19t-51.5 19t-13.5 46zM260 300v-470h-90v470h90z" />
    <glyph glyph-name="cent" unicode="&#xa2;" horiz-adv-x="560" 
d="M282 -5q-100 11 -148.5 83t-48.5 191q0 118 50 186.5t147 79.5v95h57v-93q39 -2 64 -7.5t42 -10.5v-76q-17 6 -44.5 12.5t-64.5 6.5q-78 0 -119.5 -44.5t-41.5 -140.5q0 -109 44 -159t125 -50q36 0 64.5 7t44.5 14v-75q-16 -7 -44 -13.5t-70 -8.5v-112h-57v115z" />
    <glyph glyph-name="sterling" unicode="&#xa3;" horiz-adv-x="550" 
d="M65 84h85v258h-85v60h85v78q0 31 6 70.5t28 75t66 59.5t120 24q34 0 63 -5t47 -11v-83q-29 8 -52.5 12t-58.5 4q-39 0 -64 -11.5t-39.5 -31t-20 -45.5t-5.5 -56v-80h159v-60h-159v-258h245v-84h-420v84z" />
    <glyph glyph-name="currency" unicode="&#xa4;" horiz-adv-x="550" 
d="M45 160l61 67q-14 20 -24.5 50.5t-10.5 71.5q0 42 10.5 72t24.5 50l-61 68l48 51l61 -67q19 15 50 26t70 11q42 0 72.5 -11t47.5 -25l63 67l49 -49l-62 -71q13 -20 24 -50.5t11 -71.5q0 -40 -11 -71t-24 -51l61 -67l-49 -50l-60 65q-20 -15 -50.5 -26t-71.5 -11
q-40 0 -71 11t-49 26l-60 -64zM136 349q0 -36 11.5 -63t30.5 -45t44 -27.5t52 -9.5q28 0 53.5 9.5t45 27.5t30.5 45t11 63q0 34 -11 61t-30.5 46t-45 29t-53.5 10q-27 0 -52 -10t-44 -29t-30.5 -46t-11.5 -61z" />
    <glyph glyph-name="yen" unicode="&#xa5;" horiz-adv-x="592" 
d="M119 233h132v60l-8 14h-124v59h95l-170 334h104l149 -310l146 310h105l-170 -334h95v-59h-125l-7 -14v-60h132v-59h-132v-174h-90v174h-132v59z" />
    <glyph glyph-name="brokenbar" unicode="&#xa6;" horiz-adv-x="352" 
d="M135 210h82v-390h-82v390zM135 750h82v-390h-82v390z" />
    <glyph glyph-name="section" unicode="&#xa7;" horiz-adv-x="470" 
d="M389 598q-43 19 -76 24t-58 5q-44 0 -73 -16t-29 -56q0 -15 4.5 -26t15.5 -22t30.5 -22t48.5 -26q3 -2 9.5 -5.5t14 -7.5t14.5 -7t10 -4q22 -12 44 -25t39.5 -30t28.5 -38.5t11 -49.5q0 -32 -17.5 -67.5t-57.5 -67.5q27 -21 43.5 -46t16.5 -63q0 -47 -19.5 -79t-48.5 -51
t-64.5 -27t-66.5 -8q-15 0 -34 1.5t-39.5 5t-41.5 9t-39 13.5v90q45 -25 80 -32.5t68 -7.5q34 0 55.5 7.5t34 19t17 25.5t4.5 26q0 18 -6 31t-19 24.5t-32.5 22.5t-47.5 25q-3 1 -10.5 4.5t-16 7.5t-16 8t-10.5 6q-48 24 -78.5 57.5t-30.5 83.5q0 38 19.5 68.5t54.5 58.5
q-29 20 -45.5 47.5t-16.5 65.5q0 76 53 117.5t147 41.5q35 0 71 -7.5t59 -15.5v-88zM137 326q0 -32 19.5 -55.5t71.5 -49.5q2 -1 11.5 -5.5t20.5 -10t20.5 -10t11.5 -5.5q13 14 26.5 35t13.5 50t-18.5 52t-65.5 46l-11 5.5t-20.5 10t-21.5 10t-13 6.5q-20 -16 -32.5 -36
t-12.5 -43z" />
    <glyph glyph-name="dieresis" unicode="&#xa8;" 
d="M185 690q0 52 52 52t52 -52t-52 -52t-52 52zM361 690q0 52 52 52t52 -52t-52 -52t-52 52z" />
    <glyph glyph-name="copyright" unicode="&#xa9;" horiz-adv-x="950" 
d="M80 260q0 88 28.5 160t80 123t124.5 79t162 28t162 -28t124.5 -79t80 -123t28.5 -160t-28.5 -160t-80 -123t-124.5 -79t-162 -28t-162 28t-124.5 79t-80 123t-28.5 160zM160 261q0 -72 23 -130.5t64.5 -100.5t99.5 -65t128 -23t128 23t99.5 65t64.5 100.5t23 130.5
t-23 130.5t-64.5 100t-99.5 64t-128 22.5t-128 -22.5t-99.5 -64t-64.5 -100t-23 -130.5zM565 395q-16 7 -36 8.5t-34 1.5q-65 0 -96 -32.5t-31 -104.5q0 -38 8.5 -64.5t25 -42.5t40.5 -23t54 -7q14 0 34 2t36 10v-62q-32 -12 -78 -12q-99 0 -143.5 51.5t-44.5 145.5
q0 103 49 151t137 48q48 0 79 -11v-59z" />
    <glyph glyph-name="ordfeminine" unicode="&#xaa;" horiz-adv-x="360" 
d="M250 425h-1q-14 -23 -37 -40t-64 -17q-54 0 -82 25.5t-28 76.5t34.5 77.5t107.5 26.5q20 0 36 -1t27 -2v21q0 29 -14.5 44.5t-60.5 15.5q-23 0 -51 -5.5t-48 -14.5v58q21 8 50 13.5t58 5.5q40 0 66.5 -8t42.5 -24t22 -40t6 -56v-208h-64v52zM112 474q0 -21 14 -34t43 -13
q38 0 56 22.5t18 51.5v21q-9 1 -22.5 2t-29.5 1q-46 0 -62.5 -12.5t-16.5 -38.5z" />
    <glyph glyph-name="guillemotleft" unicode="&#xab;" horiz-adv-x="581" 
d="M60 268l141 222h89l-140 -220l141 -220h-93zM270 268l141 222h89l-140 -220l141 -220h-93z" />
    <glyph glyph-name="logicalnot" unicode="&#xac;" horiz-adv-x="600" 
d="M37 399h510v-232h-79v157h-431v75z" />
    <glyph glyph-name="uni00AD" unicode="&#xad;" horiz-adv-x="467" 
d="M100 337h267v-84h-267v84z" />
    <glyph glyph-name="registered" unicode="&#xae;" horiz-adv-x="598" 
d="M50 520q0 55 18 100.5t50.5 78t78.5 50t102 17.5t102 -17.5t78.5 -50t50.5 -78t18 -100.5q0 -56 -18 -101t-50.5 -77.5t-78.5 -50t-102 -17.5t-102 17.5t-78.5 50t-50.5 77.5t-18 101zM100 521q0 -45 14.5 -82.5t41 -64t63 -41t80.5 -14.5t80.5 14.5t63 41t41 64
t14.5 82.5t-14.5 82t-41 63t-63 40.5t-80.5 14.5t-80.5 -14.5t-63 -40.5t-41 -63t-14.5 -82zM203 663h113q12 0 26 -2t26 -10t20.5 -24.5t8.5 -45.5q0 -31 -14.5 -51t-34.5 -25l70 -113h-64l-63 106h-34v-106h-54v271zM305 545q14 0 24.5 7t10.5 29t-10 27.5t-24 5.5h-49
v-69h48z" />
    <glyph glyph-name="macron" unicode="&#xaf;" 
d="M185 725h280v-70h-280v70z" />
    <glyph glyph-name="degree" unicode="&#xb0;" horiz-adv-x="414" 
d="M56 547q0 42 11 73t31 51t47.5 29.5t59.5 9.5t60 -9t48.5 -28.5t32.5 -50.5t12 -75q0 -45 -11.5 -76.5t-31 -51t-46.5 -28.5t-58 -9q-35 0 -63.5 9t-48.5 28.5t-31.5 51t-11.5 76.5zM128 547q0 -54 23.5 -73.5t58.5 -19.5q15 0 29 3.5t24.5 14t17 28.5t6.5 47
q0 51 -22 71t-57 20q-36 0 -58 -20t-22 -71z" />
    <glyph glyph-name="plusminus" unicode="&#xb1;" horiz-adv-x="605" 
d="M90 165h425v-79h-425v79zM90 466h175v155h75v-155h175v-79h-175v-156h-75v156h-175v79z" />
    <glyph glyph-name="twosuperior" unicode="&#xb2;" horiz-adv-x="450" 
d="M53 457l120 85q33 23 55.5 41t36.5 33.5t20.5 30t6.5 30.5q0 31 -24 47t-69 16q-35 0 -69.5 -6t-59.5 -21v73q33 13 65.5 18t71.5 5q35 0 66 -6t54 -19.5t36.5 -35.5t13.5 -55q0 -51 -37.5 -96.5t-121.5 -98.5l-69 -44v-1h234v-71h-330v75z" />
    <glyph glyph-name="threesuperior" unicode="&#xb3;" horiz-adv-x="450" 
d="M136 629h79q47 0 69 12t22 44q0 29 -22 42t-76 13q-35 0 -70.5 -4.5t-61.5 -15.5v69q15 6 33.5 10t39.5 6.5t42 3t41 0.5q75 0 115 -28.5t40 -78.5q0 -44 -27 -65t-74 -34v-2q35 -5 57 -15.5t34 -24t16 -29.5t4 -31q0 -35 -16 -59t-41.5 -39t-58.5 -22t-66 -7
q-35 0 -73.5 3t-71.5 16v71q26 -13 62 -17t75 -4q56 0 81.5 14.5t25.5 44.5q0 39 -23 53.5t-69 14.5h-86v59z" />
    <glyph glyph-name="acute" unicode="&#xb4;" 
d="M364 755h114l-116 -130h-74z" />
    <glyph glyph-name="mu" unicode="&#xb5;" horiz-adv-x="638" 
d="M455 84q-51 -95 -181 -95q-60 0 -99 19v-218h-84v740h89v-329q0 -72 28 -102.5t99 -30.5q80 0 113 36t33 114v312h89v-530h-81z" />
    <glyph glyph-name="mu" unicode="&#x3bc;" horiz-adv-x="638" 
d="M455 84q-51 -95 -181 -95q-60 0 -99 19v-218h-84v740h89v-329q0 -72 28 -102.5t99 -30.5q80 0 113 36t33 114v312h89v-530h-81z" />
    <glyph glyph-name="paragraph" unicode="&#xb6;" horiz-adv-x="550" 
d="M227 357q-77 0 -118.5 46t-41.5 121q0 65 24 100.5t57 52.5t67 20t55 3h177v-910h-66v848h-87v-848h-67v567z" />
    <glyph glyph-name="periodcentered" unicode="&#xb7;" horiz-adv-x="249" 
d="M65 342q0 28 15 44t44 16q28 0 44 -16.5t16 -43.5q0 -29 -15.5 -44.5t-44.5 -15.5q-28 0 -43.5 16t-15.5 44z" />
    <glyph glyph-name="cedilla" unicode="&#xb8;" 
d="M281 0h52l-6 -44q21 -1 38 -5t30 -13.5t20 -25.5t7 -41q0 -42 -29.5 -67.5t-79.5 -25.5q-28 0 -44 4t-30 11l7 52q15 -7 27.5 -10t31.5 -3t33 9.5t14 33.5q0 11 -4.5 18t-11.5 10.5t-15.5 4.5t-16.5 1h-18t-18 -2z" />
    <glyph glyph-name="onesuperior" unicode="&#xb9;" horiz-adv-x="450" 
d="M221 708l-122 -56l-32 63l173 85h64v-418h-83v326z" />
    <glyph glyph-name="ordmasculine" unicode="&#xba;" horiz-adv-x="391" 
d="M40 539q0 83 39.5 126.5t114.5 43.5q157 0 157 -170q0 -84 -40.5 -127.5t-116.5 -43.5t-115 43t-39 128zM113 539q0 -63 22.5 -87t58.5 -24q40 0 61.5 24.5t21.5 86.5q0 61 -21 85t-62 24q-38 0 -59.5 -24t-21.5 -85z" />
    <glyph glyph-name="guillemotright" unicode="&#xbb;" horiz-adv-x="581" 
d="M383 50h-93l141 220l-140 220h89l141 -222zM173 50h-93l141 220l-140 220h89l141 -222z" />
    <glyph glyph-name="onequarter" unicode="&#xbc;" horiz-adv-x="950" 
d="M733 700h90l-574 -700h-93zM493 154l248 267h95v-263h55v-68h-55v-87h-75v87h-268v64zM761 341h-1l-171 -183h172v183zM214 609l-122 -56l-32 63l173 85h64v-418h-83v326z" />
    <glyph glyph-name="onehalf" unicode="&#xbd;" horiz-adv-x="950" 
d="M681 700h90l-574 -700h-93zM567 78l120 85q33 23 55.5 41t36.5 33.5t20.5 30t6.5 30.5q0 31 -24 47t-69 16q-35 0 -69.5 -6t-59.5 -21v73q33 13 65.5 18t71.5 5q35 0 66 -6t54 -19.5t36.5 -35.5t13.5 -55q0 -51 -37.5 -96.5t-121.5 -98.5l-69 -44v-1h234v-71h-330v75z
M205 609l-122 -56l-32 63l173 85h64v-418h-83v326z" />
    <glyph glyph-name="threequarters" unicode="&#xbe;" horiz-adv-x="950" 
d="M748 700h90l-574 -700h-93zM505 154l248 267h95v-263h55v-68h-55v-87h-75v87h-268v64zM773 341h-1l-171 -183h172v183zM133 530h79q47 0 69 12t22 44q0 29 -22 42t-76 13q-35 0 -70.5 -4.5t-61.5 -15.5v69q15 6 33.5 10t39.5 6.5t42 3t41 0.5q75 0 115 -28.5t40 -78.5
q0 -44 -27 -65t-74 -34v-2q35 -5 57 -15.5t34 -24t16 -29.5t4 -31q0 -35 -16 -59t-41.5 -39t-58.5 -22t-66 -7q-35 0 -73.5 3t-71.5 16v71q26 -13 62 -17t75 -4q56 0 81.5 14.5t25.5 44.5q0 39 -23 53.5t-69 14.5h-86v59z" />
    <glyph glyph-name="questiondown" unicode="&#xbf;" horiz-adv-x="597" 
d="M420 298q0 -42 -16.5 -69.5t-42 -47t-54.5 -35t-54.5 -34t-42 -43t-16.5 -61.5q0 -48 39 -78t118 -30q53 0 88.5 10.5t67.5 28.5v-93q-27 -11 -69.5 -18.5t-93.5 -7.5q-55 0 -98.5 10.5t-73.5 33t-46 58.5t-16 86q0 47 17 79.5t42.5 55.5t55.5 40t55.5 33.5t42.5 35.5
t17 46h80zM445 474q0 -27 -13.5 -46t-51.5 -19t-52 19t-14 46q0 26 14 45t52 19t51.5 -19t13.5 -45z" />
    <glyph glyph-name="Agrave" unicode="&#xc0;" horiz-adv-x="679" 
d="M485 187h-299l-69 -187h-92l267 700h91l271 -700h-99zM216 267h239l-120 321zM301 910l78 -140h-80l-122 140h124z" />
    <glyph glyph-name="Aacute" unicode="&#xc1;" horiz-adv-x="679" 
d="M485 187h-299l-69 -187h-92l267 700h91l271 -700h-99zM216 267h239l-120 321zM385 910h116l-124 -140h-76z" />
    <glyph glyph-name="Acircumflex" unicode="&#xc2;" horiz-adv-x="679" 
d="M485 187h-299l-69 -187h-92l267 700h91l271 -700h-99zM216 267h239l-120 321zM289 910h100l105 -140h-87l-68 88l-68 -88h-87z" />
    <glyph glyph-name="Atilde" unicode="&#xc3;" horiz-adv-x="679" 
d="M485 187h-299l-69 -187h-92l267 700h91l271 -700h-99zM216 267h239l-120 321zM184 794q2 50 26.5 78t62.5 28q21 0 37.5 -7.5t36.5 -18.5q17 -9 31 -15.5t25 -6.5t19 9.5t12 38.5l60 -15q-5 -51 -31 -78t-58 -27q-16 0 -30 5.5t-44 21.5q-20 10 -29 16t-24 6
q-11 0 -19.5 -10t-13.5 -39z" />
    <glyph glyph-name="Adieresis" unicode="&#xc4;" horiz-adv-x="679" 
d="M485 187h-299l-69 -187h-92l267 700h91l271 -700h-99zM216 267h239l-120 321zM189 840q0 26 14 40t40 14t40 -14t14 -40t-14 -40t-40 -14t-40 14t-14 40zM381 840q0 26 14 40t40 14t40 -14t14 -40t-14 -40t-40 -14t-40 14t-14 40z" />
    <glyph glyph-name="Aring" unicode="&#xc5;" horiz-adv-x="679" 
d="M485 187h-299l-69 -187h-92l267 700h91l271 -700h-99zM216 267h239l-120 321zM247 840q0 21 8 38t20.5 29t29 18.5t34.5 6.5t34.5 -6.5t29 -18.5t20.5 -29t8 -38t-8 -38t-20.5 -29t-29 -18.5t-34.5 -6.5t-34.5 6.5t-29 18.5t-20.5 29t-8 38zM295 840q0 -20 12 -32t32 -12
t32 12t12 32t-12 32t-32 12t-32 -12t-12 -32z" />
    <glyph glyph-name="AE" unicode="&#xc6;" horiz-adv-x="958" 
d="M462 187h-239l-103 -187h-95l388 700h464v-80h-325v-225h308v-80h-308v-235h336v-80h-426v187zM462 267v351l-195 -351h195z" />
    <glyph glyph-name="Ccedilla" unicode="&#xc7;" horiz-adv-x="658" 
d="M350 -6q-143 10 -211.5 94.5t-68.5 261.5q0 95 20.5 162.5t61 111t100.5 64t140 20.5q68 0 114.5 -11.5t72.5 -19.5v-100q-27 19 -77 35t-113 16q-56 0 -98 -14t-70 -45.5t-42.5 -83t-14.5 -126.5q0 -82 16 -137t46 -88t73.5 -47t97.5 -14q35 0 66.5 6t58 14.5t46 18
t30.5 15.5v-91q-23 -14 -73.5 -28t-117.5 -16l-6 -41q22 -1 41 -5t33.5 -14t22.5 -26.5t8 -41.5q0 -23 -9 -42t-25 -33.5t-38 -22.5t-48 -8q-31 0 -49 4.5t-32 11.5l8 54q16 -7 30 -10t34 -3q19 0 35.5 10t16.5 36q0 23 -17.5 32t-34.5 9q-8 0 -19.5 -0.5t-18.5 -2.5z" />
    <glyph glyph-name="Egrave" unicode="&#xc8;" horiz-adv-x="608" 
d="M112 700h426v-80h-336v-225h308v-80h-308v-235h336v-80h-426v700zM287 910l78 -140h-80l-122 140h124z" />
    <glyph glyph-name="Eacute" unicode="&#xc9;" horiz-adv-x="608" 
d="M112 700h426v-80h-336v-225h308v-80h-308v-235h336v-80h-426v700zM371 910h116l-124 -140h-76z" />
    <glyph glyph-name="Ecircumflex" unicode="&#xca;" horiz-adv-x="608" 
d="M112 700h426v-80h-336v-225h308v-80h-308v-235h336v-80h-426v700zM275 910h100l105 -140h-87l-68 88l-68 -88h-87z" />
    <glyph glyph-name="Edieresis" unicode="&#xcb;" horiz-adv-x="608" 
d="M112 700h426v-80h-336v-225h308v-80h-308v-235h336v-80h-426v700zM175 840q0 26 14 40t40 14t40 -14t14 -40t-14 -40t-40 -14t-40 14t-14 40zM367 840q0 26 14 40t40 14t40 -14t14 -40t-14 -40t-40 -14t-40 14t-14 40z" />
    <glyph glyph-name="Igrave" unicode="&#xcc;" horiz-adv-x="324" 
d="M117 700h90v-700h-90v700zM125 910l78 -140h-80l-122 140h124z" />
    <glyph glyph-name="Iacute" unicode="&#xcd;" horiz-adv-x="324" 
d="M117 700h90v-700h-90v700zM209 910h116l-124 -140h-76z" />
    <glyph glyph-name="Icircumflex" unicode="&#xce;" horiz-adv-x="324" 
d="M117 700h90v-700h-90v700zM113 910h100l105 -140h-87l-68 88l-68 -88h-87z" />
    <glyph glyph-name="Idieresis" unicode="&#xcf;" horiz-adv-x="324" 
d="M117 700h90v-700h-90v700zM13 840q0 26 14 40t40 14t40 -14t14 -40t-14 -40t-40 -14t-40 14t-14 40zM205 840q0 26 14 40t40 14t40 -14t14 -40t-14 -40t-40 -14t-40 14t-14 40z" />
    <glyph glyph-name="Eth" unicode="&#xd0;" horiz-adv-x="743" 
d="M33 385h79v313q15 2 33.5 3.5t43 3t55.5 2.5t72 1q101 0 169.5 -20.5t110 -62t59.5 -104t18 -147.5q0 -104 -23.5 -177t-70.5 -118.5t-117.5 -66t-164.5 -20.5q-69 0 -114 4.5t-71 8.5v316h-79v64zM202 79q20 -3 43 -5t46 -2q76 0 131 15t89.5 49t51 89.5t16.5 136.5
q0 73 -13 124t-44 82.5t-82.5 45.5t-128.5 14q-30 0 -57.5 -2t-51.5 -5v-236h199v-64h-199v-242z" />
    <glyph glyph-name="Ntilde" unicode="&#xd1;" horiz-adv-x="789" 
d="M112 700h93l322 -459q20 -30 35.5 -54t29.5 -48q-2 28 -3.5 57t-1.5 65v439h90v-700h-94l-301 433q-21 29 -44 67.5t-44 75.5q3 -35 5.5 -66.5t2.5 -71.5v-438h-90v700zM239 794q2 50 26.5 78t62.5 28q21 0 37.5 -7.5t36.5 -18.5q17 -9 31 -15.5t25 -6.5t19 9.5t12 38.5
l60 -15q-5 -51 -31 -78t-58 -27q-16 0 -30 5.5t-44 21.5q-20 10 -29 16t-24 6q-11 0 -19.5 -10t-13.5 -39z" />
    <glyph glyph-name="Ograve" unicode="&#xd2;" horiz-adv-x="788" 
d="M70 350q0 185 82 272.5t253 87.5q160 0 236.5 -87.5t76.5 -272.5q0 -98 -22.5 -166t-64.5 -111.5t-102 -63t-136 -19.5q-69 0 -128.5 19t-102.5 62t-67.5 111.5t-24.5 167.5zM164 347q0 -78 17 -130.5t48 -85t74 -46.5t95 -14q53 0 95 14t71 46.5t44.5 85t15.5 130.5
q0 80 -15.5 134t-45.5 87t-73 47t-97 14q-118 0 -173.5 -69.5t-55.5 -212.5zM356 910l78 -140h-80l-122 140h124z" />
    <glyph glyph-name="Oacute" unicode="&#xd3;" horiz-adv-x="788" 
d="M70 350q0 185 82 272.5t253 87.5q160 0 236.5 -87.5t76.5 -272.5q0 -98 -22.5 -166t-64.5 -111.5t-102 -63t-136 -19.5q-69 0 -128.5 19t-102.5 62t-67.5 111.5t-24.5 167.5zM164 347q0 -78 17 -130.5t48 -85t74 -46.5t95 -14q53 0 95 14t71 46.5t44.5 85t15.5 130.5
q0 80 -15.5 134t-45.5 87t-73 47t-97 14q-118 0 -173.5 -69.5t-55.5 -212.5zM440 910h116l-124 -140h-76z" />
    <glyph glyph-name="Ocircumflex" unicode="&#xd4;" horiz-adv-x="788" 
d="M70 350q0 185 82 272.5t253 87.5q160 0 236.5 -87.5t76.5 -272.5q0 -98 -22.5 -166t-64.5 -111.5t-102 -63t-136 -19.5q-69 0 -128.5 19t-102.5 62t-67.5 111.5t-24.5 167.5zM164 347q0 -78 17 -130.5t48 -85t74 -46.5t95 -14q53 0 95 14t71 46.5t44.5 85t15.5 130.5
q0 80 -15.5 134t-45.5 87t-73 47t-97 14q-118 0 -173.5 -69.5t-55.5 -212.5zM344 910h100l105 -140h-87l-68 88l-68 -88h-87z" />
    <glyph glyph-name="Otilde" unicode="&#xd5;" horiz-adv-x="788" 
d="M70 350q0 185 82 272.5t253 87.5q160 0 236.5 -87.5t76.5 -272.5q0 -98 -22.5 -166t-64.5 -111.5t-102 -63t-136 -19.5q-69 0 -128.5 19t-102.5 62t-67.5 111.5t-24.5 167.5zM164 347q0 -78 17 -130.5t48 -85t74 -46.5t95 -14q53 0 95 14t71 46.5t44.5 85t15.5 130.5
q0 80 -15.5 134t-45.5 87t-73 47t-97 14q-118 0 -173.5 -69.5t-55.5 -212.5zM239 794q2 50 26.5 78t62.5 28q21 0 37.5 -7.5t36.5 -18.5q17 -9 31 -15.5t25 -6.5t19 9.5t12 38.5l60 -15q-5 -51 -31 -78t-58 -27q-16 0 -30 5.5t-44 21.5q-20 10 -29 16t-24 6q-11 0 -19.5 -10
t-13.5 -39z" />
    <glyph glyph-name="Odieresis" unicode="&#xd6;" horiz-adv-x="788" 
d="M70 350q0 185 82 272.5t253 87.5q160 0 236.5 -87.5t76.5 -272.5q0 -98 -22.5 -166t-64.5 -111.5t-102 -63t-136 -19.5q-69 0 -128.5 19t-102.5 62t-67.5 111.5t-24.5 167.5zM164 347q0 -78 17 -130.5t48 -85t74 -46.5t95 -14q53 0 95 14t71 46.5t44.5 85t15.5 130.5
q0 80 -15.5 134t-45.5 87t-73 47t-97 14q-118 0 -173.5 -69.5t-55.5 -212.5zM244 840q0 26 14 40t40 14t40 -14t14 -40t-14 -40t-40 -14t-40 14t-14 40zM436 840q0 26 14 40t40 14t40 -14t14 -40t-14 -40t-40 -14t-40 14t-14 40z" />
    <glyph glyph-name="multiply" unicode="&#xd7;" horiz-adv-x="570" 
d="M234 323l-138 149l55 52l133 -144l135 144l55 -52l-138 -149l138 -148l-55 -51l-135 144l-133 -144l-55 51z" />
    <glyph glyph-name="Oslash" unicode="&#xd8;" horiz-adv-x="788" 
d="M70 350q0 185 82 272.5t253 87.5q108 0 179 -42l45 62l59 -40l-49 -67q79 -88 79 -273q0 -98 -22.5 -166t-64.5 -111.5t-102 -63t-136 -19.5q-52 0 -98 10t-84 33l-53 -73l-59 40l56 78q-40 43 -62.5 109.5t-22.5 162.5zM164 347q0 -66 12 -113.5t35 -79.5l320 441
q-28 18 -62 26t-76 8q-118 0 -173.5 -69.5t-55.5 -212.5zM624 347q0 67 -11 115t-32 81l-319 -439q28 -18 62.5 -25.5t73.5 -7.5q53 0 95 14t71 46.5t44.5 85t15.5 130.5z" />
    <glyph glyph-name="Ugrave" unicode="&#xd9;" horiz-adv-x="750" 
d="M107 700h90v-425q0 -66 14 -106.5t39 -62t60 -29t77 -7.5q34 0 64.5 6t53 26t35.5 58t13 103v437h90v-433q0 -84 -21 -137.5t-57 -84.5t-84.5 -43t-103.5 -12q-141 0 -205.5 64t-64.5 205v441zM337 910l78 -140h-80l-122 140h124z" />
    <glyph glyph-name="Uacute" unicode="&#xda;" horiz-adv-x="750" 
d="M107 700h90v-425q0 -66 14 -106.5t39 -62t60 -29t77 -7.5q34 0 64.5 6t53 26t35.5 58t13 103v437h90v-433q0 -84 -21 -137.5t-57 -84.5t-84.5 -43t-103.5 -12q-141 0 -205.5 64t-64.5 205v441zM421 910h116l-124 -140h-76z" />
    <glyph glyph-name="Ucircumflex" unicode="&#xdb;" horiz-adv-x="750" 
d="M107 700h90v-425q0 -66 14 -106.5t39 -62t60 -29t77 -7.5q34 0 64.5 6t53 26t35.5 58t13 103v437h90v-433q0 -84 -21 -137.5t-57 -84.5t-84.5 -43t-103.5 -12q-141 0 -205.5 64t-64.5 205v441zM325 910h100l105 -140h-87l-68 88l-68 -88h-87z" />
    <glyph glyph-name="Udieresis" unicode="&#xdc;" horiz-adv-x="750" 
d="M107 700h90v-425q0 -66 14 -106.5t39 -62t60 -29t77 -7.5q34 0 64.5 6t53 26t35.5 58t13 103v437h90v-433q0 -84 -21 -137.5t-57 -84.5t-84.5 -43t-103.5 -12q-141 0 -205.5 64t-64.5 205v441zM225 840q0 26 14 40t40 14t40 -14t14 -40t-14 -40t-40 -14t-40 14t-14 40z
M417 840q0 26 14 40t40 14t40 -14t14 -40t-14 -40t-40 -14t-40 14t-14 40z" />
    <glyph glyph-name="Yacute" unicode="&#xdd;" horiz-adv-x="623" 
d="M267 267l-247 433h99l197 -347l190 347h96l-245 -432v-268h-90v267zM358 910h116l-124 -140h-76z" />
    <glyph glyph-name="Thorn" unicode="&#xde;" horiz-adv-x="608" 
d="M112 700h90v-102h109q113 0 169 -50t56 -160q0 -103 -57.5 -159.5t-176.5 -56.5h-100v-172h-90v700zM302 256q76 0 106.5 33.5t30.5 96.5q0 66 -30.5 97t-106.5 31h-100v-258h100z" />
    <glyph glyph-name="germandbls" unicode="&#xdf;" horiz-adv-x="620" 
d="M95 482q0 67 11.5 118.5t38 86.5t69.5 53t107 18q36 0 69.5 -9.5t59.5 -31t42 -56.5t16 -87q0 -124 -98 -161v-3q35 -4 60 -20t41.5 -41t24.5 -58t8 -71q0 -49 -12.5 -91t-37 -72.5t-62 -48t-87.5 -17.5q-26 0 -47 2t-39 9v78q15 -5 35 -8.5t43 -3.5q53 0 85.5 33.5
t32.5 114.5q0 46 -9.5 75t-27 45.5t-42 22.5t-53.5 6h-46v76h38q21 0 40 6t33.5 21t23 40t8.5 63q0 54 -28 82.5t-79 28.5q-39 0 -64.5 -14.5t-39.5 -39.5t-19.5 -59t-5.5 -72v-497h-89v482z" />
    <glyph glyph-name="agrave" unicode="&#xe0;" horiz-adv-x="563" 
d="M392 76q-20 -36 -61.5 -61.5t-98.5 -25.5q-80 0 -126 40.5t-46 117.5q0 44 11.5 74.5t37 50t65.5 28.5t97 9h119v50q0 32 -7.5 52.5t-23.5 32t-40.5 16t-57.5 4.5q-45 0 -89.5 -17t-71.5 -40v96q16 9 37.5 16t44.5 11.5t46 7t42 2.5q52 0 90.5 -9t63.5 -30t37 -55.5
t12 -85.5v-360h-76zM145 160q0 -43 24 -67t79 -24q74 0 108 38t34 96v45h-116q-38 0 -63 -5t-39.5 -15.5t-20.5 -27t-6 -40.5zM244 625l-114 130h116l74 -130h-76z" />
    <glyph glyph-name="aacute" unicode="&#xe1;" horiz-adv-x="563" 
d="M392 76q-20 -36 -61.5 -61.5t-98.5 -25.5q-80 0 -126 40.5t-46 117.5q0 44 11.5 74.5t37 50t65.5 28.5t97 9h119v50q0 32 -7.5 52.5t-23.5 32t-40.5 16t-57.5 4.5q-45 0 -89.5 -17t-71.5 -40v96q16 9 37.5 16t44.5 11.5t46 7t42 2.5q52 0 90.5 -9t63.5 -30t37 -55.5
t12 -85.5v-360h-76zM145 160q0 -43 24 -67t79 -24q74 0 108 38t34 96v45h-116q-38 0 -63 -5t-39.5 -15.5t-20.5 -27t-6 -40.5zM321 755h114l-116 -130h-74z" />
    <glyph glyph-name="acircumflex" unicode="&#xe2;" horiz-adv-x="563" 
d="M392 76q-20 -36 -61.5 -61.5t-98.5 -25.5q-80 0 -126 40.5t-46 117.5q0 44 11.5 74.5t37 50t65.5 28.5t97 9h119v50q0 32 -7.5 52.5t-23.5 32t-40.5 16t-57.5 4.5q-45 0 -89.5 -17t-71.5 -40v96q16 9 37.5 16t44.5 11.5t46 7t42 2.5q52 0 90.5 -9t63.5 -30t37 -55.5
t12 -85.5v-360h-76zM145 160q0 -43 24 -67t79 -24q74 0 108 38t34 96v45h-116q-38 0 -63 -5t-39.5 -15.5t-20.5 -27t-6 -40.5zM234 755h96l102 -130h-79l-71 79l-71 -79h-79z" />
    <glyph glyph-name="atilde" unicode="&#xe3;" horiz-adv-x="563" 
d="M392 76q-20 -36 -61.5 -61.5t-98.5 -25.5q-80 0 -126 40.5t-46 117.5q0 44 11.5 74.5t37 50t65.5 28.5t97 9h119v50q0 32 -7.5 52.5t-23.5 32t-40.5 16t-57.5 4.5q-45 0 -89.5 -17t-71.5 -40v96q16 9 37.5 16t44.5 11.5t46 7t42 2.5q52 0 90.5 -9t63.5 -30t37 -55.5
t12 -85.5v-360h-76zM145 160q0 -43 24 -67t79 -24q74 0 108 38t34 96v45h-116q-38 0 -63 -5t-39.5 -15.5t-20.5 -27t-6 -40.5zM132 648q2 46 27.5 72t60.5 26q19 0 34.5 -7.5t35.5 -17.5q16 -8 28.5 -14.5t23.5 -6.5t21 10t13 36l56 -14q-2 -24 -10.5 -42.5t-21 -31
t-27 -18.5t-29.5 -6t-27.5 5.5t-41.5 19.5q-18 9 -27.5 15.5t-23.5 6.5q-11 0 -21.5 -10.5t-14.5 -36.5z" />
    <glyph glyph-name="adieresis" unicode="&#xe4;" horiz-adv-x="563" 
d="M392 76q-20 -36 -61.5 -61.5t-98.5 -25.5q-80 0 -126 40.5t-46 117.5q0 44 11.5 74.5t37 50t65.5 28.5t97 9h119v50q0 32 -7.5 52.5t-23.5 32t-40.5 16t-57.5 4.5q-45 0 -89.5 -17t-71.5 -40v96q16 9 37.5 16t44.5 11.5t46 7t42 2.5q52 0 90.5 -9t63.5 -30t37 -55.5
t12 -85.5v-360h-76zM145 160q0 -43 24 -67t79 -24q74 0 108 38t34 96v45h-116q-38 0 -63 -5t-39.5 -15.5t-20.5 -27t-6 -40.5zM142 690q0 52 52 52t52 -52t-52 -52t-52 52zM318 690q0 52 52 52t52 -52t-52 -52t-52 52z" />
    <glyph glyph-name="aring" unicode="&#xe5;" horiz-adv-x="563" 
d="M392 76q-20 -36 -61.5 -61.5t-98.5 -25.5q-80 0 -126 40.5t-46 117.5q0 44 11.5 74.5t37 50t65.5 28.5t97 9h119v50q0 32 -7.5 52.5t-23.5 32t-40.5 16t-57.5 4.5q-45 0 -89.5 -17t-71.5 -40v96q16 9 37.5 16t44.5 11.5t46 7t42 2.5q52 0 90.5 -9t63.5 -30t37 -55.5
t12 -85.5v-360h-76zM145 160q0 -43 24 -67t79 -24q74 0 108 38t34 96v45h-116q-38 0 -63 -5t-39.5 -15.5t-20.5 -27t-6 -40.5zM192 690q0 21 7.5 37.5t20 28.5t28.5 18t34 6t34 -6t28.5 -18t20 -28.5t7.5 -37.5t-7.5 -37.5t-20 -28t-28.5 -18t-34 -6.5t-34 6.5t-28.5 18
t-20 28t-7.5 37.5zM238 690q0 -20 12 -32t32 -12t32 12t12 32t-12 32t-32 12t-32 -12t-12 -32z" />
    <glyph glyph-name="ae" unicode="&#xe6;" horiz-adv-x="912" 
d="M483 238q0 -86 40 -130t128 -44q51 0 92 17.5t70 40.5v-86q-20 -14 -62 -30.5t-102 -16.5q-75 0 -127 21.5t-82 69.5q-10 -17 -24.5 -33t-37.5 -29t-56 -21t-81 -8q-40 0 -73 10.5t-57 30.5t-37.5 49.5t-13.5 67.5q0 88 53 125t167 37h119v50q0 32 -7.5 52.5t-23.5 32
t-40.5 16t-57.5 4.5q-23 0 -47 -4.5t-47 -12.5t-43 -18.5t-33 -21.5v96q16 9 39 16t48 11.5t49 7t43 2.5q68 0 111.5 -15t66.5 -52q58 67 172 67q61 0 104 -18t69 -51t38 -79.5t12 -102.5v-51h-369zM628 465q-73 0 -109 -37t-36 -118h286q0 81 -33.5 118t-107.5 37zM145 160
q0 -43 28.5 -67t83.5 -24q74 0 108 38t34 96v35h-116q-38 0 -64 -3t-42.5 -12t-24 -24t-7.5 -39z" />
    <glyph glyph-name="ccedilla" unicode="&#xe7;" horiz-adv-x="524" 
d="M260 -7q-47 6 -84.5 24.5t-63 52.5t-39 84.5t-13.5 120.5q0 137 64.5 201t194.5 64q49 0 80 -7.5t54 -19.5v-94q-24 17 -62 29.5t-83 12.5q-36 0 -66 -9.5t-51.5 -31.5t-33 -59.5t-11.5 -92.5q0 -56 12 -94t35.5 -61.5t57 -33.5t77.5 -10q41 0 78.5 12t63.5 34v-90
q-21 -17 -60.5 -26.5t-93.5 -9.5h-5l-4 -33q21 -1 38 -5t30 -13.5t20 -25.5t7 -41q0 -42 -29.5 -67.5t-79.5 -25.5q-28 0 -44 4t-30 11l7 52q15 -7 27.5 -10t31.5 -3t33 9.5t14 33.5q0 11 -4.5 18t-11.5 10.5t-15.5 4.5t-16.5 1h-18t-18 -2z" />
    <glyph glyph-name="egrave" unicode="&#xe8;" horiz-adv-x="582" 
d="M144 235q0 -86 44.5 -128.5t132.5 -42.5q51 0 92 17.5t70 40.5v-86q-20 -14 -62 -30.5t-102 -16.5q-64 0 -112.5 15.5t-81 50t-49 88t-16.5 130.5q0 131 61 199t178 68q61 0 104 -18t69 -51t38 -79.5t12 -102.5v-54h-378zM298 465q-73 0 -113.5 -38.5t-40.5 -119.5h295
q0 81 -33.5 119.5t-107.5 38.5zM264 625l-114 130h116l74 -130h-76z" />
    <glyph glyph-name="eacute" unicode="&#xe9;" horiz-adv-x="582" 
d="M144 235q0 -86 44.5 -128.5t132.5 -42.5q51 0 92 17.5t70 40.5v-86q-20 -14 -62 -30.5t-102 -16.5q-64 0 -112.5 15.5t-81 50t-49 88t-16.5 130.5q0 131 61 199t178 68q61 0 104 -18t69 -51t38 -79.5t12 -102.5v-54h-378zM298 465q-73 0 -113.5 -38.5t-40.5 -119.5h295
q0 81 -33.5 119.5t-107.5 38.5zM341 755h114l-116 -130h-74z" />
    <glyph glyph-name="ecircumflex" unicode="&#xea;" horiz-adv-x="582" 
d="M144 235q0 -86 44.5 -128.5t132.5 -42.5q51 0 92 17.5t70 40.5v-86q-20 -14 -62 -30.5t-102 -16.5q-64 0 -112.5 15.5t-81 50t-49 88t-16.5 130.5q0 131 61 199t178 68q61 0 104 -18t69 -51t38 -79.5t12 -102.5v-54h-378zM298 465q-73 0 -113.5 -38.5t-40.5 -119.5h295
q0 81 -33.5 119.5t-107.5 38.5zM254 755h96l102 -130h-79l-71 79l-71 -79h-79z" />
    <glyph glyph-name="edieresis" unicode="&#xeb;" horiz-adv-x="582" 
d="M144 235q0 -86 44.5 -128.5t132.5 -42.5q51 0 92 17.5t70 40.5v-86q-20 -14 -62 -30.5t-102 -16.5q-64 0 -112.5 15.5t-81 50t-49 88t-16.5 130.5q0 131 61 199t178 68q61 0 104 -18t69 -51t38 -79.5t12 -102.5v-54h-378zM298 465q-73 0 -113.5 -38.5t-40.5 -119.5h295
q0 81 -33.5 119.5t-107.5 38.5zM162 690q0 52 52 52t52 -52t-52 -52t-52 52zM338 690q0 52 52 52t52 -52t-52 -52t-52 52z" />
    <glyph glyph-name="igrave" unicode="&#xec;" horiz-adv-x="303" 
d="M110 530h83v-530h-83v530zM114 625l-114 130h116l74 -130h-76z" />
    <glyph glyph-name="iacute" unicode="&#xed;" horiz-adv-x="303" 
d="M110 530h83v-530h-83v530zM191 755h114l-116 -130h-74z" />
    <glyph glyph-name="icircumflex" unicode="&#xee;" horiz-adv-x="303" 
d="M110 530h83v-530h-83v530zM104 755h96l102 -130h-79l-71 79l-71 -79h-79z" />
    <glyph glyph-name="idieresis" unicode="&#xef;" horiz-adv-x="303" 
d="M110 530h83v-530h-83v530zM12 690q0 52 52 52t52 -52t-52 -52t-52 52zM188 690q0 52 52 52t52 -52t-52 -52t-52 52z" />
    <glyph glyph-name="eth" unicode="&#xf0;" horiz-adv-x="620" 
d="M172 599l85 45q-34 19 -62.5 29t-56.5 16l36 69q43 -8 83 -24.5t84 -44.5l119 60l28 -47l-99 -52q41 -42 68.5 -88.5t44 -97t23.5 -104t7 -108.5q0 -128 -59 -194t-168 -66q-115 0 -171 66t-56 194t56 193t155 65q29 0 59.5 -8t59.5 -39l3 2q-13 36 -35 72t-66 71
l-109 -56zM162 252q0 -52 10 -87t29 -56.5t45 -31t59 -9.5q71 0 107 41t36 143q0 101 -33.5 141.5t-109.5 40.5q-34 0 -60.5 -9t-45 -30.5t-28 -56.5t-9.5 -86z" />
    <glyph glyph-name="ntilde" unicode="&#xf1;" horiz-adv-x="622" 
d="M96 530h77l5 -84q26 46 68.5 70t105.5 24q48 0 82 -10t56 -33.5t32.5 -62.5t10.5 -96v-338h-83v321q0 41 -6 68.5t-20.5 44.5t-39.5 24.5t-62 7.5q-70 0 -106.5 -39t-36.5 -108v-319h-83v530zM181 648q2 46 27.5 72t60.5 26q19 0 34.5 -7.5t35.5 -17.5q16 -8 28.5 -14.5
t23.5 -6.5t21 10t13 36l56 -14q-2 -24 -10.5 -42.5t-21 -31t-27 -18.5t-29.5 -6t-27.5 5.5t-41.5 19.5q-18 9 -27.5 15.5t-23.5 6.5q-11 0 -21.5 -10.5t-14.5 -36.5z" />
    <glyph glyph-name="ograve" unicode="&#xf2;" horiz-adv-x="615" 
d="M60 267q0 69 19 120t53 85t81.5 51t104.5 17q54 0 98 -16t74.5 -50t47.5 -86t17 -124q0 -75 -19.5 -127t-53 -85t-78.5 -48t-97 -15q-119 0 -183 73t-64 205zM143 264q0 -95 43.5 -147.5t127.5 -52.5q74 0 116 47.5t42 152.5v3q0 101 -42.5 150t-122.5 49
q-79 0 -121.5 -50.5t-42.5 -148.5v-3zM270 625l-114 130h116l74 -130h-76z" />
    <glyph glyph-name="oacute" unicode="&#xf3;" horiz-adv-x="615" 
d="M60 267q0 69 19 120t53 85t81.5 51t104.5 17q54 0 98 -16t74.5 -50t47.5 -86t17 -124q0 -75 -19.5 -127t-53 -85t-78.5 -48t-97 -15q-119 0 -183 73t-64 205zM143 264q0 -95 43.5 -147.5t127.5 -52.5q74 0 116 47.5t42 152.5v3q0 101 -42.5 150t-122.5 49
q-79 0 -121.5 -50.5t-42.5 -148.5v-3zM347 755h114l-116 -130h-74z" />
    <glyph glyph-name="ocircumflex" unicode="&#xf4;" horiz-adv-x="615" 
d="M60 267q0 69 19 120t53 85t81.5 51t104.5 17q54 0 98 -16t74.5 -50t47.5 -86t17 -124q0 -75 -19.5 -127t-53 -85t-78.5 -48t-97 -15q-119 0 -183 73t-64 205zM143 264q0 -95 43.5 -147.5t127.5 -52.5q74 0 116 47.5t42 152.5v3q0 101 -42.5 150t-122.5 49
q-79 0 -121.5 -50.5t-42.5 -148.5v-3zM260 755h96l102 -130h-79l-71 79l-71 -79h-79z" />
    <glyph glyph-name="otilde" unicode="&#xf5;" horiz-adv-x="615" 
d="M60 267q0 69 19 120t53 85t81.5 51t104.5 17q54 0 98 -16t74.5 -50t47.5 -86t17 -124q0 -75 -19.5 -127t-53 -85t-78.5 -48t-97 -15q-119 0 -183 73t-64 205zM143 264q0 -95 43.5 -147.5t127.5 -52.5q74 0 116 47.5t42 152.5v3q0 101 -42.5 150t-122.5 49
q-79 0 -121.5 -50.5t-42.5 -148.5v-3zM158 648q2 46 27.5 72t60.5 26q19 0 34.5 -7.5t35.5 -17.5q16 -8 28.5 -14.5t23.5 -6.5t21 10t13 36l56 -14q-2 -24 -10.5 -42.5t-21 -31t-27 -18.5t-29.5 -6t-27.5 5.5t-41.5 19.5q-18 9 -27.5 15.5t-23.5 6.5q-11 0 -21.5 -10.5
t-14.5 -36.5z" />
    <glyph glyph-name="odieresis" unicode="&#xf6;" horiz-adv-x="615" 
d="M60 267q0 69 19 120t53 85t81.5 51t104.5 17q54 0 98 -16t74.5 -50t47.5 -86t17 -124q0 -75 -19.5 -127t-53 -85t-78.5 -48t-97 -15q-119 0 -183 73t-64 205zM143 264q0 -95 43.5 -147.5t127.5 -52.5q74 0 116 47.5t42 152.5v3q0 101 -42.5 150t-122.5 49
q-79 0 -121.5 -50.5t-42.5 -148.5v-3zM168 690q0 52 52 52t52 -52t-52 -52t-52 52zM344 690q0 52 52 52t52 -52t-52 -52t-52 52z" />
    <glyph glyph-name="divide" unicode="&#xf7;" horiz-adv-x="571" 
d="M222 151q0 32 17.5 49t46.5 17t46.5 -17.5t17.5 -48.5q0 -33 -17 -50t-47 -17q-29 0 -46.5 17.5t-17.5 49.5zM222 497q0 32 17.5 49t46.5 17t46.5 -17t17.5 -49t-17 -49.5t-47 -17.5q-29 0 -46.5 17.5t-17.5 49.5zM73 363h425v-79h-425v79z" />
    <glyph glyph-name="oslash" unicode="&#xf8;" horiz-adv-x="615" 
d="M60 267q0 69 19 120t53 85t81.5 51t104.5 17q74 0 127 -30l33 46l53 -36l-37 -51q29 -34 45 -85t16 -120q0 -75 -19.5 -127t-53 -85t-78.5 -48t-97 -15q-76 0 -132 31l-34 -48l-52 36l37 52q-66 74 -66 207zM143 264q0 -84 33 -133l222 312q-38 23 -91 23
q-79 0 -121.5 -50.5t-42.5 -148.5v-3zM472 267q0 81 -29 130l-221 -311q39 -22 92 -22q74 0 116 47.5t42 152.5v3z" />
    <glyph glyph-name="ugrave" unicode="&#xf9;" horiz-adv-x="617" 
d="M440 84q-50 -95 -174 -95q-84 0 -129.5 43.5t-45.5 141.5v356h83v-331q0 -37 6.5 -62.5t20.5 -41.5t37.5 -23.5t57.5 -7.5q78 0 110 36t32 116v314h83v-530h-76zM271 625l-114 130h116l74 -130h-76z" />
    <glyph glyph-name="uacute" unicode="&#xfa;" horiz-adv-x="617" 
d="M440 84q-50 -95 -174 -95q-84 0 -129.5 43.5t-45.5 141.5v356h83v-331q0 -37 6.5 -62.5t20.5 -41.5t37.5 -23.5t57.5 -7.5q78 0 110 36t32 116v314h83v-530h-76zM348 755h114l-116 -130h-74z" />
    <glyph glyph-name="ucircumflex" unicode="&#xfb;" horiz-adv-x="617" 
d="M440 84q-50 -95 -174 -95q-84 0 -129.5 43.5t-45.5 141.5v356h83v-331q0 -37 6.5 -62.5t20.5 -41.5t37.5 -23.5t57.5 -7.5q78 0 110 36t32 116v314h83v-530h-76zM261 755h96l102 -130h-79l-71 79l-71 -79h-79z" />
    <glyph glyph-name="udieresis" unicode="&#xfc;" horiz-adv-x="617" 
d="M440 84q-50 -95 -174 -95q-84 0 -129.5 43.5t-45.5 141.5v356h83v-331q0 -37 6.5 -62.5t20.5 -41.5t37.5 -23.5t57.5 -7.5q78 0 110 36t32 116v314h83v-530h-76zM167 690q0 52 52 52t52 -52t-52 -52t-52 52zM343 690q0 52 52 52t52 -52t-52 -52t-52 52z" />
    <glyph glyph-name="yacute" unicode="&#xfd;" horiz-adv-x="532" 
d="M154 -108q14 0 25.5 3.5t22 14.5t21 32t22.5 56l-215 532h96l162 -423l135 423h89l-183 -512q-26 -74 -49.5 -115t-44.5 -61t-41 -24.5t-39 -4.5q-32 0 -47 8v83q21 -12 46 -12zM306 755h114l-116 -130h-74z" />
    <glyph glyph-name="thorn" unicode="&#xfe;" horiz-adv-x="626" 
d="M95 750h83v-313q21 52 66 77.5t117 25.5q103 0 154 -61.5t51 -202.5q0 -77 -14 -131.5t-41.5 -89t-68.5 -50.5t-95 -16q-68 0 -108.5 24.5t-60.5 57.5v-251h-83v930zM178 213q0 -69 39.5 -109t112.5 -40q42 0 71 11t47 36t26.5 64t8.5 96q0 54 -10 91.5t-29 60
t-47.5 32.5t-65.5 10q-39 0 -68 -11t-48 -30.5t-28 -46.5t-9 -58v-106z" />
    <glyph glyph-name="ydieresis" unicode="&#xff;" horiz-adv-x="532" 
d="M154 -108q14 0 25.5 3.5t22 14.5t21 32t22.5 56l-215 532h96l162 -423l135 423h89l-183 -512q-26 -74 -49.5 -115t-44.5 -61t-41 -24.5t-39 -4.5q-32 0 -47 8v83q21 -12 46 -12zM132 690q0 52 52 52t52 -52t-52 -52t-52 52zM308 690q0 52 52 52t52 -52t-52 -52t-52 52z
" />
    <glyph glyph-name="Amacron" unicode="&#x100;" horiz-adv-x="679" 
d="M485 187h-299l-69 -187h-92l267 700h91l271 -700h-99zM216 267h239l-120 321zM194 876h290v-72h-290v72z" />
    <glyph glyph-name="amacron" unicode="&#x101;" horiz-adv-x="563" 
d="M392 76q-20 -36 -61.5 -61.5t-98.5 -25.5q-80 0 -126 40.5t-46 117.5q0 44 11.5 74.5t37 50t65.5 28.5t97 9h119v50q0 32 -7.5 52.5t-23.5 32t-40.5 16t-57.5 4.5q-45 0 -89.5 -17t-71.5 -40v96q16 9 37.5 16t44.5 11.5t46 7t42 2.5q52 0 90.5 -9t63.5 -30t37 -55.5
t12 -85.5v-360h-76zM145 160q0 -43 24 -67t79 -24q74 0 108 38t34 96v45h-116q-38 0 -63 -5t-39.5 -15.5t-20.5 -27t-6 -40.5zM142 725h280v-70h-280v70z" />
    <glyph glyph-name="Abreve" unicode="&#x102;" horiz-adv-x="679" 
d="M485 187h-299l-69 -187h-92l267 700h91l271 -700h-99zM216 267h239l-120 321zM236 910q11 -38 36 -59t67 -21t67 21t36 59l52 -16q-15 -62 -55 -93t-100 -31t-100 31t-55 93z" />
    <glyph glyph-name="abreve" unicode="&#x103;" horiz-adv-x="563" 
d="M392 76q-20 -36 -61.5 -61.5t-98.5 -25.5q-80 0 -126 40.5t-46 117.5q0 44 11.5 74.5t37 50t65.5 28.5t97 9h119v50q0 32 -7.5 52.5t-23.5 32t-40.5 16t-57.5 4.5q-45 0 -89.5 -17t-71.5 -40v96q16 9 37.5 16t44.5 11.5t46 7t42 2.5q52 0 90.5 -9t63.5 -30t37 -55.5
t12 -85.5v-360h-76zM145 160q0 -43 24 -67t79 -24q74 0 108 38t34 96v45h-116q-38 0 -63 -5t-39.5 -15.5t-20.5 -27t-6 -40.5zM177 760q11 -38 37 -60t68 -22t68 22t37 60l50 -16q-19 -62 -57 -93t-98 -31t-98 31t-57 93z" />
    <glyph glyph-name="Aogonek" unicode="&#x104;" horiz-adv-x="679" 
d="M485 187h-299l-69 -187h-92l267 700h91l271 -700h-32q-32 -25 -54.5 -55t-22.5 -71q0 -20 14 -32t40 -12q28 0 57 17v-60q-17 -8 -37 -13.5t-46 -5.5q-53 0 -79 24t-26 69q0 22 8 41.5t21 37t29.5 32t34.5 28.5h-6zM216 267h239l-120 321z" />
    <glyph glyph-name="aogonek" unicode="&#x105;" horiz-adv-x="563" 
d="M392 76q-20 -36 -61.5 -61.5t-98.5 -25.5q-80 0 -126 40.5t-46 117.5q0 44 11.5 74.5t37 50t65.5 28.5t97 9h119v50q0 32 -7.5 52.5t-23.5 32t-40.5 16t-57.5 4.5q-45 0 -89.5 -17t-71.5 -40v96q16 9 37.5 16t44.5 11.5t46 7t42 2.5q52 0 90.5 -9t63.5 -30t37 -55.5
t12 -85.5v-360h-13q-30 -23 -50 -52t-20 -70q0 -20 12 -31t35 -11q12 0 26.5 4t28.5 12v-56q-16 -8 -34.5 -13t-42.5 -5q-49 0 -75.5 23t-26.5 64q0 23 7.5 43t20 36.5t28 30.5t31.5 25h-3zM145 160q0 -43 24 -67t79 -24q74 0 108 38t34 96v45h-116q-38 0 -63 -5
t-39.5 -15.5t-20.5 -27t-6 -40.5z" />
    <glyph glyph-name="Cacute" unicode="&#x106;" horiz-adv-x="658" 
d="M579 577q-27 19 -77 35t-113 16q-56 0 -98 -14t-70 -45.5t-42.5 -83t-14.5 -126.5q0 -82 16 -137t46 -88t73.5 -47t97.5 -14q35 0 66.5 6t58 14.5t46 18t30.5 15.5v-91q-24 -14 -77 -29t-125 -15q-83 0 -144 20t-101.5 63.5t-60.5 111.5t-20 163t20.5 162.5t61 111
t100.5 64t140 20.5q68 0 114.5 -11.5t72.5 -19.5v-100zM425 910h116l-124 -140h-76z" />
    <glyph glyph-name="cacute" unicode="&#x107;" horiz-adv-x="524" 
d="M453 419q-24 17 -62 29.5t-83 12.5q-36 0 -66 -9.5t-51.5 -31.5t-33 -59.5t-11.5 -92.5q0 -56 12 -94t35.5 -61.5t57 -33.5t77.5 -10q41 0 78.5 12t63.5 34v-90q-21 -17 -60.5 -26.5t-93.5 -9.5q-60 0 -107.5 14.5t-80.5 48.5t-50.5 88.5t-17.5 134.5q0 137 64.5 201
t194.5 64q49 0 80 -7.5t54 -19.5v-94zM345 755h114l-116 -130h-74z" />
    <glyph glyph-name="Ccircumflex" unicode="&#x108;" horiz-adv-x="658" 
d="M579 577q-27 19 -77 35t-113 16q-56 0 -98 -14t-70 -45.5t-42.5 -83t-14.5 -126.5q0 -82 16 -137t46 -88t73.5 -47t97.5 -14q35 0 66.5 6t58 14.5t46 18t30.5 15.5v-91q-24 -14 -77 -29t-125 -15q-83 0 -144 20t-101.5 63.5t-60.5 111.5t-20 163t20.5 162.5t61 111
t100.5 64t140 20.5q68 0 114.5 -11.5t72.5 -19.5v-100zM329 910h100l105 -140h-87l-68 88l-68 -88h-87z" />
    <glyph glyph-name="ccircumflex" unicode="&#x109;" horiz-adv-x="524" 
d="M453 419q-24 17 -62 29.5t-83 12.5q-36 0 -66 -9.5t-51.5 -31.5t-33 -59.5t-11.5 -92.5q0 -56 12 -94t35.5 -61.5t57 -33.5t77.5 -10q41 0 78.5 12t63.5 34v-90q-21 -17 -60.5 -26.5t-93.5 -9.5q-60 0 -107.5 14.5t-80.5 48.5t-50.5 88.5t-17.5 134.5q0 137 64.5 201
t194.5 64q49 0 80 -7.5t54 -19.5v-94zM258 755h96l102 -130h-79l-71 79l-71 -79h-79z" />
    <glyph glyph-name="Cdotaccent" unicode="&#x10a;" horiz-adv-x="658" 
d="M579 577q-27 19 -77 35t-113 16q-56 0 -98 -14t-70 -45.5t-42.5 -83t-14.5 -126.5q0 -82 16 -137t46 -88t73.5 -47t97.5 -14q35 0 66.5 6t58 14.5t46 18t30.5 15.5v-91q-24 -14 -77 -29t-125 -15q-83 0 -144 20t-101.5 63.5t-60.5 111.5t-20 163t20.5 162.5t61 111
t100.5 64t140 20.5q68 0 114.5 -11.5t72.5 -19.5v-100zM325 840q0 26 14 40t40 14t40 -14t14 -40t-14 -40t-40 -14t-40 14t-14 40z" />
    <glyph glyph-name="cdotaccent" unicode="&#x10b;" horiz-adv-x="524" 
d="M453 419q-24 17 -62 29.5t-83 12.5q-36 0 -66 -9.5t-51.5 -31.5t-33 -59.5t-11.5 -92.5q0 -56 12 -94t35.5 -61.5t57 -33.5t77.5 -10q41 0 78.5 12t63.5 34v-90q-21 -17 -60.5 -26.5t-93.5 -9.5q-60 0 -107.5 14.5t-80.5 48.5t-50.5 88.5t-17.5 134.5q0 137 64.5 201
t194.5 64q49 0 80 -7.5t54 -19.5v-94zM254 690q0 52 52 52t52 -52t-52 -52t-52 52z" />
    <glyph glyph-name="Ccaron" unicode="&#x10c;" horiz-adv-x="658" 
d="M579 577q-27 19 -77 35t-113 16q-56 0 -98 -14t-70 -45.5t-42.5 -83t-14.5 -126.5q0 -82 16 -137t46 -88t73.5 -47t97.5 -14q35 0 66.5 6t58 14.5t46 18t30.5 15.5v-91q-24 -14 -77 -29t-125 -15q-83 0 -144 20t-101.5 63.5t-60.5 111.5t-20 163t20.5 162.5t61 111
t100.5 64t140 20.5q68 0 114.5 -11.5t72.5 -19.5v-100zM224 910h88l67 -88l68 88h87l-105 -140h-100z" />
    <glyph glyph-name="ccaron" unicode="&#x10d;" horiz-adv-x="524" 
d="M453 419q-24 17 -62 29.5t-83 12.5q-36 0 -66 -9.5t-51.5 -31.5t-33 -59.5t-11.5 -92.5q0 -56 12 -94t35.5 -61.5t57 -33.5t77.5 -10q41 0 78.5 12t63.5 34v-90q-21 -17 -60.5 -26.5t-93.5 -9.5q-60 0 -107.5 14.5t-80.5 48.5t-50.5 88.5t-17.5 134.5q0 137 64.5 201
t194.5 64q49 0 80 -7.5t54 -19.5v-94zM156 755h79l71 -79l71 79h79l-102 -130h-96z" />
    <glyph glyph-name="Dcaron" unicode="&#x10e;" horiz-adv-x="743" 
d="M112 698q15 2 33.5 3.5t43 3t55.5 2.5t72 1q101 0 169.5 -20.5t110 -62t59.5 -104t18 -147.5q0 -104 -23.5 -177t-70.5 -118.5t-117.5 -66t-164.5 -20.5q-69 0 -114 4.5t-71 8.5v693zM202 79q20 -3 43 -5t46 -2q76 0 131 15t89.5 49t51 89.5t16.5 136.5q0 73 -13 124
t-44 82.5t-82.5 45.5t-128.5 14q-30 0 -57.5 -2t-51.5 -5v-542zM216 910h88l67 -88l68 88h87l-105 -140h-100z" />
    <glyph glyph-name="dcaron" unicode="&#x10f;" horiz-adv-x="626" 
d="M449 94q-11 -21 -25 -40.5t-33.5 -33.5t-47 -22.5t-64.5 -8.5q-54 0 -95 14.5t-68.5 46.5t-41.5 83.5t-14 125.5q0 76 14.5 129t42.5 87t70 49.5t96 15.5q35 0 62 -5.5t46.5 -15t33 -22t22.5 -26.5v279h83v-750h-76zM298 64q81 0 116 46t34 124v85q0 67 -34.5 107
t-120.5 40q-39 0 -67.5 -10t-47 -33.5t-27 -62t-8.5 -95.5q0 -108 36 -154.5t119 -46.5zM646 750h94l-76 -190h-64z" />
    <glyph glyph-name="Dcroat" unicode="&#x110;" horiz-adv-x="743" 
d="M33 385h79v313q15 2 33.5 3.5t43 3t55.5 2.5t72 1q101 0 169.5 -20.5t110 -62t59.5 -104t18 -147.5q0 -104 -23.5 -177t-70.5 -118.5t-117.5 -66t-164.5 -20.5q-69 0 -114 4.5t-71 8.5v316h-79v64zM202 79q20 -3 43 -5t46 -2q76 0 131 15t89.5 49t51 89.5t16.5 136.5
q0 73 -13 124t-44 82.5t-82.5 45.5t-128.5 14q-30 0 -57.5 -2t-51.5 -5v-236h199v-64h-199v-242z" />
    <glyph glyph-name="dcroat" unicode="&#x111;" horiz-adv-x="626" 
d="M449 94q-11 -21 -25 -40.5t-33.5 -33.5t-47 -22.5t-64.5 -8.5q-54 0 -95 14.5t-68.5 46.5t-41.5 83.5t-14 125.5q0 76 14.5 129t42.5 87t70 49.5t96 15.5q35 0 62 -5.5t46.5 -15t33 -22t22.5 -26.5v120h-222v64h222v95h83v-95h63v-64h-63v-591h-76zM298 64q81 0 116 46
t34 124v85q0 67 -34.5 107t-120.5 40q-39 0 -67.5 -10t-47 -33.5t-27 -62t-8.5 -95.5q0 -108 36 -154.5t119 -46.5z" />
    <glyph glyph-name="Emacron" unicode="&#x112;" horiz-adv-x="608" 
d="M112 700h426v-80h-336v-225h308v-80h-308v-235h336v-80h-426v700zM180 876h290v-72h-290v72z" />
    <glyph glyph-name="emacron" unicode="&#x113;" horiz-adv-x="582" 
d="M144 235q0 -86 44.5 -128.5t132.5 -42.5q51 0 92 17.5t70 40.5v-86q-20 -14 -62 -30.5t-102 -16.5q-64 0 -112.5 15.5t-81 50t-49 88t-16.5 130.5q0 131 61 199t178 68q61 0 104 -18t69 -51t38 -79.5t12 -102.5v-54h-378zM298 465q-73 0 -113.5 -38.5t-40.5 -119.5h295
q0 81 -33.5 119.5t-107.5 38.5zM162 725h280v-70h-280v70z" />
    <glyph glyph-name="Edotaccent" unicode="&#x116;" horiz-adv-x="608" 
d="M112 700h426v-80h-336v-225h308v-80h-308v-235h336v-80h-426v700zM271 840q0 26 14 40t40 14t40 -14t14 -40t-14 -40t-40 -14t-40 14t-14 40z" />
    <glyph glyph-name="edotaccent" unicode="&#x117;" horiz-adv-x="582" 
d="M144 235q0 -86 44.5 -128.5t132.5 -42.5q51 0 92 17.5t70 40.5v-86q-20 -14 -62 -30.5t-102 -16.5q-64 0 -112.5 15.5t-81 50t-49 88t-16.5 130.5q0 131 61 199t178 68q61 0 104 -18t69 -51t38 -79.5t12 -102.5v-54h-378zM298 465q-73 0 -113.5 -38.5t-40.5 -119.5h295
q0 81 -33.5 119.5t-107.5 38.5zM250 690q0 52 52 52t52 -52t-52 -52t-52 52z" />
    <glyph glyph-name="Eogonek" unicode="&#x118;" horiz-adv-x="608" 
d="M112 700h426v-80h-336v-225h308v-80h-308v-235h336v-80h-8q-32 -25 -54.5 -55t-22.5 -71q0 -20 14 -32t40 -12q28 0 57 17v-60q-17 -8 -37 -13.5t-46 -5.5q-53 0 -79 24t-26 69q0 22 8 41.5t21 37t29.5 32t34.5 28.5h-357v700z" />
    <glyph glyph-name="eogonek" unicode="&#x119;" horiz-adv-x="582" 
d="M431 -204q-16 -8 -34.5 -13t-42.5 -5q-49 0 -75.5 23t-26.5 64q0 42 21.5 72t50.5 52h-5q-64 0 -112.5 15.5t-81 50t-49 88t-16.5 130.5q0 131 61 199t178 68q61 0 104 -18t69 -51t38 -79.5t12 -102.5v-54h-378q0 -86 44.5 -128.5t132.5 -42.5q51 0 92 17.5t70 40.5v-86
q-13 -9 -34.5 -19.5t-51.5 -17.5q-29 -23 -48.5 -52t-19.5 -69q0 -20 12 -31t35 -11q12 0 26.5 4t28.5 12v-56zM298 465q-73 0 -113.5 -38.5t-40.5 -119.5h295q0 81 -33.5 119.5t-107.5 38.5z" />
    <glyph glyph-name="Ecaron" unicode="&#x11a;" horiz-adv-x="608" 
d="M112 700h426v-80h-336v-225h308v-80h-308v-235h336v-80h-426v700zM170 910h88l67 -88l68 88h87l-105 -140h-100z" />
    <glyph glyph-name="ecaron" unicode="&#x11b;" horiz-adv-x="582" 
d="M144 235q0 -86 44.5 -128.5t132.5 -42.5q51 0 92 17.5t70 40.5v-86q-20 -14 -62 -30.5t-102 -16.5q-64 0 -112.5 15.5t-81 50t-49 88t-16.5 130.5q0 131 61 199t178 68q61 0 104 -18t69 -51t38 -79.5t12 -102.5v-54h-378zM298 465q-73 0 -113.5 -38.5t-40.5 -119.5h295
q0 81 -33.5 119.5t-107.5 38.5zM152 755h79l71 -79l71 79h79l-102 -130h-96z" />
    <glyph glyph-name="Gcircumflex" unicode="&#x11c;" horiz-adv-x="709" 
d="M401 350h238v-320q-24 -10 -77 -24t-131 -14q-92 0 -159.5 20t-112.5 63t-67 111t-22 164q0 185 91.5 271.5t264.5 86.5q58 0 98.5 -9t64.5 -22v-95q-29 17 -70.5 31.5t-98.5 14.5q-64 0 -112 -15t-80 -47t-48 -83t-16 -124q0 -83 17 -138t50.5 -88t84 -47t116.5 -14
q35 0 66.5 4t56.5 11v184h-154v79zM355 910h100l105 -140h-87l-68 88l-68 -88h-87z" />
    <glyph glyph-name="gcircumflex" unicode="&#x11d;" horiz-adv-x="627" 
d="M97 -52q11 -9 29 -19.5t41.5 -19.5t51 -15t57.5 -6q87 0 129 31t43 106v82q-20 -41 -62.5 -69t-108.5 -28q-108 0 -162.5 59.5t-54.5 194.5q0 75 14 127.5t43 85.5t73 48t103 15q57 0 98.5 -22t59.5 -58l5 70h75v-500q0 -57 -17.5 -98.5t-49 -67.5t-77 -38.5
t-101.5 -12.5q-69 0 -115.5 12t-73.5 26v97zM295 85q74 0 114 38.5t40 123.5v57q0 46 -11 77t-31 50t-48 26.5t-63 7.5q-36 0 -64 -10t-48 -32.5t-30.5 -60.5t-10.5 -93q0 -52 11.5 -87t31.5 -56.5t48 -31t61 -9.5zM266 755h96l102 -130h-79l-71 79l-71 -79h-79z" />
    <glyph glyph-name="Gbreve" unicode="&#x11e;" horiz-adv-x="709" 
d="M401 350h238v-320q-24 -10 -77 -24t-131 -14q-92 0 -159.5 20t-112.5 63t-67 111t-22 164q0 185 91.5 271.5t264.5 86.5q58 0 98.5 -9t64.5 -22v-95q-29 17 -70.5 31.5t-98.5 14.5q-64 0 -112 -15t-80 -47t-48 -83t-16 -124q0 -83 17 -138t50.5 -88t84 -47t116.5 -14
q35 0 66.5 4t56.5 11v184h-154v79zM302 910q11 -38 36 -59t67 -21t67 21t36 59l52 -16q-15 -62 -55 -93t-100 -31t-100 31t-55 93z" />
    <glyph glyph-name="gbreve" unicode="&#x11f;" horiz-adv-x="627" 
d="M97 -52q11 -9 29 -19.5t41.5 -19.5t51 -15t57.5 -6q87 0 129 31t43 106v82q-20 -41 -62.5 -69t-108.5 -28q-108 0 -162.5 59.5t-54.5 194.5q0 75 14 127.5t43 85.5t73 48t103 15q57 0 98.5 -22t59.5 -58l5 70h75v-500q0 -57 -17.5 -98.5t-49 -67.5t-77 -38.5
t-101.5 -12.5q-69 0 -115.5 12t-73.5 26v97zM295 85q74 0 114 38.5t40 123.5v57q0 46 -11 77t-31 50t-48 26.5t-63 7.5q-36 0 -64 -10t-48 -32.5t-30.5 -60.5t-10.5 -93q0 -52 11.5 -87t31.5 -56.5t48 -31t61 -9.5zM191 760q11 -38 37 -60t68 -22t68 22t37 60l50 -16
q-19 -62 -57 -93t-98 -31t-98 31t-57 93z" />
    <glyph glyph-name="Gdotaccent" unicode="&#x120;" horiz-adv-x="709" 
d="M401 350h238v-320q-24 -10 -77 -24t-131 -14q-92 0 -159.5 20t-112.5 63t-67 111t-22 164q0 185 91.5 271.5t264.5 86.5q58 0 98.5 -9t64.5 -22v-95q-29 17 -70.5 31.5t-98.5 14.5q-64 0 -112 -15t-80 -47t-48 -83t-16 -124q0 -83 17 -138t50.5 -88t84 -47t116.5 -14
q35 0 66.5 4t56.5 11v184h-154v79zM351 840q0 26 14 40t40 14t40 -14t14 -40t-14 -40t-40 -14t-40 14t-14 40z" />
    <glyph glyph-name="gdotaccent" unicode="&#x121;" horiz-adv-x="627" 
d="M97 -52q11 -9 29 -19.5t41.5 -19.5t51 -15t57.5 -6q87 0 129 31t43 106v82q-20 -41 -62.5 -69t-108.5 -28q-108 0 -162.5 59.5t-54.5 194.5q0 75 14 127.5t43 85.5t73 48t103 15q57 0 98.5 -22t59.5 -58l5 70h75v-500q0 -57 -17.5 -98.5t-49 -67.5t-77 -38.5
t-101.5 -12.5q-69 0 -115.5 12t-73.5 26v97zM295 85q74 0 114 38.5t40 123.5v57q0 46 -11 77t-31 50t-48 26.5t-63 7.5q-36 0 -64 -10t-48 -32.5t-30.5 -60.5t-10.5 -93q0 -52 11.5 -87t31.5 -56.5t48 -31t61 -9.5zM262 690q0 52 52 52t52 -52t-52 -52t-52 52z" />
    <glyph glyph-name="Gcommaaccent" unicode="&#x122;" horiz-adv-x="709" 
d="M401 350h238v-320q-24 -10 -77 -24t-131 -14q-92 0 -159.5 20t-112.5 63t-67 111t-22 164q0 185 91.5 271.5t264.5 86.5q58 0 98.5 -9t64.5 -22v-95q-29 17 -70.5 31.5t-98.5 14.5q-64 0 -112 -15t-80 -47t-48 -83t-16 -124q0 -83 17 -138t50.5 -88t84 -47t116.5 -14
q35 0 66.5 4t56.5 11v184h-154v79zM359 -209q23 3 42.5 15.5t19.5 37.5q-5 -1 -9.5 -1.5t-9.5 -0.5q-23 0 -39 11t-16 32q0 19 17 33t49 14q29 0 48.5 -16.5t19.5 -53.5q0 -18 -6 -37.5t-20 -35.5t-36 -27.5t-55 -13.5l-5 43v0z" />
    <glyph glyph-name="gcommaaccent" unicode="&#x123;" horiz-adv-x="627" 
d="M97 -52q11 -9 29 -19.5t41.5 -19.5t51 -15t57.5 -6q87 0 129 31t43 106v82q-20 -41 -62.5 -69t-108.5 -28q-108 0 -162.5 59.5t-54.5 194.5q0 75 14 127.5t43 85.5t73 48t103 15q57 0 98.5 -22t59.5 -58l5 70h75v-500q0 -57 -17.5 -98.5t-49 -67.5t-77 -38.5
t-101.5 -12.5q-69 0 -115.5 12t-73.5 26v97zM295 85q74 0 114 38.5t40 123.5v57q0 46 -11 77t-31 50t-48 26.5t-63 7.5q-36 0 -64 -10t-48 -32.5t-30.5 -60.5t-10.5 -93q0 -52 11.5 -87t31.5 -56.5t48 -31t61 -9.5zM368.033 788.975q-22.998 -3 -42.4951 -15.498
q-19.498 -12.499 -19.498 -37.4961q5 1 9.49902 1.5q4.5 0.5 9.49902 0.5q22.9971 0 38.9951 -10.998q15.998 -10.999 15.998 -31.9961q0 -18.998 -16.998 -32.9961t-48.9941 -13.998q-28.9961 0 -48.4941 16.4971q-19.4971 16.498 -19.4971 53.4941
q0 17.9971 5.99902 37.4951t19.998 35.4961q13.998 15.998 35.9951 27.4961q21.9971 11.499 54.9932 13.498l5 -42.9941v0z" />
    <glyph glyph-name="Hcircumflex" unicode="&#x124;" horiz-adv-x="790" 
d="M112 700h90v-300h386v300h90v-700h-90v320h-386v-320h-90v700zM345 910h100l105 -140h-87l-68 88l-68 -88h-87z" />
    <glyph glyph-name="hcircumflex" unicode="&#x125;" horiz-adv-x="622" 
d="M96 750h83v-302q19 45 62 68.5t111 23.5q94 0 137.5 -42t43.5 -140v-358h-83v347q0 64 -29.5 91.5t-99.5 27.5q-71 0 -106.5 -34t-35.5 -113v-319h-83v750zM90 935h96l102 -130h-79l-71 79l-71 -79h-79z" />
    <glyph glyph-name="Hbar" unicode="&#x126;" horiz-adv-x="790" 
d="M112 512h-74v68h74v120h90v-120h386v120h90v-120h74v-68h-74v-512h-90v320h-386v-320h-90v512zM588 400v112h-386v-112h386z" />
    <glyph glyph-name="hbar" unicode="&#x127;" horiz-adv-x="622" 
d="M96 591h-63v64h63v95h83v-95h222v-64h-222v-183q19 45 62 68.5t111 23.5q94 0 137.5 -42t43.5 -140v-318h-83v307q0 64 -29.5 91.5t-99.5 27.5q-71 0 -106.5 -34t-35.5 -113v-279h-83v591z" />
    <glyph glyph-name="Imacron" unicode="&#x12a;" horiz-adv-x="324" 
d="M117 700h90v-700h-90v700zM18 876h290v-72h-290v72z" />
    <glyph glyph-name="imacron" unicode="&#x12b;" horiz-adv-x="303" 
d="M110 530h83v-530h-83v530zM12 725h280v-70h-280v70z" />
    <glyph glyph-name="Iogonek" unicode="&#x12e;" horiz-adv-x="324" 
d="M117 700h90v-700h-9q-32 -25 -54.5 -55t-22.5 -71q0 -20 14 -32t40 -12q28 0 57 17v-60q-17 -8 -37 -13.5t-46 -5.5q-53 0 -79 24t-26 69q0 22 8 41.5t21 37t29.5 32t34.5 28.5h-20v700z" />
    <glyph glyph-name="iogonek" unicode="&#x12f;" horiz-adv-x="303" 
d="M110 530h83v-530h-14q-30 -23 -50 -52t-20 -70q0 -20 12 -31t35 -11q12 0 26.5 4t28.5 12v-56q-16 -8 -34.5 -13t-42.5 -5q-49 0 -75.5 23t-26.5 64q0 23 7.5 43t20 36.5t28 30.5t31.5 25h-9v530zM99 690q0 52 52 52t52 -52t-52 -52t-52 52z" />
    <glyph glyph-name="Idotaccent" unicode="&#x130;" horiz-adv-x="324" 
d="M117 700h90v-700h-90v700zM109 840q0 26 14 40t40 14t40 -14t14 -40t-14 -40t-40 -14t-40 14t-14 40z" />
    <glyph glyph-name="dotlessi" unicode="&#x131;" horiz-adv-x="303" 
d="M110 530h83v-530h-83v530z" />
    <glyph glyph-name="Jcircumflex" unicode="&#x134;" horiz-adv-x="393" 
d="M191 700h90v-549q0 -81 -39.5 -118.5t-130.5 -37.5q-47 0 -96 18v87q9 -8 36 -16.5t58 -8.5q46 0 64 17.5t18 61.5v546zM185 910h100l105 -140h-87l-68 88l-68 -88h-87z" />
    <glyph glyph-name="jcircumflex" unicode="&#x135;" horiz-adv-x="303" 
d="M110 530h83v-525q0 -94 -34.5 -142.5t-120.5 -48.5q-26 0 -47 4t-32 9v87q17 -11 37.5 -16t41.5 -5q38 0 55 22.5t17 76.5v538zM106 755h96l102 -130h-79l-71 79l-71 -79h-79z" />
    <glyph glyph-name="Kcommaaccent" unicode="&#x136;" horiz-adv-x="691" 
d="M112 700h90v-308h52l269 308h116l-307 -339l344 -361h-116l-305 322h-53v-322h-90v700zM289 -209q23 3 42.5 15.5t19.5 37.5q-5 -1 -9.5 -1.5t-9.5 -0.5q-23 0 -39 11t-16 32q0 19 17 33t49 14q29 0 48.5 -16.5t19.5 -53.5q0 -18 -6 -37.5t-20 -35.5t-36 -27.5t-55 -13.5
l-5 43v0z" />
    <glyph glyph-name="kcommaaccent" unicode="&#x137;" horiz-adv-x="566" 
d="M179 750v-446h47l193 226h95l-218 -251l250 -279h-105l-217 239h-45v-239h-83v750h83zM228 -209q23 3 42.5 15.5t19.5 37.5q-5 -1 -9.5 -1.5t-9.5 -0.5q-23 0 -39 11t-16 32q0 19 17 33t49 14q29 0 48.5 -16.5t19.5 -53.5q0 -18 -6 -37.5t-20 -35.5t-36 -27.5t-55 -13.5
l-5 43v0z" />
    <glyph glyph-name="Lacute" unicode="&#x139;" horiz-adv-x="573" 
d="M112 700h90v-620h346v-80h-436v700zM188 910h116l-124 -140h-76z" />
    <glyph glyph-name="lacute" unicode="&#x13a;" horiz-adv-x="348" 
d="M180 151q0 -25 4 -41t12.5 -25t23 -12.5t35.5 -3.5q23 0 42 4t31 9v-74q-12 -7 -37.5 -12.5t-53.5 -5.5q-65 0 -102.5 30t-37.5 100v630h83v-599v0zM180 955h114l-116 -130h-74z" />
    <glyph glyph-name="Lcommaaccent" unicode="&#x13b;" horiz-adv-x="573" 
d="M112 700h90v-620h346v-80h-436v700zM271 -209q23 3 42.5 15.5t19.5 37.5q-5 -1 -9.5 -1.5t-9.5 -0.5q-23 0 -39 11t-16 32q0 19 17 33t49 14q29 0 48.5 -16.5t19.5 -53.5q0 -18 -6 -37.5t-20 -35.5t-36 -27.5t-55 -13.5l-5 43v0z" />
    <glyph glyph-name="lcommaaccent" unicode="&#x13c;" horiz-adv-x="348" 
d="M180 151q0 -25 4 -41t12.5 -25t23 -12.5t35.5 -3.5q23 0 42 4t31 9v-74q-12 -7 -37.5 -12.5t-53.5 -5.5q-65 0 -102.5 30t-37.5 100v630h83v-599v0zM169 -209q23 3 42.5 15.5t19.5 37.5q-5 -1 -9.5 -1.5t-9.5 -0.5q-23 0 -39 11t-16 32q0 19 17 33t49 14q29 0 48.5 -16.5
t19.5 -53.5q0 -18 -6 -37.5t-20 -35.5t-36 -27.5t-55 -13.5l-5 43v0z" />
    <glyph glyph-name="Lcaron" unicode="&#x13d;" horiz-adv-x="573" 
d="M112 700h90v-620h346v-80h-436v700zM398 700h94l-76 -190h-64z" />
    <glyph glyph-name="lcaron" unicode="&#x13e;" horiz-adv-x="348" 
d="M180 151q0 -25 4 -41t12.5 -25t23 -12.5t35.5 -3.5q23 0 42 4t31 9v-74q-12 -7 -37.5 -12.5t-53.5 -5.5q-65 0 -102.5 30t-37.5 100v630h83v-599v0zM316 750h94l-76 -190h-64z" />
    <glyph glyph-name="Ldot" unicode="&#x13f;" horiz-adv-x="573" 
d="M112 700h90v-620h346v-80h-436v700zM385 342q0 28 15 44t44 16q28 0 44 -16.5t16 -43.5q0 -29 -15.5 -44.5t-44.5 -15.5q-28 0 -43.5 16t-15.5 44z" />
    <glyph glyph-name="ldot" unicode="&#x140;" horiz-adv-x="348" 
d="M180 151q0 -25 4 -41t12.5 -25t23 -12.5t35.5 -3.5q23 0 42 4t31 9v-74q-12 -7 -37.5 -12.5t-53.5 -5.5q-65 0 -102.5 30t-37.5 100v630h83v-599v0zM252 342q0 28 15 44t44 16q28 0 44 -16.5t16 -43.5q0 -29 -15.5 -44.5t-44.5 -15.5q-28 0 -43.5 16t-15.5 44z" />
    <glyph glyph-name="Lslash" unicode="&#x141;" horiz-adv-x="573" 
d="M112 245l-73 -47v84l73 47v371h90v-312l175 115v-84l-175 -115v-224h346v-80h-436v245z" />
    <glyph glyph-name="lslash" unicode="&#x142;" horiz-adv-x="348" 
d="M180 151q0 -25 4 -41t12.5 -25t23 -12.5t35.5 -3.5q23 0 42 4t31 9v-74q-12 -7 -37.5 -12.5t-53.5 -5.5q-65 0 -102.5 30t-37.5 100v121l-67 -43v84l67 43v425h83v-370l115 75v-84l-115 -75v-145v0z" />
    <glyph glyph-name="Nacute" unicode="&#x143;" horiz-adv-x="789" 
d="M112 700h93l322 -459q20 -30 35.5 -54t29.5 -48q-2 28 -3.5 57t-1.5 65v439h90v-700h-94l-301 433q-21 29 -44 67.5t-44 75.5q3 -35 5.5 -66.5t2.5 -71.5v-438h-90v700zM440 910h116l-124 -140h-76z" />
    <glyph glyph-name="nacute" unicode="&#x144;" horiz-adv-x="622" 
d="M96 530h77l5 -84q26 46 68.5 70t105.5 24q48 0 82 -10t56 -33.5t32.5 -62.5t10.5 -96v-338h-83v321q0 41 -6 68.5t-20.5 44.5t-39.5 24.5t-62 7.5q-70 0 -106.5 -39t-36.5 -108v-319h-83v530zM370 755h114l-116 -130h-74z" />
    <glyph glyph-name="Ncommaaccent" unicode="&#x145;" horiz-adv-x="789" 
d="M112 700h93l322 -459q20 -30 35.5 -54t29.5 -48q-2 28 -3.5 57t-1.5 65v439h90v-700h-94l-301 433q-21 29 -44 67.5t-44 75.5q3 -35 5.5 -66.5t2.5 -71.5v-438h-90v700zM338 -209q23 3 42.5 15.5t19.5 37.5q-5 -1 -9.5 -1.5t-9.5 -0.5q-23 0 -39 11t-16 32q0 19 17 33
t49 14q29 0 48.5 -16.5t19.5 -53.5q0 -18 -6 -37.5t-20 -35.5t-36 -27.5t-55 -13.5l-5 43v0z" />
    <glyph glyph-name="ncommaaccent" unicode="&#x146;" horiz-adv-x="622" 
d="M96 530h77l5 -84q26 46 68.5 70t105.5 24q48 0 82 -10t56 -33.5t32.5 -62.5t10.5 -96v-338h-83v321q0 41 -6 68.5t-20.5 44.5t-39.5 24.5t-62 7.5q-70 0 -106.5 -39t-36.5 -108v-319h-83v530zM256 -209q23 3 42.5 15.5t19.5 37.5q-5 -1 -9.5 -1.5t-9.5 -0.5q-23 0 -39 11
t-16 32q0 19 17 33t49 14q29 0 48.5 -16.5t19.5 -53.5q0 -18 -6 -37.5t-20 -35.5t-36 -27.5t-55 -13.5l-5 43v0z" />
    <glyph glyph-name="Ncaron" unicode="&#x147;" horiz-adv-x="789" 
d="M112 700h93l322 -459q20 -30 35.5 -54t29.5 -48q-2 28 -3.5 57t-1.5 65v439h90v-700h-94l-301 433q-21 29 -44 67.5t-44 75.5q3 -35 5.5 -66.5t2.5 -71.5v-438h-90v700zM239 910h88l67 -88l68 88h87l-105 -140h-100z" />
    <glyph glyph-name="ncaron" unicode="&#x148;" horiz-adv-x="622" 
d="M96 530h77l5 -84q26 46 68.5 70t105.5 24q48 0 82 -10t56 -33.5t32.5 -62.5t10.5 -96v-338h-83v321q0 41 -6 68.5t-20.5 44.5t-39.5 24.5t-62 7.5q-70 0 -106.5 -39t-36.5 -108v-319h-83v530zM165 755h79l71 -79l71 79h79l-102 -130h-96z" />
    <glyph glyph-name="Omacron" unicode="&#x14c;" horiz-adv-x="788" 
d="M70 350q0 185 82 272.5t253 87.5q160 0 236.5 -87.5t76.5 -272.5q0 -98 -22.5 -166t-64.5 -111.5t-102 -63t-136 -19.5q-69 0 -128.5 19t-102.5 62t-67.5 111.5t-24.5 167.5zM164 347q0 -78 17 -130.5t48 -85t74 -46.5t95 -14q53 0 95 14t71 46.5t44.5 85t15.5 130.5
q0 80 -15.5 134t-45.5 87t-73 47t-97 14q-118 0 -173.5 -69.5t-55.5 -212.5zM249 876h290v-72h-290v72z" />
    <glyph glyph-name="omacron" unicode="&#x14d;" horiz-adv-x="615" 
d="M60 267q0 69 19 120t53 85t81.5 51t104.5 17q54 0 98 -16t74.5 -50t47.5 -86t17 -124q0 -75 -19.5 -127t-53 -85t-78.5 -48t-97 -15q-119 0 -183 73t-64 205zM143 264q0 -95 43.5 -147.5t127.5 -52.5q74 0 116 47.5t42 152.5v3q0 101 -42.5 150t-122.5 49
q-79 0 -121.5 -50.5t-42.5 -148.5v-3zM168 725h280v-70h-280v70z" />
    <glyph glyph-name="Ohungarumlaut" unicode="&#x150;" horiz-adv-x="788" 
d="M70 350q0 185 82 272.5t253 87.5q160 0 236.5 -87.5t76.5 -272.5q0 -98 -22.5 -166t-64.5 -111.5t-102 -63t-136 -19.5q-69 0 -128.5 19t-102.5 62t-67.5 111.5t-24.5 167.5zM164 347q0 -78 17 -130.5t48 -85t74 -46.5t95 -14q53 0 95 14t71 46.5t44.5 85t15.5 130.5
q0 80 -15.5 134t-45.5 87t-73 47t-97 14q-118 0 -173.5 -69.5t-55.5 -212.5zM318 910h106l-86 -140h-76zM522 910h120l-126 -140h-80z" />
    <glyph glyph-name="ohungarumlaut" unicode="&#x151;" horiz-adv-x="615" 
d="M60 267q0 69 19 120t53 85t81.5 51t104.5 17q54 0 98 -16t74.5 -50t47.5 -86t17 -124q0 -75 -19.5 -127t-53 -85t-78.5 -48t-97 -15q-119 0 -183 73t-64 205zM143 264q0 -95 43.5 -147.5t127.5 -52.5q74 0 116 47.5t42 152.5v3q0 101 -42.5 150t-122.5 49
q-79 0 -121.5 -50.5t-42.5 -148.5v-3zM242 755h104l-86 -130h-74zM428 755h118l-126 -130h-78z" />
    <glyph glyph-name="OE" unicode="&#x152;" horiz-adv-x="982" 
d="M405 710q23 0 44.5 -2.5t41.5 -7.5h410v-80h-325v-225h308v-80h-308v-235h336v-80h-423q-41 -10 -96 -10q-69 0 -128.5 19t-102.5 62t-67.5 111.5t-24.5 167.5q0 185 82 272.5t253 87.5zM398 71q24 0 46 2t42 7v539q-39 10 -93 10q-118 0 -173.5 -69.5t-55.5 -212.5
q0 -78 17 -130.5t48 -85t74 -46.5t95 -14z" />
    <glyph glyph-name="oe" unicode="&#x153;" horiz-adv-x="995" 
d="M60 267q0 69 19 120t53 85t81.5 51t104.5 17q66 0 115.5 -23t79.5 -74q61 97 199 97q61 0 104 -18t69 -51t38 -79.5t12 -102.5v-54h-378q0 -86 44.5 -128.5t132.5 -42.5q51 0 92 17.5t70 40.5v-86q-20 -14 -62 -30.5t-102 -16.5q-79 0 -133.5 23.5t-85.5 76.5
q-34 -53 -87.5 -76.5t-118.5 -23.5q-119 0 -183 73t-64 205zM711 465q-73 0 -113.5 -38.5t-40.5 -119.5h295q0 81 -33.5 119.5t-107.5 38.5zM143 264q0 -95 43.5 -147.5t127.5 -52.5q74 0 116 47.5t42 152.5v3q0 101 -42.5 150t-122.5 49q-79 0 -121.5 -50.5t-42.5 -148.5
v-3z" />
    <glyph glyph-name="Racute" unicode="&#x154;" horiz-adv-x="663" 
d="M112 0v691q16 3 39.5 5.5t49 4.5t51.5 3.5t47 1.5q132 0 193 -48t62 -157q0 -38 -6.5 -69.5t-22.5 -57t-43 -45.5t-67 -33l228 -296h-109l-217 281h-115v-281h-90zM288 351q47 0 79.5 8.5t53 26t29.5 44t9 63.5q0 35 -8 60t-27 41.5t-51 24t-80 7.5q-26 0 -48.5 -1.5
t-42.5 -5.5v-268h86zM377 910h116l-124 -140h-76z" />
    <glyph glyph-name="racute" unicode="&#x155;" horiz-adv-x="401" 
d="M96 530h74l5 -71q9 19 24 34.5t34 26t41 16t45 5.5q31 0 47 -4v-94q-30 24 -71 24q-62 0 -89 -38t-27 -106v-323h-83v530zM261 755h114l-116 -130h-74z" />
    <glyph glyph-name="Rcommaaccent" unicode="&#x156;" horiz-adv-x="663" 
d="M112 0v691q16 3 39.5 5.5t49 4.5t51.5 3.5t47 1.5q132 0 193 -48t62 -157q0 -38 -6.5 -69.5t-22.5 -57t-43 -45.5t-67 -33l228 -296h-109l-217 281h-115v-281h-90zM288 351q47 0 79.5 8.5t53 26t29.5 44t9 63.5q0 35 -8 60t-27 41.5t-51 24t-80 7.5q-26 0 -48.5 -1.5
t-42.5 -5.5v-268h86zM275 -209q23 3 42.5 15.5t19.5 37.5q-5 -1 -9.5 -1.5t-9.5 -0.5q-23 0 -39 11t-16 32q0 19 17 33t49 14q29 0 48.5 -16.5t19.5 -53.5q0 -18 -6 -37.5t-20 -35.5t-36 -27.5t-55 -13.5l-5 43v0z" />
    <glyph glyph-name="rcommaaccent" unicode="&#x157;" horiz-adv-x="401" 
d="M96 530h74l5 -71q9 19 24 34.5t34 26t41 16t45 5.5q31 0 47 -4v-94q-30 24 -71 24q-62 0 -89 -38t-27 -106v-323h-83v530zM77 -209q23 3 42.5 15.5t19.5 37.5q-5 -1 -9.5 -1.5t-9.5 -0.5q-23 0 -39 11t-16 32q0 19 17 33t49 14q29 0 48.5 -16.5t19.5 -53.5
q0 -18 -6 -37.5t-20 -35.5t-36 -27.5t-55 -13.5l-5 43v0z" />
    <glyph glyph-name="Rcaron" unicode="&#x158;" horiz-adv-x="663" 
d="M112 0v691q16 3 39.5 5.5t49 4.5t51.5 3.5t47 1.5q132 0 193 -48t62 -157q0 -38 -6.5 -69.5t-22.5 -57t-43 -45.5t-67 -33l228 -296h-109l-217 281h-115v-281h-90zM288 351q47 0 79.5 8.5t53 26t29.5 44t9 63.5q0 35 -8 60t-27 41.5t-51 24t-80 7.5q-26 0 -48.5 -1.5
t-42.5 -5.5v-268h86zM176 910h88l67 -88l68 88h87l-105 -140h-100z" />
    <glyph glyph-name="rcaron" unicode="&#x159;" horiz-adv-x="401" 
d="M96 530h74l5 -71q9 19 24 34.5t34 26t41 16t45 5.5q31 0 47 -4v-94q-30 24 -71 24q-62 0 -89 -38t-27 -106v-323h-83v530zM72 755h79l71 -79l71 79h79l-102 -130h-96z" />
    <glyph glyph-name="Sacute" unicode="&#x15a;" horiz-adv-x="586" 
d="M426 185q0 47 -26 72.5t-65 42t-85 29.5t-85 34t-65 56.5t-26 96.5q0 94 55.5 143t186.5 49q54 0 98.5 -9.5t78.5 -26.5v-106q-30 28 -78.5 45t-101.5 17q-43 0 -71 -6t-44.5 -18.5t-23.5 -31t-7 -43.5q0 -45 26 -69t65.5 -39t85.5 -28t85.5 -35.5t65.5 -61t26 -105.5
q0 -95 -58.5 -147t-188.5 -52q-61 0 -118 16t-91 42v118q17 -19 38.5 -36t47.5 -30.5t56.5 -21.5t65.5 -8q80 0 116.5 28t36.5 85zM360 910h116l-124 -140h-76z" />
    <glyph glyph-name="sacute" unicode="&#x15b;" horiz-adv-x="507" 
d="M419 410q-29 25 -62.5 40.5t-82.5 15.5q-60 0 -86 -16.5t-26 -54.5q0 -30 20.5 -46t52 -26.5t67.5 -19t67.5 -25t52 -44.5t20.5 -77q0 -85 -49 -126.5t-146 -41.5q-63 0 -106 11t-76 31v103q31 -31 81 -50.5t101 -19.5q112 0 112 89q0 30 -20.5 46t-52 26t-67.5 19
t-67.5 25.5t-52 44t-20.5 75.5q0 35 10 63t32.5 47.5t59 30t89.5 10.5q55 0 90.5 -10t58.5 -21v-99zM314 755h114l-116 -130h-74z" />
    <glyph glyph-name="Scircumflex" unicode="&#x15c;" horiz-adv-x="586" 
d="M426 185q0 47 -26 72.5t-65 42t-85 29.5t-85 34t-65 56.5t-26 96.5q0 94 55.5 143t186.5 49q54 0 98.5 -9.5t78.5 -26.5v-106q-30 28 -78.5 45t-101.5 17q-43 0 -71 -6t-44.5 -18.5t-23.5 -31t-7 -43.5q0 -45 26 -69t65.5 -39t85.5 -28t85.5 -35.5t65.5 -61t26 -105.5
q0 -95 -58.5 -147t-188.5 -52q-61 0 -118 16t-91 42v118q17 -19 38.5 -36t47.5 -30.5t56.5 -21.5t65.5 -8q80 0 116.5 28t36.5 85zM264 910h100l105 -140h-87l-68 88l-68 -88h-87z" />
    <glyph glyph-name="scircumflex" unicode="&#x15d;" horiz-adv-x="507" 
d="M419 410q-29 25 -62.5 40.5t-82.5 15.5q-60 0 -86 -16.5t-26 -54.5q0 -30 20.5 -46t52 -26.5t67.5 -19t67.5 -25t52 -44.5t20.5 -77q0 -85 -49 -126.5t-146 -41.5q-63 0 -106 11t-76 31v103q31 -31 81 -50.5t101 -19.5q112 0 112 89q0 30 -20.5 46t-52 26t-67.5 19
t-67.5 25.5t-52 44t-20.5 75.5q0 35 10 63t32.5 47.5t59 30t89.5 10.5q55 0 90.5 -10t58.5 -21v-99zM227 755h96l102 -130h-79l-71 79l-71 -79h-79z" />
    <glyph glyph-name="Scedilla" unicode="&#x15e;" horiz-adv-x="586" 
d="M254 -7q-57 2 -107.5 17.5t-81.5 39.5v118q17 -19 38.5 -36t47.5 -30.5t56.5 -21.5t65.5 -8q80 0 116.5 28t36.5 85q0 47 -26 72.5t-65 42t-85 29.5t-85 34t-65 56.5t-26 96.5q0 94 55.5 143t186.5 49q54 0 98.5 -9.5t78.5 -26.5v-106q-30 28 -78.5 45t-101.5 17
q-43 0 -71 -6t-44.5 -18.5t-23.5 -31t-7 -43.5q0 -45 26 -69t65.5 -39t85.5 -28t85.5 -35.5t65.5 -61t26 -105.5q0 -89 -49.5 -139.5t-160.5 -58.5l-6 -42q22 -1 41 -5t33.5 -14t22.5 -26.5t8 -41.5q0 -23 -9 -42t-25 -33.5t-38 -22.5t-48 -8q-31 0 -49 4.5t-32 11.5l8 54
q16 -7 30 -10t34 -3q19 0 35.5 10t16.5 36q0 23 -17.5 32t-34.5 9q-8 0 -19.5 -0.5t-18.5 -2.5z" />
    <glyph glyph-name="scedilla" unicode="&#x15f;" horiz-adv-x="507" 
d="M201 -9q-44 4 -77 14t-59 26v103q31 -31 81 -50.5t101 -19.5q112 0 112 89q0 30 -20.5 46t-52 26t-67.5 19t-67.5 25.5t-52 44t-20.5 75.5q0 35 10 63t32.5 47.5t59 30t89.5 10.5q55 0 90.5 -10t58.5 -21v-99q-29 25 -62.5 40.5t-82.5 15.5q-60 0 -86 -16.5t-26 -54.5
q0 -30 20.5 -46t52 -26.5t67.5 -19t67.5 -25t52 -44.5t20.5 -77q0 -83 -47.5 -124.5t-141.5 -43.5l-4 -33q21 -1 38 -5t30 -13.5t20 -25.5t7 -41q0 -42 -29.5 -67.5t-79.5 -25.5q-28 0 -44 4t-30 11l7 52q15 -7 27.5 -10t31.5 -3t33 9.5t14 33.5q0 11 -4.5 18t-11.5 10.5
t-15.5 4.5t-16.5 1h-18t-18 -2z" />
    <glyph glyph-name="Scaron" unicode="&#x160;" horiz-adv-x="586" 
d="M426 185q0 47 -26 72.5t-65 42t-85 29.5t-85 34t-65 56.5t-26 96.5q0 94 55.5 143t186.5 49q54 0 98.5 -9.5t78.5 -26.5v-106q-30 28 -78.5 45t-101.5 17q-43 0 -71 -6t-44.5 -18.5t-23.5 -31t-7 -43.5q0 -45 26 -69t65.5 -39t85.5 -28t85.5 -35.5t65.5 -61t26 -105.5
q0 -95 -58.5 -147t-188.5 -52q-61 0 -118 16t-91 42v118q17 -19 38.5 -36t47.5 -30.5t56.5 -21.5t65.5 -8q80 0 116.5 28t36.5 85zM159 910h88l67 -88l68 88h87l-105 -140h-100z" />
    <glyph glyph-name="scaron" unicode="&#x161;" horiz-adv-x="507" 
d="M419 410q-29 25 -62.5 40.5t-82.5 15.5q-60 0 -86 -16.5t-26 -54.5q0 -30 20.5 -46t52 -26.5t67.5 -19t67.5 -25t52 -44.5t20.5 -77q0 -85 -49 -126.5t-146 -41.5q-63 0 -106 11t-76 31v103q31 -31 81 -50.5t101 -19.5q112 0 112 89q0 30 -20.5 46t-52 26t-67.5 19
t-67.5 25.5t-52 44t-20.5 75.5q0 35 10 63t32.5 47.5t59 30t89.5 10.5q55 0 90.5 -10t58.5 -21v-99zM125 755h79l71 -79l71 79h79l-102 -130h-96z" />
    <glyph glyph-name="Tcedilla" unicode="&#x162;" horiz-adv-x="582" 
d="M246 620h-221v80h532v-80h-221v-620h-16l-7 -49q22 -1 41 -5t33.5 -14t22.5 -26.5t8 -41.5q0 -23 -9 -42t-25 -33.5t-38 -22.5t-48 -8q-31 0 -49 4.5t-32 11.5l8 54q16 -7 30 -10t34 -3q19 0 35.5 10t16.5 36q0 23 -17.5 32t-34.5 9q-8 0 -19.5 -0.5t-18.5 -2.5l12 101
h-17v620z" />
    <glyph glyph-name="tcedilla" unicode="&#x163;" horiz-adv-x="467" 
d="M249 -5q-56 11 -83.5 51t-27.5 118v292h-113v74h113v109l83 31v-140h191v-74h-191v-289q0 -58 22 -80t68 -22q45 0 72 9t49 23v-77q-17 -12 -52 -21t-75 -9h-5l-4 -34q21 -1 38 -5t30 -13.5t20 -25.5t7 -41q0 -42 -29.5 -67.5t-79.5 -25.5q-28 0 -44 4t-30 11l7 52
q15 -7 27.5 -10t31.5 -3t33 9.5t14 33.5q0 11 -4.5 18t-11.5 10.5t-15.5 4.5t-16.5 1h-18t-18 -2z" />
    <glyph glyph-name="Tcaron" unicode="&#x164;" horiz-adv-x="582" 
d="M246 620h-221v80h532v-80h-221v-620h-90v620zM137 910h88l67 -88l68 88h87l-105 -140h-100z" />
    <glyph glyph-name="tcaron" unicode="&#x165;" horiz-adv-x="475" 
d="M138 456h-113v74h113v109l83 31v-140h191v-74h-191v-289q0 -58 22 -80t68 -22q45 0 72 9t49 23v-77q-17 -12 -52 -21t-75 -9q-83 0 -125 39.5t-42 134.5v292zM357 820h94l-76 -190h-64z" />
    <glyph glyph-name="Umacron" unicode="&#x16a;" horiz-adv-x="750" 
d="M107 700h90v-425q0 -66 14 -106.5t39 -62t60 -29t77 -7.5q34 0 64.5 6t53 26t35.5 58t13 103v437h90v-433q0 -84 -21 -137.5t-57 -84.5t-84.5 -43t-103.5 -12q-141 0 -205.5 64t-64.5 205v441zM230 876h290v-72h-290v72z" />
    <glyph glyph-name="umacron" unicode="&#x16b;" horiz-adv-x="617" 
d="M440 84q-50 -95 -174 -95q-84 0 -129.5 43.5t-45.5 141.5v356h83v-331q0 -37 6.5 -62.5t20.5 -41.5t37.5 -23.5t57.5 -7.5q78 0 110 36t32 116v314h83v-530h-76zM167 725h280v-70h-280v70z" />
    <glyph glyph-name="Ubreve" unicode="&#x16c;" horiz-adv-x="750" 
d="M107 700h90v-425q0 -66 14 -106.5t39 -62t60 -29t77 -7.5q34 0 64.5 6t53 26t35.5 58t13 103v437h90v-433q0 -84 -21 -137.5t-57 -84.5t-84.5 -43t-103.5 -12q-141 0 -205.5 64t-64.5 205v441zM272 910q11 -38 36 -59t67 -21t67 21t36 59l52 -16q-15 -62 -55 -93
t-100 -31t-100 31t-55 93z" />
    <glyph glyph-name="ubreve" unicode="&#x16d;" horiz-adv-x="617" 
d="M440 84q-50 -95 -174 -95q-84 0 -129.5 43.5t-45.5 141.5v356h83v-331q0 -37 6.5 -62.5t20.5 -41.5t37.5 -23.5t57.5 -7.5q78 0 110 36t32 116v314h83v-530h-76zM202 760q11 -38 37 -60t68 -22t68 22t37 60l50 -16q-19 -62 -57 -93t-98 -31t-98 31t-57 93z" />
    <glyph glyph-name="Uring" unicode="&#x16e;" horiz-adv-x="750" 
d="M107 700h90v-425q0 -66 14 -106.5t39 -62t60 -29t77 -7.5q34 0 64.5 6t53 26t35.5 58t13 103v437h90v-433q0 -84 -21 -137.5t-57 -84.5t-84.5 -43t-103.5 -12q-141 0 -205.5 64t-64.5 205v441zM283 840q0 21 8 38t20.5 29t29 18.5t34.5 6.5t34.5 -6.5t29 -18.5t20.5 -29
t8 -38t-8 -38t-20.5 -29t-29 -18.5t-34.5 -6.5t-34.5 6.5t-29 18.5t-20.5 29t-8 38zM331 840q0 -20 12 -32t32 -12t32 12t12 32t-12 32t-32 12t-32 -12t-12 -32z" />
    <glyph glyph-name="uring" unicode="&#x16f;" horiz-adv-x="617" 
d="M440 84q-50 -95 -174 -95q-84 0 -129.5 43.5t-45.5 141.5v356h83v-331q0 -37 6.5 -62.5t20.5 -41.5t37.5 -23.5t57.5 -7.5q78 0 110 36t32 116v314h83v-530h-76zM217 690q0 21 7.5 37.5t20 28.5t28.5 18t34 6t34 -6t28.5 -18t20 -28.5t7.5 -37.5t-7.5 -37.5t-20 -28
t-28.5 -18t-34 -6.5t-34 6.5t-28.5 18t-20 28t-7.5 37.5zM263 690q0 -20 12 -32t32 -12t32 12t12 32t-12 32t-32 12t-32 -12t-12 -32z" />
    <glyph glyph-name="Uhungarumlaut" unicode="&#x170;" horiz-adv-x="750" 
d="M107 700h90v-425q0 -66 14 -106.5t39 -62t60 -29t77 -7.5q34 0 64.5 6t53 26t35.5 58t13 103v437h90v-433q0 -84 -21 -137.5t-57 -84.5t-84.5 -43t-103.5 -12q-141 0 -205.5 64t-64.5 205v441zM299 910h106l-86 -140h-76zM503 910h120l-126 -140h-80z" />
    <glyph glyph-name="uhungarumlaut" unicode="&#x171;" horiz-adv-x="617" 
d="M440 84q-50 -95 -174 -95q-84 0 -129.5 43.5t-45.5 141.5v356h83v-331q0 -37 6.5 -62.5t20.5 -41.5t37.5 -23.5t57.5 -7.5q78 0 110 36t32 116v314h83v-530h-76zM241 755h104l-86 -130h-74zM427 755h118l-126 -130h-78z" />
    <glyph glyph-name="Uogonek" unicode="&#x172;" horiz-adv-x="750" 
d="M107 700h90v-425q0 -66 14 -106.5t39 -62t60 -29t77 -7.5q34 0 64.5 6t53 26t35.5 58t13 103v437h90v-433q0 -70 -14.5 -119t-41 -81t-62.5 -49t-78 -23q-30 -24 -50.5 -53.5t-20.5 -67.5q0 -20 14 -32t40 -12q28 0 57 17v-60q-17 -8 -37 -13.5t-46 -5.5q-53 0 -79 24
t-26 69q0 41 24 72t56 57h-2q-141 0 -205.5 64t-64.5 205v441z" />
    <glyph glyph-name="uogonek" unicode="&#x173;" horiz-adv-x="617" 
d="M440 84q-50 -95 -174 -95q-84 0 -129.5 43.5t-45.5 141.5v356h83v-331q0 -37 6.5 -62.5t20.5 -41.5t37.5 -23.5t57.5 -7.5q78 0 110 36t32 116v314h83v-530h-12q-30 -23 -50 -52t-20 -70q0 -20 12 -31t35 -11q12 0 26.5 4t28.5 12v-56q-16 -8 -34.5 -13t-42.5 -5
q-49 0 -75.5 23t-26.5 64q0 23 7.5 43t20 36.5t28 30.5t31.5 25h-4z" />
    <glyph glyph-name="Ydieresis" unicode="&#x178;" horiz-adv-x="623" 
d="M267 267l-247 433h99l197 -347l190 347h96l-245 -432v-268h-90v267zM162 840q0 26 14 40t40 14t40 -14t14 -40t-14 -40t-40 -14t-40 14t-14 40zM354 840q0 26 14 40t40 14t40 -14t14 -40t-14 -40t-40 -14t-40 14t-14 40z" />
    <glyph glyph-name="Zacute" unicode="&#x179;" horiz-adv-x="607" 
d="M40 50l400 570h-388v80h509v-51l-400 -569h406v-80h-527v50zM350 910h116l-124 -140h-76z" />
    <glyph glyph-name="zacute" unicode="&#x17a;" horiz-adv-x="505" 
d="M40 46l303 410h-285v74h400v-46l-306 -409h308v-75h-420v46zM292 755h114l-116 -130h-74z" />
    <glyph glyph-name="Zdotaccent" unicode="&#x17b;" horiz-adv-x="607" 
d="M40 50l400 570h-388v80h509v-51l-400 -569h406v-80h-527v50zM250 840q0 26 14 40t40 14t40 -14t14 -40t-14 -40t-40 -14t-40 14t-14 40z" />
    <glyph glyph-name="zdotaccent" unicode="&#x17c;" horiz-adv-x="505" 
d="M40 46l303 410h-285v74h400v-46l-306 -409h308v-75h-420v46zM201 690q0 52 52 52t52 -52t-52 -52t-52 52z" />
    <glyph glyph-name="Zcaron" unicode="&#x17d;" horiz-adv-x="607" 
d="M40 50l400 570h-388v80h509v-51l-400 -569h406v-80h-527v50zM149 910h88l67 -88l68 88h87l-105 -140h-100z" />
    <glyph glyph-name="zcaron" unicode="&#x17e;" horiz-adv-x="505" 
d="M40 46l303 410h-285v74h400v-46l-306 -409h308v-75h-420v46zM103 755h79l71 -79l71 79h79l-102 -130h-96z" />
    <glyph glyph-name="uni018F" unicode="&#x18f;" horiz-adv-x="699" 
d="M532 373q0 34 -5 77.5t-27 82.5t-67 65.5t-125 26.5q-53 0 -100.5 -7t-86.5 -21v84q44 12 90 20t106 8q162 0 237 -94t75 -268q0 -63 -13 -126.5t-45.5 -114.5t-88 -83t-139.5 -32q-63 0 -114.5 19t-88 59.5t-56 104.5t-19.5 155v44h467zM162 289q0 -112 43.5 -163
t137.5 -51q33 0 65.5 9.5t59 34t44 66.5t20.5 106h-370v-2z" />
    <glyph glyph-name="florin" unicode="&#x192;" horiz-adv-x="550" 
d="M22 -129q16 -3 26 -3q18 0 33.5 3.5t28 14.5t22 32.5t16.5 57.5l87 458h-94l15 76h93l15 76q7 38 20 70t34.5 54.5t53 35t75.5 12.5q15 0 29 -1.5t32 -4.5l-15 -76q-6 2 -17.5 4t-26.5 2q-24 0 -41.5 -5t-29.5 -18.5t-20 -37t-15 -60.5l-11 -51h130l-15 -76h-128
l-85 -450q-9 -44 -21 -80.5t-33 -62.5t-53.5 -40.5t-81.5 -14.5q-25 0 -41 4z" />
    <glyph glyph-name="uni01DD" unicode="&#x1dd;" horiz-adv-x="582" 
d="M438 294q0 86 -44.5 128.5t-132.5 42.5q-51 0 -92 -17.5t-70 -40.5v86q20 14 62 30.5t102 16.5q64 0 112.5 -15.5t81 -50t49 -88.5t16.5 -130q0 -131 -61 -199t-178 -68q-62 0 -104.5 18t-68.5 51t-38 79.5t-12 102.5v54h378zM284 64q73 0 113.5 38.5t40.5 119.5h-295
q0 -81 33.5 -119.5t107.5 -38.5z" />
    <glyph glyph-name="Gcaron" unicode="&#x1e6;" horiz-adv-x="709" 
d="M401 350h238v-320q-24 -10 -77 -24t-131 -14q-92 0 -159.5 20t-112.5 63t-67 111t-22 164q0 185 91.5 271.5t264.5 86.5q58 0 98.5 -9t64.5 -22v-95q-29 17 -70.5 31.5t-98.5 14.5q-64 0 -112 -15t-80 -47t-48 -83t-16 -124q0 -83 17 -138t50.5 -88t84 -47t116.5 -14
q35 0 66.5 4t56.5 11v184h-154v79zM250 910h88l67 -88l68 88h87l-105 -140h-100z" />
    <glyph glyph-name="gcaron" unicode="&#x1e7;" horiz-adv-x="627" 
d="M97 -52q11 -9 29 -19.5t41.5 -19.5t51 -15t57.5 -6q87 0 129 31t43 106v82q-20 -41 -62.5 -69t-108.5 -28q-108 0 -162.5 59.5t-54.5 194.5q0 75 14 127.5t43 85.5t73 48t103 15q57 0 98.5 -22t59.5 -58l5 70h75v-500q0 -57 -17.5 -98.5t-49 -67.5t-77 -38.5
t-101.5 -12.5q-69 0 -115.5 12t-73.5 26v97zM295 85q74 0 114 38.5t40 123.5v57q0 46 -11 77t-31 50t-48 26.5t-63 7.5q-36 0 -64 -10t-48 -32.5t-30.5 -60.5t-10.5 -93q0 -52 11.5 -87t31.5 -56.5t48 -31t61 -9.5zM140 755h79l71 -79l71 79h79l-102 -130h-96z" />
    <glyph glyph-name="Scommaaccent" unicode="&#x218;" horiz-adv-x="586" 
d="M426 185q0 47 -26 72.5t-65 42t-85 29.5t-85 34t-65 56.5t-26 96.5q0 94 55.5 143t186.5 49q54 0 98.5 -9.5t78.5 -26.5v-106q-30 28 -78.5 45t-101.5 17q-43 0 -71 -6t-44.5 -18.5t-23.5 -31t-7 -43.5q0 -45 26 -69t65.5 -39t85.5 -28t85.5 -35.5t65.5 -61t26 -105.5
q0 -95 -58.5 -147t-188.5 -52q-61 0 -118 16t-91 42v118q17 -19 38.5 -36t47.5 -30.5t56.5 -21.5t65.5 -8q80 0 116.5 28t36.5 85zM228 -209q23 3 42.5 15.5t19.5 37.5q-5 -1 -9.5 -1.5t-9.5 -0.5q-23 0 -39 11t-16 32q0 19 17 33t49 14q29 0 48.5 -16.5t19.5 -53.5
q0 -18 -6 -37.5t-20 -35.5t-36 -27.5t-55 -13.5l-5 43v0z" />
    <glyph glyph-name="scommaaccent" unicode="&#x219;" horiz-adv-x="507" 
d="M419 410q-29 25 -62.5 40.5t-82.5 15.5q-60 0 -86 -16.5t-26 -54.5q0 -30 20.5 -46t52 -26.5t67.5 -19t67.5 -25t52 -44.5t20.5 -77q0 -85 -49 -126.5t-146 -41.5q-63 0 -106 11t-76 31v103q31 -31 81 -50.5t101 -19.5q112 0 112 89q0 30 -20.5 46t-52 26t-67.5 19
t-67.5 25.5t-52 44t-20.5 75.5q0 35 10 63t32.5 47.5t59 30t89.5 10.5q55 0 90.5 -10t58.5 -21v-99zM192 -209q23 3 42.5 15.5t19.5 37.5q-5 -1 -9.5 -1.5t-9.5 -0.5q-23 0 -39 11t-16 32q0 19 17 33t49 14q29 0 48.5 -16.5t19.5 -53.5q0 -18 -6 -37.5t-20 -35.5t-36 -27.5
t-55 -13.5l-5 43v0z" />
    <glyph glyph-name="Tcommaaccent" unicode="&#x21a;" horiz-adv-x="582" 
d="M246 620h-221v80h532v-80h-221v-620h-90v620zM236 -209q23 3 42.5 15.5t19.5 37.5q-5 -1 -9.5 -1.5t-9.5 -0.5q-23 0 -39 11t-16 32q0 19 17 33t49 14q29 0 48.5 -16.5t19.5 -53.5q0 -18 -6 -37.5t-20 -35.5t-36 -27.5t-55 -13.5l-5 43v0z" />
    <glyph glyph-name="tcommaaccent" unicode="&#x21b;" horiz-adv-x="467" 
d="M138 456h-113v74h113v109l83 31v-140h191v-74h-191v-289q0 -58 22 -80t68 -22q45 0 72 9t49 23v-77q-17 -12 -52 -21t-75 -9q-83 0 -125 39.5t-42 134.5v292zM239 -209q23 3 42.5 15.5t19.5 37.5q-5 -1 -9.5 -1.5t-9.5 -0.5q-23 0 -39 11t-16 32q0 19 17 33t49 14
q29 0 48.5 -16.5t19.5 -53.5q0 -18 -6 -37.5t-20 -35.5t-36 -27.5t-55 -13.5l-5 43v0z" />
    <glyph glyph-name="uni0237" unicode="&#x237;" horiz-adv-x="303" 
d="M110 530h83v-525q0 -94 -34.5 -142.5t-120.5 -48.5q-26 0 -47 4t-32 9v87q17 -11 37.5 -16t41.5 -5q38 0 55 22.5t17 76.5v538z" />
    <glyph glyph-name="uni0259" unicode="&#x259;" horiz-adv-x="582" 
d="M438 294q0 86 -44.5 128.5t-132.5 42.5q-51 0 -92 -17.5t-70 -40.5v86q20 14 62 30.5t102 16.5q64 0 112.5 -15.5t81 -50t49 -88.5t16.5 -130q0 -131 -61 -199t-178 -68q-62 0 -104.5 18t-68.5 51t-38 79.5t-12 102.5v54h378zM284 64q73 0 113.5 38.5t40.5 119.5h-295
q0 -81 33.5 -119.5t107.5 -38.5z" />
    <glyph glyph-name="afii57929" unicode="&#x2bc;" horiz-adv-x="205" 
d="M91 700h94l-76 -190h-64z" />
    <glyph glyph-name="circumflex" unicode="&#x2c6;" 
d="M277 755h96l102 -130h-79l-71 79l-71 -79h-79z" />
    <glyph glyph-name="caron" unicode="&#x2c7;" 
d="M175 755h79l71 -79l71 79h79l-102 -130h-96z" />
    <glyph glyph-name="breve" unicode="&#x2d8;" 
d="M220 760q11 -38 37 -60t68 -22t68 22t37 60l50 -16q-19 -62 -57 -93t-98 -31t-98 31t-57 93z" />
    <glyph glyph-name="dotaccent" unicode="&#x2d9;" 
d="M273 690q0 52 52 52t52 -52t-52 -52t-52 52z" />
    <glyph glyph-name="ring" unicode="&#x2da;" 
d="M235 690q0 21 7.5 37.5t20 28.5t28.5 18t34 6t34 -6t28.5 -18t20 -28.5t7.5 -37.5t-7.5 -37.5t-20 -28t-28.5 -18t-34 -6.5t-34 6.5t-28.5 18t-20 28t-7.5 37.5zM281 690q0 -20 12 -32t32 -12t32 12t12 32t-12 32t-32 12t-32 -12t-12 -32z" />
    <glyph glyph-name="ogonek" unicode="&#x2db;" 
d="M495 -204q-16 -8 -34.5 -13t-42.5 -5q-49 0 -75.5 23t-26.5 64q0 26 9.5 47.5t24 39.5t32.5 32t36 26l52 -5q-32 -24 -54.5 -54t-22.5 -73q0 -20 12 -31t35 -11q12 0 26.5 4t28.5 12v-56z" />
    <glyph glyph-name="tilde" unicode="&#x2dc;" 
d="M175 648q2 46 27.5 72t60.5 26q19 0 34.5 -7.5t35.5 -17.5q16 -8 28.5 -14.5t23.5 -6.5t21 10t13 36l56 -14q-2 -24 -10.5 -42.5t-21 -31t-27 -18.5t-29.5 -6t-27.5 5.5t-41.5 19.5q-18 9 -27.5 15.5t-23.5 6.5q-11 0 -21.5 -10.5t-14.5 -36.5z" />
    <glyph glyph-name="hungarumlaut" unicode="&#x2dd;" 
d="M259 755h104l-86 -130h-74zM445 755h118l-126 -130h-78z" />
    <glyph glyph-name="acutecomb" unicode="&#x301;" horiz-adv-x="0" 
d="M-273 755h114l-116 -130h-74z" />
    <glyph glyph-name="uni0394" unicode="&#x394;" horiz-adv-x="634" 
d="M271 700h94l246 -700h-588zM490 84l-171 504h-2l-177 -504h350z" />
    <glyph glyph-name="uni0394" unicode="&#x2206;" horiz-adv-x="634" 
d="M271 700h94l246 -700h-588zM490 84l-171 504h-2l-177 -504h350z" />
    <glyph glyph-name="uni03A9" unicode="&#x3a9;" horiz-adv-x="810" 
d="M112 84h172v50q-29 9 -59.5 27.5t-55.5 50.5t-41 79t-16 112q0 149 76.5 227.5t216.5 78.5t216.5 -78.5t76.5 -227.5q0 -65 -16 -112t-40.5 -79t-55 -50.5t-59.5 -27.5v-50h171v-84h-253v194q51 8 82 32t48 55t22.5 63.5t5.5 58.5q0 34 -7 73t-28 72t-60 55t-103 22
t-103 -22t-60 -55t-28 -72t-7 -73q0 -26 6 -58.5t23 -63.5t48 -55t82 -32v-194h-254v84z" />
    <glyph glyph-name="uni03A9" unicode="&#x2126;" horiz-adv-x="810" 
d="M112 84h172v50q-29 9 -59.5 27.5t-55.5 50.5t-41 79t-16 112q0 149 76.5 227.5t216.5 78.5t216.5 -78.5t76.5 -227.5q0 -65 -16 -112t-40.5 -79t-55 -50.5t-59.5 -27.5v-50h171v-84h-253v194q51 8 82 32t48 55t22.5 63.5t5.5 58.5q0 34 -7 73t-28 72t-60 55t-103 22
t-103 -22t-60 -55t-28 -72t-7 -73q0 -26 6 -58.5t23 -63.5t48 -55t82 -32v-194h-254v84z" />
    <glyph glyph-name="pi" unicode="&#x3c0;" 
d="M146 452q-23 0 -42.5 -8t-33.5 -17l-30 73q17 10 50 20t92 10h401v-76h-71v-332q0 -26 7.5 -38.5t26.5 -12.5q5 0 12 0.5t13 2.5l3 -81q-11 -2 -26 -2.5t-23 -0.5q-50 0 -73.5 27t-23.5 94v343h-199v-454h-83v452z" />
    <glyph glyph-name="afii10023" unicode="&#x401;" horiz-adv-x="608" 
d="M112 700h426v-80h-336v-225h308v-80h-308v-235h336v-80h-426v700zM175 840q0 26 14 40t40 14t40 -14t14 -40t-14 -40t-40 -14t-40 14t-14 40zM367 840q0 26 14 40t40 14t40 -14t14 -40t-14 -40t-40 -14t-40 14t-14 40z" />
    <glyph glyph-name="afii10051" unicode="&#x402;" horiz-adv-x="774" 
d="M246 620h-221v80h532v-80h-221v-200q28 15 70.5 26t98.5 11q103 0 154.5 -42.5t51.5 -121.5v-131q0 -48 -10.5 -80t-30 -51.5t-46 -27.5t-59.5 -8q-25 0 -45.5 4t-31.5 9v87q8 -8 23.5 -14t38.5 -6q14 0 27 3.5t22.5 13t15.5 26.5t6 45v88q0 73 -33.5 100t-99.5 27
q-45 0 -84 -7.5t-68 -24.5v-346h-90v620z" />
    <glyph glyph-name="afii10052" unicode="&#x403;" horiz-adv-x="557" 
d="M112 700h415v-80h-325v-620h-90v700zM375 910h116l-124 -140h-76z" />
    <glyph glyph-name="afii10053" unicode="&#x404;" horiz-adv-x="679" 
d="M421.031 73q-56.9932 0 -102.987 13t-78.4902 41.5t-51.4941 74.5q-18.9971 46 -23.9971 113h353.957v80h-352.957q7.99902 125 68.9922 179q60.9922 54 178.978 54q38.9951 0 71.9912 -6t58.9932 -14.5t44.9941 -18q18.998 -9.5 29.9971 -17.5v103
q-11.999 5 -34.4961 10.5t-50.9941 10.5q-28.4961 5 -61.9922 8.5t-68.4922 3.5q-78.9902 0 -140.982 -19.5t-104.487 -61.5t-64.9922 -106.5t-22.4971 -154.5q0 -195 87.9893 -284.5t262.968 -89.5q74.9912 0 118.985 13q43.9951 13 69.9922 23v101
q-10.999 -8 -28.4971 -17.5t-41.4951 -18t-53.4932 -14.5t-65.4922 -6z" />
    <glyph glyph-name="afii10054" unicode="&#x405;" horiz-adv-x="586" 
d="M426 185q0 47 -26 72.5t-65 42t-85 29.5t-85 34t-65 56.5t-26 96.5q0 94 55.5 143t186.5 49q54 0 98.5 -9.5t78.5 -26.5v-106q-30 28 -78.5 45t-101.5 17q-43 0 -71 -6t-44.5 -18.5t-23.5 -31t-7 -43.5q0 -45 26 -69t65.5 -39t85.5 -28t85.5 -35.5t65.5 -61t26 -105.5
q0 -95 -58.5 -147t-188.5 -52q-61 0 -118 16t-91 42v118q17 -19 38.5 -36t47.5 -30.5t56.5 -21.5t65.5 -8q80 0 116.5 28t36.5 85z" />
    <glyph glyph-name="afii10055" unicode="&#x406;" horiz-adv-x="324" 
d="M117 700h90v-700h-90v700z" />
    <glyph glyph-name="afii10056" unicode="&#x407;" horiz-adv-x="324" 
d="M117 700h90v-700h-90v700zM13 840q0 26 14 40t40 14t40 -14t14 -40t-14 -40t-40 -14t-40 14t-14 40zM205 840q0 26 14 40t40 14t40 -14t14 -40t-14 -40t-40 -14t-40 14t-14 40z" />
    <glyph glyph-name="afii10057" unicode="&#x408;" horiz-adv-x="393" 
d="M191 700h90v-549q0 -81 -39.5 -118.5t-130.5 -37.5q-47 0 -96 18v87q9 -8 36 -16.5t58 -8.5q46 0 64 17.5t18 61.5v546z" />
    <glyph glyph-name="afii10058" unicode="&#x409;" horiz-adv-x="1037" 
d="M25 95q8 -3 14.5 -4t12.5 -1q12 0 24.5 4.5t24 20.5t22 47t19.5 82.5t16 127.5t12 183l6 145h428v-258q29 3 52.5 4t47.5 1q74 0 126 -12.5t84.5 -38.5t47.5 -67t15 -98q0 -60 -15 -105t-49.5 -75t-91.5 -44.5t-142 -14.5q-15 0 -36.5 1t-45 3t-45.5 4t-38 5v615h-253
l-3 -68q-5 -127 -15 -218t-23.5 -153t-30.5 -99.5t-36 -57.5t-41 -26t-45 -6q-13 0 -22 1t-20 5v97zM604 80q24 -4 49.5 -5.5t48.5 -1.5q49 0 83 7.5t56 25.5t32 46.5t10 70.5q0 43 -9 71t-31 44t-59.5 22.5t-94.5 6.5q-23 0 -42.5 -1t-42.5 -3v-283z" />
    <glyph glyph-name="afii10059" unicode="&#x40a;" horiz-adv-x="1111" 
d="M112 700h90v-300h386v300h90v-258q29 3 52.5 4t47.5 1q74 0 126 -12.5t84.5 -38.5t47.5 -67t15 -98q0 -60 -15 -105t-49.5 -75t-91.5 -44.5t-142 -14.5q-15 0 -36.5 1t-45 3t-45.5 4t-38 5v315h-386v-320h-90v700zM678 80q24 -4 49.5 -5.5t48.5 -1.5q49 0 83 7.5t56 25.5
t32 46.5t10 70.5q0 43 -9 71t-31 44t-59.5 22.5t-94.5 6.5q-23 0 -42.5 -1t-42.5 -3v-283z" />
    <glyph glyph-name="afii10060" unicode="&#x40b;" horiz-adv-x="784" 
d="M246 620h-221v80h532v-80h-221v-206q28 17 72.5 30t106.5 13q103 0 154.5 -42.5t51.5 -121.5v-293h-90v251q0 73 -33.5 100t-99.5 27q-48 0 -90 -9t-72 -29v-340h-90v620z" />
    <glyph glyph-name="afii10061" unicode="&#x40c;" horiz-adv-x="691" 
d="M112 700h90v-308h52l269 308h116l-307 -339l344 -361h-116l-305 322h-53v-322h-90v700zM371 910h116l-124 -140h-76z" />
    <glyph glyph-name="afii10062" unicode="&#x40e;" horiz-adv-x="654" 
d="M163 95q11 -8 25 -13t33 -5q20 0 43 13t40 51l-284 559h106l226 -449l193 449h94l-250 -569q-19 -42 -37.5 -69t-38 -42.5t-41 -21.5t-45.5 -6q-35 0 -64 13v90zM242 910q4 -42 24.5 -61t62.5 -19t63.5 19t25.5 61h76q-8 -76 -51.5 -108t-113.5 -32t-113.5 32t-51.5 108
h78z" />
    <glyph glyph-name="afii10145" unicode="&#x40f;" horiz-adv-x="757" 
d="M336 0h-224v700h90v-620h353v620h90v-700h-224v-130h-85v130z" />
    <glyph glyph-name="afii10017" unicode="&#x410;" horiz-adv-x="679" 
d="M485 187h-299l-69 -187h-92l267 700h91l271 -700h-99zM216 267h239l-120 321z" />
    <glyph glyph-name="afii10018" unicode="&#x411;" horiz-adv-x="643" 
d="M112 700h419v-80h-329v-195q36 4 67 5.5t57 1.5q61 0 108 -10t78 -34t47 -63.5t16 -97.5q0 -114 -68 -174.5t-222 -60.5q-45 0 -93 2.5t-80 7.5v698zM202 79q39 -6 89 -6q54 0 90.5 9t58.5 27.5t31.5 47t9.5 66.5q0 36 -8 61t-28.5 40t-55 21.5t-86.5 6.5
q-23 0 -48.5 -1.5t-52.5 -5.5v-266z" />
    <glyph glyph-name="afii10019" unicode="&#x412;" horiz-adv-x="661" 
d="M112 697q16 1 41 3t52.5 3l55 2t48.5 1q72 0 120 -10t77 -31.5t41.5 -55t12.5 -79.5q0 -128 -110 -163q77 -9 111.5 -51.5t34.5 -111.5q0 -54 -15 -94t-48 -66.5t-85 -39t-126 -12.5q-65 0 -121.5 3.5t-88.5 8.5v693zM202 80q28 -5 62.5 -6.5t63.5 -1.5q51 0 85 7.5
t54.5 23.5t29 40.5t8.5 59.5q0 67 -40 92.5t-121 25.5h-142v-241zM328 391q80 0 111 30.5t31 83.5q0 37 -6.5 61t-23.5 37t-47.5 18t-79.5 5q-27 0 -56.5 -0.5t-54.5 -2.5v-232h126z" />
    <glyph glyph-name="afii10020" unicode="&#x413;" horiz-adv-x="557" 
d="M112 700h415v-80h-325v-620h-90v700z" />
    <glyph glyph-name="afii10021" unicode="&#x414;" horiz-adv-x="718" 
d="M10 80h74q30 73 55.5 193t27.5 282l2 145h424v-620h90v-210h-84v130h-505v-130h-84v210zM503 620h-247l-1 -68q-1 -69 -7.5 -135.5t-17 -127.5t-24 -114t-28.5 -95h325v540z" />
    <glyph glyph-name="afii10022" unicode="&#x415;" horiz-adv-x="608" 
d="M112 700h426v-80h-336v-225h308v-80h-308v-235h336v-80h-426v700z" />
    <glyph glyph-name="afii10024" unicode="&#x416;" horiz-adv-x="922" 
d="M346 392h70v308h90v-308h68l202 308h96l-219 -334l254 -366h-110l-224 322h-67v-322h-90v322h-65l-226 -322h-110l255 356l-223 344h103z" />
    <glyph glyph-name="afii10025" unicode="&#x417;" horiz-adv-x="598" 
d="M165 393h100q40 0 66.5 10t42.5 26.5t22.5 38.5t6.5 46q0 62 -37.5 87.5t-115.5 25.5q-45 0 -87 -16t-77 -43v103q29 11 72.5 24t110.5 13q115 0 171.5 -39.5t56.5 -130.5q0 -66 -29 -106t-90 -58q77 -9 116 -50t39 -125q0 -101 -64 -154t-204 -53q-67 0 -118 12.5
t-82 26.5v114q13 -13 33.5 -25.5t47.5 -23t59.5 -17t69.5 -6.5q90 0 126.5 33.5t36.5 99.5q0 62 -40.5 87t-131.5 25h-101v75z" />
    <glyph glyph-name="afii10026" unicode="&#x418;" horiz-adv-x="789" 
d="M112 700h90v-440q0 -33 -3 -72.5t-7 -79.5q32 63 71 121l320 471h94v-700h-90v434q0 34 2.5 76t7.5 85q-18 -34 -36 -66.5t-34 -55.5l-321 -473h-94v700z" />
    <glyph glyph-name="afii10027" unicode="&#x419;" horiz-adv-x="789" 
d="M112 700h90v-440q0 -33 -3 -72.5t-7 -79.5q32 63 71 121l320 471h94v-700h-90v434q0 34 2.5 76t7.5 85q-18 -34 -36 -66.5t-34 -55.5l-321 -473h-94v700zM307 910q4 -42 24.5 -61t62.5 -19t63.5 19t25.5 61h76q-8 -76 -51.5 -108t-113.5 -32t-113.5 32t-51.5 108h78z" />
    <glyph glyph-name="afii10028" unicode="&#x41a;" horiz-adv-x="691" 
d="M112 700h90v-308h52l269 308h116l-307 -339l344 -361h-116l-305 322h-53v-322h-90v700z" />
    <glyph glyph-name="afii10029" unicode="&#x41b;" horiz-adv-x="716" 
d="M25 95q8 -3 14.5 -4t12.5 -1q12 0 24.5 4.5t24 20.5t22 47t19.5 82.5t16 127.5t12 183l6 145h428v-700h-90v620h-253l-3 -68q-5 -127 -15 -218t-23.5 -153t-30.5 -99.5t-36 -57.5t-41 -26t-45 -6q-13 0 -22 1t-20 5v97z" />
    <glyph glyph-name="afii10030" unicode="&#x41c;" horiz-adv-x="905" 
d="M112 700h110l237 -465l235 465h99v-700h-90v420q0 33 2 73t5 82q-21 -46 -41 -89t-33 -68l-142 -278h-77l-142 277q-14 28 -36 73t-45 92q4 -43 6 -84t2 -76v-422h-90v700z" />
    <glyph glyph-name="afii10031" unicode="&#x41d;" horiz-adv-x="790" 
d="M112 700h90v-300h386v300h90v-700h-90v320h-386v-320h-90v700z" />
    <glyph glyph-name="afii10032" unicode="&#x41e;" horiz-adv-x="788" 
d="M70 350q0 185 82 272.5t253 87.5q160 0 236.5 -87.5t76.5 -272.5q0 -98 -22.5 -166t-64.5 -111.5t-102 -63t-136 -19.5q-69 0 -128.5 19t-102.5 62t-67.5 111.5t-24.5 167.5zM164 347q0 -78 17 -130.5t48 -85t74 -46.5t95 -14q53 0 95 14t71 46.5t44.5 85t15.5 130.5
q0 80 -15.5 134t-45.5 87t-73 47t-97 14q-118 0 -173.5 -69.5t-55.5 -212.5z" />
    <glyph glyph-name="afii10033" unicode="&#x41f;" horiz-adv-x="779" 
d="M112 700h555v-700h-90v620h-375v-620h-90v700z" />
    <glyph glyph-name="afii10034" unicode="&#x420;" horiz-adv-x="641" 
d="M112 694q32 4 80.5 8t99.5 4q80 0 136 -14t91 -42.5t50.5 -71t15.5 -100.5q0 -133 -68.5 -195t-224.5 -62q-20 0 -44 1t-46 3v-225h-90v694zM202 304q22 -2 44.5 -3t45.5 -1q55 0 93 8.5t61.5 28.5t34 52t10.5 80q0 44 -10 74t-33.5 48.5t-60.5 26.5t-91 8
q-23 0 -47.5 -1t-46.5 -3v-318z" />
    <glyph glyph-name="afii10035" unicode="&#x421;" horiz-adv-x="658" 
d="M579 577q-27 19 -77 35t-113 16q-56 0 -98 -14t-70 -45.5t-42.5 -83t-14.5 -126.5q0 -82 16 -137t46 -88t73.5 -47t97.5 -14q35 0 66.5 6t58 14.5t46 18t30.5 15.5v-91q-24 -14 -77 -29t-125 -15q-83 0 -144 20t-101.5 63.5t-60.5 111.5t-20 163t20.5 162.5t61 111
t100.5 64t140 20.5q68 0 114.5 -11.5t72.5 -19.5v-100z" />
    <glyph glyph-name="afii10036" unicode="&#x422;" horiz-adv-x="582" 
d="M246 620h-221v80h532v-80h-221v-620h-90v620z" />
    <glyph glyph-name="afii10037" unicode="&#x423;" horiz-adv-x="654" 
d="M163 95q11 -8 25 -13t33 -5q20 0 43 13t40 51l-284 559h106l226 -449l193 449h94l-250 -569q-19 -42 -37.5 -69t-38 -42.5t-41 -21.5t-45.5 -6q-35 0 -64 13v90z" />
    <glyph glyph-name="afii10038" unicode="&#x424;" horiz-adv-x="924" 
d="M417 67h-28q-165 0 -244.5 71.5t-79.5 217.5q0 154 83.5 222.5t247.5 68.5h21v73h90v-73h24q82 0 144 -16t102.5 -51t61 -90t20.5 -134q0 -76 -23 -131t-65.5 -90t-104 -52t-138.5 -17h-21v-86h-90v87zM417 573h-19q-68 0 -114 -12.5t-73.5 -38.5t-39.5 -65t-12 -93
q0 -63 15.5 -105.5t45.5 -68.5t74 -37.5t102 -11.5h21v432zM528 141q65 0 110.5 13.5t73.5 40.5t40.5 68t12.5 96q0 62 -13.5 103t-42.5 66t-74.5 35t-109.5 10h-18v-432h21z" />
    <glyph glyph-name="afii10039" unicode="&#x425;" horiz-adv-x="656" 
d="M263 356l-220 344h106l177 -281l189 281h102l-234 -337l243 -363h-106l-198 298l-190 -298h-102z" />
    <glyph glyph-name="afii10040" unicode="&#x426;" horiz-adv-x="770" 
d="M112 700h90v-620h353v620h90v-620h90v-210h-84v130h-539v700z" />
    <glyph glyph-name="afii10041" unicode="&#x427;" horiz-adv-x="679" 
d="M477 287q-27 -18 -72.5 -31t-107.5 -13q-103 0 -160 42.5t-57 121.5v293h90v-251q0 -36 10.5 -60.5t29 -39.5t45.5 -21t60 -6q48 0 90 9.5t72 29.5v339h90v-700h-90v287z" />
    <glyph glyph-name="afii10042" unicode="&#x428;" horiz-adv-x="980" 
d="M112 700h90v-620h243v620h90v-620h243v620h90v-700h-756v700z" />
    <glyph glyph-name="afii10043" unicode="&#x429;" horiz-adv-x="993" 
d="M112 700h90v-620h243v620h90v-620h243v620h90v-620h90v-210h-84v130h-762v700z" />
    <glyph glyph-name="afii10044" unicode="&#x42a;" horiz-adv-x="705" 
d="M182 620h-157v80h247v-258q29 3 52.5 4t47.5 1q74 0 126 -12.5t84.5 -38.5t47.5 -67t15 -98q0 -60 -15 -105t-49.5 -75t-91.5 -44.5t-142 -14.5q-15 0 -36.5 1t-45 3t-45.5 4t-38 5v615zM272 80q24 -4 49.5 -5.5t48.5 -1.5q49 0 83 7.5t56 25.5t32 46.5t10 70.5
q0 43 -9 71t-31 44t-59.5 22.5t-94.5 6.5q-23 0 -42.5 -1t-42.5 -3v-283z" />
    <glyph glyph-name="afii10045" unicode="&#x42b;" horiz-adv-x="870" 
d="M112 700h90v-258q29 3 52.5 4t47.5 1q73 0 123 -13t81 -39.5t45 -67.5t14 -96q0 -59 -14 -103.5t-47 -74.5t-88.5 -45.5t-138.5 -15.5q-18 0 -40.5 1t-45 3t-43 4t-36.5 5v695zM202 80q24 -4 49.5 -5.5t48.5 -1.5q48 0 80.5 8t53 26t29 46.5t8.5 69.5t-8 69t-29 44.5
t-56.5 23.5t-90.5 7q-23 0 -42.5 -1t-42.5 -3v-283zM668 700h90v-700h-90v700z" />
    <glyph glyph-name="afii10046" unicode="&#x42c;" horiz-adv-x="635" 
d="M112 700h90v-258q29 3 52.5 4t47.5 1q74 0 126 -12.5t84.5 -38.5t47.5 -67t15 -98q0 -60 -15 -105t-49.5 -75t-91.5 -44.5t-142 -14.5q-15 0 -36.5 1t-45 3t-45.5 4t-38 5v695zM202 80q24 -4 49.5 -5.5t48.5 -1.5q49 0 83 7.5t56 25.5t32 46.5t10 70.5q0 43 -9 71t-31 44
t-59.5 22.5t-94.5 6.5q-23 0 -42.5 -1t-42.5 -3v-283z" />
    <glyph glyph-name="afii10047" unicode="&#x42d;" horiz-adv-x="679" 
d="M258 73q57 0 103 13t78.5 41.5t51.5 74.5t24 113h-354v80h353q-8 125 -69 179t-179 54q-39 0 -72 -6t-59 -14.5t-45 -18t-30 -17.5v103q12 5 34.5 10.5t51 10.5t62 8.5t68.5 3.5q79 0 141 -19.5t104.5 -61.5t65 -106.5t22.5 -154.5q0 -195 -88 -284.5t-263 -89.5
q-75 0 -119 13t-70 23v101q11 -8 28.5 -17.5t41.5 -18t53.5 -14.5t65.5 -6z" />
    <glyph glyph-name="afii10048" unicode="&#x42e;" horiz-adv-x="1052" 
d="M674 710q69 0 126 -17.5t97.5 -59.5t62.5 -111t22 -172q0 -108 -25 -178t-68.5 -110.5t-101.5 -56t-124 -15.5q-152 0 -226.5 79.5t-81.5 245.5h-153v-315h-90v700h90v-305h154q10 161 89 238t229 77zM445 347q0 -149 56 -213t167 -64q62 0 104 17.5t68 52t37 86.5
t11 121q0 79 -14.5 133.5t-42.5 87.5t-70.5 47.5t-97.5 14.5q-48 0 -88 -13.5t-69 -45.5t-45 -87t-16 -137z" />
    <glyph glyph-name="afii10049" unicode="&#x42f;" horiz-adv-x="667" 
d="M240 278q-75 20 -111.5 68t-36.5 138q0 58 16 100t51.5 69.5t92 41t136.5 13.5q49 0 92 -3.5t75 -6.5v-698h-90v267h-132l-185 -267h-108zM465 624q-23 2 -45.5 3t-50.5 1q-57 0 -92.5 -9.5t-56 -28t-27.5 -45.5t-7 -62t8 -60.5t28 -42.5t54 -25t87 -8h102v277z" />
    <glyph glyph-name="afii10065" unicode="&#x430;" horiz-adv-x="563" 
d="M392 76q-20 -36 -61.5 -61.5t-98.5 -25.5q-80 0 -126 40.5t-46 117.5q0 44 11.5 74.5t37 50t65.5 28.5t97 9h119v50q0 32 -7.5 52.5t-23.5 32t-40.5 16t-57.5 4.5q-45 0 -89.5 -17t-71.5 -40v96q16 9 37.5 16t44.5 11.5t46 7t42 2.5q52 0 90.5 -9t63.5 -30t37 -55.5
t12 -85.5v-360h-76zM145 160q0 -43 24 -67t79 -24q74 0 108 38t34 96v45h-116q-38 0 -63 -5t-39.5 -15.5t-20.5 -27t-6 -40.5z" />
    <glyph glyph-name="afii10066" unicode="&#x431;" horiz-adv-x="623" 
d="M517 674q-15 -8 -56 -13t-124 -10q-54 -3 -89 -16.5t-56 -40.5t-31 -69t-15 -102l3 -1q35 51 87.5 76t112.5 25q49 0 88.5 -11.5t67.5 -39.5t43 -75.5t15 -119.5q0 -76 -16 -130.5t-47.5 -89t-77.5 -51t-105 -16.5q-128 0 -190 79.5t-62 252.5q0 103 13 177.5t41.5 124.5
t74 77t110.5 36q19 3 49 5.5t61.5 6t59.5 9t43 13.5v-97zM319 69q79 0 117.5 46.5t38.5 151.5q0 53 -10 87.5t-29.5 55t-48 29t-64.5 8.5q-77 0 -124.5 -41.5t-47.5 -119.5q0 -59 11 -100.5t32.5 -67.5t53 -37.5t71.5 -11.5z" />
    <glyph glyph-name="afii10067" unicode="&#x432;" horiz-adv-x="574" 
d="M96 531q29 2 73.5 4t106.5 2q64 0 105 -9t65 -25t33.5 -39.5t9.5 -51.5q0 -51 -23 -81.5t-80 -46.5q67 -6 97.5 -33t30.5 -93q0 -37 -11 -67.5t-37.5 -52.5t-71 -34t-110.5 -12q-26 0 -53.5 0.5t-52.5 1.5t-46 2.5t-36 2.5v532zM179 69q26 -2 52.5 -3.5t55.5 -1.5
q41 0 68.5 4.5t44.5 15.5t24 29t7 44q0 45 -30.5 62.5t-98.5 17.5h-123v-168zM302 308q47 0 75 19t28 61q0 45 -27.5 61t-95.5 16h-62t-41 -1v-156h123z" />
    <glyph glyph-name="afii10068" unicode="&#x433;" horiz-adv-x="461" 
d="M96 530h335v-78h-252v-452h-83v530z" />
    <glyph glyph-name="afii10069" unicode="&#x434;" horiz-adv-x="601" 
d="M20 79h60q26 56 41 154.5t15 239.5v57h353v-451h80v-209h-78v130h-393v-130h-78v209zM406 452h-191l-1 -37q-2 -97 -13.5 -184t-38.5 -152h244v373z" />
    <glyph glyph-name="afii10070" unicode="&#x435;" horiz-adv-x="582" 
d="M144 235q0 -86 44.5 -128.5t132.5 -42.5q51 0 92 17.5t70 40.5v-86q-20 -14 -62 -30.5t-102 -16.5q-64 0 -112.5 15.5t-81 50t-49 88t-16.5 130.5q0 131 61 199t178 68q61 0 104 -18t69 -51t38 -79.5t12 -102.5v-54h-378zM298 465q-73 0 -113.5 -38.5t-40.5 -119.5h295
q0 81 -33.5 119.5t-107.5 38.5z" />
    <glyph glyph-name="afii10072" unicode="&#x436;" horiz-adv-x="794" 
d="M30 0l173 274l-158 256h95l132 -225h83v225h83v-225h84l137 225h89l-156 -252l172 -278h-98l-144 240h-84v-240h-83v240h-80l-149 -240h-96z" />
    <glyph glyph-name="afii10073" unicode="&#x437;" horiz-adv-x="510" 
d="M60 123q26 -21 73.5 -40t111.5 -19q61 0 91.5 21t30.5 72q0 22 -7 37t-24 24t-44.5 12.5t-69.5 3.5h-69v66h80q57 0 82.5 21.5t25.5 65.5q0 41 -22 60t-86 19q-59 0 -95.5 -15.5t-67.5 -39.5v97q14 6 30 11.5t37 10t48 7.5t63 3q98 0 137.5 -34.5t39.5 -94.5
q0 -56 -17 -88.5t-67 -46.5q49 -3 79 -31.5t30 -82.5q0 -90 -52.5 -131.5t-176.5 -41.5q-18 0 -40 2t-43.5 6.5t-42 10t-35.5 13.5v102z" />
    <glyph glyph-name="afii10074" unicode="&#x438;" horiz-adv-x="630" 
d="M96 530h83v-258q0 -47 -2 -90.5t-4 -63.5l4 -2q19 32 40 62.5t43 60.5l201 291h73v-530h-83v214q0 29 0.5 58.5t1.5 56.5t2 49.5t2 36.5l-3 1q-13 -23 -34 -57.5t-44 -64.5l-206 -294h-74v530z" />
    <glyph glyph-name="afii10075" unicode="&#x439;" horiz-adv-x="630" 
d="M96 530h83v-258q0 -47 -2 -90.5t-4 -63.5l4 -2q19 32 40 62.5t43 60.5l201 291h73v-530h-83v214q0 29 0.5 58.5t1.5 56.5t2 49.5t2 36.5l-3 1q-13 -23 -34 -57.5t-44 -64.5l-206 -294h-74v530zM237 760q4 -38 20.5 -60t58.5 -22t59.5 22t21.5 60h74q-8 -74 -49.5 -107
t-105.5 -33t-105.5 33t-49.5 107h76z" />
    <glyph glyph-name="afii10076" unicode="&#x43a;" horiz-adv-x="580" 
d="M266 240h-87v-240h-83v530h83v-225h88l177 225h95l-202 -252l223 -278h-101z" />
    <glyph glyph-name="afii10077" unicode="&#x43b;" horiz-adv-x="606" 
d="M30 93q12 -4 26 -4q10 0 21 3t21 14.5t19.5 35t17 64.5t12.5 103.5t8 151.5l2 69h352v-530h-83v450h-194l-1 -32q-5 -141 -19.5 -225.5t-36 -130t-48.5 -59.5t-57 -14q-12 0 -20.5 0.5t-19.5 4.5v99z" />
    <glyph glyph-name="afii10078" unicode="&#x43c;" horiz-adv-x="736" 
d="M96 530h110l168 -315l161 315h105v-530h-83v279q0 45 4 89.5t8 89.5q-23 -51 -43 -95.5t-37 -74.5l-92 -160h-57l-87 159q-17 32 -39 76t-46 94q4 -45 7.5 -90.5t3.5 -91.5v-275h-83v530z" />
    <glyph glyph-name="afii10079" unicode="&#x43d;" horiz-adv-x="622" 
d="M96 530h83v-222h264v222h83v-530h-83v229h-264v-229h-83v530z" />
    <glyph glyph-name="afii10080" unicode="&#x43e;" horiz-adv-x="615" 
d="M60 267q0 69 19 120t53 85t81.5 51t104.5 17q54 0 98 -16t74.5 -50t47.5 -86t17 -124q0 -75 -19.5 -127t-53 -85t-78.5 -48t-97 -15q-119 0 -183 73t-64 205zM143 264q0 -95 43.5 -147.5t127.5 -52.5q74 0 116 47.5t42 152.5v3q0 101 -42.5 150t-122.5 49
q-79 0 -121.5 -50.5t-42.5 -148.5v-3z" />
    <glyph glyph-name="afii10081" unicode="&#x43f;" horiz-adv-x="615" 
d="M96 530h422v-530h-83v452h-256v-452h-83v530z" />
    <glyph glyph-name="afii10082" unicode="&#x440;" horiz-adv-x="626" 
d="M95 530h76l5 -93q42 103 185 103q103 0 154 -61.5t51 -202.5q0 -77 -14 -131.5t-41.5 -89t-68.5 -50.5t-95 -16q-68 0 -108.5 24.5t-60.5 57.5v-251h-83v710zM178 213q0 -69 39.5 -109t112.5 -40q42 0 71 11t47 36t26.5 64t8.5 96q0 54 -10 91.5t-29 60t-47.5 32.5
t-65.5 10q-39 0 -68 -11t-48 -30.5t-28 -46.5t-9 -58v-106z" />
    <glyph glyph-name="afii10083" unicode="&#x441;" horiz-adv-x="524" 
d="M453 419q-24 17 -62 29.5t-83 12.5q-36 0 -66 -9.5t-51.5 -31.5t-33 -59.5t-11.5 -92.5q0 -56 12 -94t35.5 -61.5t57 -33.5t77.5 -10q41 0 78.5 12t63.5 34v-90q-21 -17 -60.5 -26.5t-93.5 -9.5q-60 0 -107.5 14.5t-80.5 48.5t-50.5 88.5t-17.5 134.5q0 137 64.5 201
t194.5 64q49 0 80 -7.5t54 -19.5v-94z" />
    <glyph glyph-name="afii10084" unicode="&#x442;" horiz-adv-x="462" 
d="M190 452h-172v78h426v-78h-171v-452h-83v452z" />
    <glyph glyph-name="afii10085" unicode="&#x443;" horiz-adv-x="532" 
d="M154 -108q14 0 25.5 3.5t22 14.5t21 32t22.5 56l-215 532h96l162 -423l135 423h89l-183 -512q-26 -74 -49.5 -115t-44.5 -61t-41 -24.5t-39 -4.5q-32 0 -47 8v83q21 -12 46 -12z" />
    <glyph glyph-name="afii10086" unicode="&#x444;" horiz-adv-x="751" 
d="M334 -180v178q-14 -5 -26.5 -6t-29.5 -1q-57 0 -98 14.5t-67.5 47.5t-39.5 85t-13 127q0 65 12 116t39.5 85.5t72.5 52.5t111 18q24 0 39 -4v217h83v-219q14 4 26 5.5t30 1.5q57 0 98 -14.5t67.5 -46.5t39.5 -84.5t13 -127.5q0 -145 -55.5 -209.5t-175.5 -64.5
q-20 0 -43 4v-175h-83zM288 66h30.5t15.5 2v391q-8 2 -14.5 3t-17.5 1q-82 0 -120.5 -43.5t-38.5 -146.5q0 -108 32.5 -157.5t112.5 -49.5zM417 69q11 -2 16 -2.5t16 -0.5q42 0 72 10t49.5 32.5t28.5 59t9 89.5q0 61 -8.5 101t-27.5 63t-48 32.5t-70 9.5q-15 0 -22 -1
t-15 -3v-390z" />
    <glyph glyph-name="afii10087" unicode="&#x445;" horiz-adv-x="527" 
d="M211 271l-174 259h102l127 -195l127 195h97l-176 -252l188 -278h-102l-139 215l-139 -215h-97z" />
    <glyph glyph-name="afii10088" unicode="&#x446;" horiz-adv-x="625" 
d="M96 530h83v-451h254v451h83v-451h77v-209h-78v130h-419v530z" />
    <glyph glyph-name="afii10089" unicode="&#x447;" horiz-adv-x="574" 
d="M65 530h82v-171q0 -108 123 -108q34 0 66.5 6.5t58.5 17.5v255h83v-530h-83v205q-26 -14 -61.5 -21.5t-69.5 -7.5q-96 0 -147.5 41.5t-51.5 132.5v180z" />
    <glyph glyph-name="afii10090" unicode="&#x448;" horiz-adv-x="829" 
d="M96 530h83v-451h194v451h83v-451h194v451h83v-530h-637v530z" />
    <glyph glyph-name="afii10091" unicode="&#x449;" horiz-adv-x="842" 
d="M96 530h83v-451h194v451h83v-451h194v451h83v-451h77v-209h-78v130h-636v530z" />
    <glyph glyph-name="afii10092" unicode="&#x44a;" horiz-adv-x="603" 
d="M149 452h-131v78h214v-175q23 2 46.5 3t52.5 1q57 0 99.5 -8.5t70 -29t41 -54t13.5 -82.5q0 -48 -12.5 -84t-41 -60t-75 -36t-114.5 -12q-48 0 -91.5 2t-71.5 5v452zM232 72q20 -3 39.5 -3.5t55.5 -0.5q42 0 69.5 6t44.5 19.5t24 35t7 53.5q0 30 -7 50.5t-26 33.5
t-52.5 19t-87.5 6q-16 0 -32 -1.5t-35 -3.5v-214z" />
    <glyph glyph-name="afii10093" unicode="&#x44b;" horiz-adv-x="735" 
d="M179 355q20 2 37 3t36 1q63 0 107 -10.5t71 -32t39 -54t12 -77.5q0 -40 -12 -75t-40.5 -61t-75.5 -41t-117 -15q-35 0 -70 1.5t-70 5.5v530h83v-175zM179 71q18 -2 30.5 -2.5t35.5 -0.5q45 0 74.5 8t47 23t24.5 36t7 47q0 24 -6 44t-23.5 34.5t-49 22.5t-83.5 8
q-16 0 -28.5 -1.5t-28.5 -3.5v-215zM556 530h83v-530h-83v530z" />
    <glyph glyph-name="afii10094" unicode="&#x44c;" horiz-adv-x="550" 
d="M96 530h83v-175q23 2 46.5 3t52.5 1q57 0 99.5 -8.5t70 -29t41 -54t13.5 -82.5q0 -48 -12.5 -84t-41 -60t-75 -36t-114.5 -12q-48 0 -91.5 2t-71.5 5v530zM179 72q20 -3 39.5 -3.5t55.5 -0.5q42 0 69.5 6t44.5 19.5t24 35t7 53.5q0 30 -7 50.5t-26 33.5t-52.5 19t-87.5 6
q-16 0 -32 -1.5t-35 -3.5v-214z" />
    <glyph glyph-name="afii10095" unicode="&#x44d;" horiz-adv-x="556" 
d="M236 64q42 0 74 9t53.5 29t34 53t15.5 80h-258v65h258q-7 91 -53 128.5t-134 37.5q-53 0 -89 -14.5t-70 -39.5v97q29 14 71.5 22.5t90.5 8.5q63 0 113 -15t84 -47t52 -82.5t18 -121.5q0 -146 -63.5 -215.5t-193.5 -69.5q-66 0 -107 11.5t-67 24.5v98q13 -10 31 -20.5
t40 -19t47.5 -14t52.5 -5.5z" />
    <glyph glyph-name="afii10096" unicode="&#x44e;" horiz-adv-x="827" 
d="M531 540q57 0 100.5 -14.5t73.5 -47.5t45.5 -85.5t15.5 -127.5q0 -77 -16 -129.5t-47 -85t-76.5 -47t-104.5 -14.5q-62 0 -106 17t-73 48.5t-44 77.5t-17 103h-103v-235h-83v530h83v-220h105q9 114 67 172t180 58zM365 265q0 -106 40 -153t120 -47q36 0 64.5 9t49 31.5
t31 60.5t10.5 96q0 59 -8.5 98t-28 62.5t-50 33t-73.5 9.5q-42 0 -71 -10.5t-48 -34t-27.5 -61.5t-8.5 -94z" />
    <glyph glyph-name="afii10097" unicode="&#x44f;" horiz-adv-x="581" 
d="M187 204q-32 5 -53 19.5t-33 35t-17 47t-5 55.5q0 42 11.5 74.5t39.5 54.5t74 33.5t114 11.5q44 0 91 -1.5t76 -5.5v-528h-83v190h-130l-136 -190h-96zM402 458q-19 2 -38 3t-53 1q-45 0 -74 -5.5t-45.5 -17.5t-23 -31.5t-6.5 -48.5q0 -60 29.5 -82t99.5 -22h111v203z
" />
    <glyph glyph-name="afii10071" unicode="&#x451;" horiz-adv-x="582" 
d="M144 235q0 -86 44.5 -128.5t132.5 -42.5q51 0 92 17.5t70 40.5v-86q-20 -14 -62 -30.5t-102 -16.5q-64 0 -112.5 15.5t-81 50t-49 88t-16.5 130.5q0 131 61 199t178 68q61 0 104 -18t69 -51t38 -79.5t12 -102.5v-54h-378zM298 465q-73 0 -113.5 -38.5t-40.5 -119.5h295
q0 81 -33.5 119.5t-107.5 38.5zM162 690q0 52 52 52t52 -52t-52 -52t-52 52zM338 690q0 52 52 52t52 -52t-52 -52t-52 52z" />
    <glyph glyph-name="afii10099" unicode="&#x452;" horiz-adv-x="579" 
d="M179 591v-183q19 45 62 68.5t111 23.5q94 0 137.5 -42t43.5 -140v-61q0 -64 -7 -126.5t-26 -118.5t-52.5 -103.5t-85.5 -80.5l-53 41q43 30 70.5 66t43.5 81t21.5 101t5.5 127v63q0 64 -29.5 91.5t-99.5 27.5q-71 0 -106.5 -34t-35.5 -113v-279h-83v591h-63v64h63v95h83
v-95h222v-64h-222z" />
    <glyph glyph-name="afii10100" unicode="&#x453;" horiz-adv-x="461" 
d="M96 530h335v-78h-252v-452h-83v530zM321 755h114l-116 -130h-74z" />
    <glyph glyph-name="afii10101" unicode="&#x454;" horiz-adv-x="556" 
d="M320.029 64q-41.9951 0 -73.9912 9t-53.4941 29q-21.4971 20 -33.9951 53q-12.499 33 -15.498 80h257.968v65h-257.968q6.99902 91 52.9932 128.5t133.983 37.5q52.9941 0 88.9893 -14.5q35.9961 -14.5 69.9912 -39.5v97q-28.9961 14 -71.4912 22.5
q-42.4941 8.5 -90.4883 8.5q-62.9932 0 -112.986 -15q-49.9941 -15 -83.9902 -47q-33.9951 -32 -51.9932 -82.5t-17.998 -121.5q0 -146 63.4922 -215.5t193.477 -69.5q65.9922 0 106.986 11.5q40.9951 11.5 66.9922 24.5v98q-12.998 -10 -30.9961 -20.5t-39.9951 -19
t-47.4941 -14t-52.4932 -5.5z" />
    <glyph glyph-name="afii10102" unicode="&#x455;" horiz-adv-x="507" 
d="M419 410q-29 25 -62.5 40.5t-82.5 15.5q-60 0 -86 -16.5t-26 -54.5q0 -30 20.5 -46t52 -26.5t67.5 -19t67.5 -25t52 -44.5t20.5 -77q0 -85 -49 -126.5t-146 -41.5q-63 0 -106 11t-76 31v103q31 -31 81 -50.5t101 -19.5q112 0 112 89q0 30 -20.5 46t-52 26t-67.5 19
t-67.5 25.5t-52 44t-20.5 75.5q0 35 10 63t32.5 47.5t59 30t89.5 10.5q55 0 90.5 -10t58.5 -21v-99z" />
    <glyph glyph-name="afii10103" unicode="&#x456;" horiz-adv-x="303" 
d="M110 530h83v-530h-83v530zM100 690q0 52 52 52t52 -52t-52 -52t-52 52z" />
    <glyph glyph-name="afii10104" unicode="&#x457;" horiz-adv-x="303" 
d="M110 530h83v-530h-83v530zM12 690q0 52 52 52t52 -52t-52 -52t-52 52zM188 690q0 52 52 52t52 -52t-52 -52t-52 52z" />
    <glyph glyph-name="afii10105" unicode="&#x458;" horiz-adv-x="303" 
d="M110 530h83v-525q0 -94 -34.5 -142.5t-120.5 -48.5q-26 0 -47 4t-32 9v87q17 -11 37.5 -16t41.5 -5q38 0 55 22.5t17 76.5v538zM100 690q0 52 52 52t52 -52t-52 -52t-52 52z" />
    <glyph glyph-name="afii10106" unicode="&#x459;" horiz-adv-x="880" 
d="M30 93q12 -4 26 -4q10 0 21 3t21 14.5t19.5 34.5t17 64.5t12.5 103.5t8 151l2 70h352v-175q23 2 46.5 3t52.5 1q57 0 99.5 -8.5t70 -29t41 -54t13.5 -82.5q0 -48 -12.5 -84t-41 -60t-75 -36t-114.5 -12q-48 0 -91.5 2t-71.5 5v449h-194l-1 -32q-4 -94 -11.5 -162
t-19 -115.5t-26 -77t-31 -46t-35 -22t-38.5 -5.5q-12 0 -20.5 0.5t-19.5 4.5v99zM509 72q20 -3 39.5 -3.5t55.5 -0.5q42 0 69.5 6t44.5 19.5t24 35t7 53.5q0 30 -7 50.5t-26 33.5t-52.5 19t-87.5 6q-16 0 -32 -1.5t-35 -3.5v-214z" />
    <glyph glyph-name="afii10107" unicode="&#x45a;" horiz-adv-x="897" 
d="M96 530h83v-222h264v222h83v-175q23 2 46.5 3t52.5 1q57 0 99.5 -8.5t70 -29t41 -54t13.5 -82.5q0 -48 -12.5 -84t-41 -60t-75 -36t-114.5 -12q-48 0 -91.5 2t-71.5 5v229h-264v-229h-83v530zM526 72q20 -3 39.5 -3.5t55.5 -0.5q42 0 69.5 6t44.5 19.5t24 35t7 53.5
q0 30 -7 50.5t-26 33.5t-52.5 19t-87.5 6q-16 0 -32 -1.5t-35 -3.5v-214z" />
    <glyph glyph-name="afii10108" unicode="&#x45b;" horiz-adv-x="622" 
d="M96 591h-63v64h63v95h83v-95h222v-64h-222v-183q19 45 62 68.5t111 23.5q94 0 137.5 -42t43.5 -140v-318h-83v307q0 64 -29.5 91.5t-99.5 27.5q-71 0 -106.5 -34t-35.5 -113v-279h-83v591z" />
    <glyph glyph-name="afii10109" unicode="&#x45c;" horiz-adv-x="580" 
d="M266 240h-87v-240h-83v530h83v-225h88l177 225h95l-202 -252l223 -278h-101zM350 755h114l-116 -130h-74z" />
    <glyph glyph-name="afii10110" unicode="&#x45e;" horiz-adv-x="532" 
d="M154 -108q14 0 25.5 3.5t22 14.5t21 32t22.5 56l-215 532h96l162 -423l135 423h89l-183 -512q-26 -74 -49.5 -115t-44.5 -61t-41 -24.5t-39 -4.5q-32 0 -47 8v83q21 -12 46 -12zM193 760q4 -38 20.5 -60t58.5 -22t59.5 22t21.5 60h74q-8 -74 -49.5 -107t-105.5 -33
t-105.5 33t-49.5 107h76z" />
    <glyph glyph-name="afii10193" unicode="&#x45f;" horiz-adv-x="612" 
d="M267 0h-171v530h83v-451h254v451h83v-530h-171v-130h-78v130z" />
    <glyph glyph-name="afii10050" unicode="&#x490;" horiz-adv-x="557" 
d="M112 700h330v130h85v-210h-325v-620h-90v700z" />
    <glyph glyph-name="afii10098" unicode="&#x491;" horiz-adv-x="461" 
d="M96 530h257v130h78v-208h-252v-452h-83v530z" />
    <glyph glyph-name="uni0492" unicode="&#x492;" horiz-adv-x="587" 
d="M46 415h96v285h415v-80h-325v-205h182v-84h-182v-331h-90v331h-96v84z" />
    <glyph glyph-name="uni0493" unicode="&#x493;" horiz-adv-x="471" 
d="M106 233h-71v74h71v223h335v-78h-252v-145h147v-74h-147v-233h-83v233z" />
    <glyph glyph-name="uni049A" unicode="&#x49a;" horiz-adv-x="691" 
d="M112 700h90v-308h52l269 308h116l-307 -339l268 -281h78v-210h-84v130h-34l-305 322h-53v-322h-90v700z" />
    <glyph glyph-name="uni049B" unicode="&#x49b;" horiz-adv-x="580" 
d="M266 240h-87v-240h-83v530h83v-225h88l177 225h95l-202 -252l159 -199h64v-209h-77v130h-24z" />
    <glyph glyph-name="uni04A2" unicode="&#x4a2;" horiz-adv-x="803" 
d="M112 700h90v-300h386v300h90v-620h90v-210h-84v130h-96v320h-386v-320h-90v700z" />
    <glyph glyph-name="uni04A3" unicode="&#x4a3;" horiz-adv-x="635" 
d="M96 530h83v-222h264v222h83v-451h77v-209h-77v130h-83v229h-264v-229h-83v530z" />
    <glyph glyph-name="uni04AE" unicode="&#x4ae;" horiz-adv-x="623" 
d="M267 267l-247 433h99l197 -347l190 347h96l-245 -432v-268h-90v267z" />
    <glyph glyph-name="uni04AF" unicode="&#x4af;" horiz-adv-x="514" 
d="M30 530h90l139 -413l138 413h87l-185 -535v-205h-84v204z" />
    <glyph glyph-name="uni04B0" unicode="&#x4b0;" horiz-adv-x="623" 
d="M110 305h135l-225 395h99l197 -347l190 347h96l-224 -395h135v-78h-156v-227h-90v227h-157v78z" />
    <glyph glyph-name="uni04B1" unicode="&#x4b1;" horiz-adv-x="514" 
d="M299 -74v-136h-84v136h-130v74h128l-183 530h90l139 -413l138 413h87l-184 -530h129v-74h-130z" />
    <glyph glyph-name="uni04BA" unicode="&#x4ba;" horiz-adv-x="656" 
d="M117 700h90v-286q27 17 72.5 30t107.5 13q103 0 154.5 -42.5t51.5 -121.5v-293h-90v251q0 73 -33.5 100t-99.5 27q-49 0 -91 -9.5t-72 -29.5v-339h-90v700z" />
    <glyph glyph-name="uni04BB" unicode="&#x4bb;" horiz-adv-x="622" 
d="M96 750h83v-302q19 45 62 68.5t111 23.5q94 0 137.5 -42t43.5 -140v-358h-83v347q0 64 -29.5 91.5t-99.5 27.5q-71 0 -106.5 -34t-35.5 -113v-319h-83v750z" />
    <glyph glyph-name="uni04C0" unicode="&#x4c0;" horiz-adv-x="324" 
d="M117 700h90v-700h-90v700z" />
    <glyph glyph-name="uni04CF" unicode="&#x4cf;" horiz-adv-x="275" 
d="M96 0v750h83v-750h-83z" />
    <glyph glyph-name="uni04D8" unicode="&#x4d8;" horiz-adv-x="699" 
d="M532 373q0 34 -5 77.5t-27 82.5t-67 65.5t-125 26.5q-53 0 -100.5 -7t-86.5 -21v84q44 12 90 20t106 8q162 0 237 -94t75 -268q0 -63 -13 -126.5t-45.5 -114.5t-88 -83t-139.5 -32q-63 0 -114.5 19t-88 59.5t-56 104.5t-19.5 155v44h467zM162 289q0 -112 43.5 -163
t137.5 -51q33 0 65.5 9.5t59 34t44 66.5t20.5 106h-370v-2z" />
    <glyph glyph-name="afii10846" unicode="&#x4d9;" horiz-adv-x="582" 
d="M438 294q0 86 -44.5 128.5t-132.5 42.5q-51 0 -92 -17.5t-70 -40.5v86q20 14 62 30.5t102 16.5q64 0 112.5 -15.5t81 -50t49 -88.5t16.5 -130q0 -131 -61 -199t-178 -68q-62 0 -104.5 18t-68.5 51t-38 79.5t-12 102.5v54h378zM284 64q73 0 113.5 38.5t40.5 119.5h-295
q0 -81 33.5 -119.5t107.5 -38.5z" />
    <glyph glyph-name="uni04E8" unicode="&#x4e8;" horiz-adv-x="788" 
d="M70 350q0 185 82 272.5t253 87.5q160 0 236.5 -87.5t76.5 -272.5q0 -98 -22.5 -166t-64.5 -111.5t-102 -63t-136 -19.5q-69 0 -128.5 19t-102.5 62t-67.5 111.5t-24.5 167.5zM398 71q49 0 89 12.5t69 40.5t46 74t21 114h-458q4 -68 22.5 -114t49 -74t71.5 -40.5t90 -12.5
zM393 629q-107 0 -163 -57.5t-65 -175.5h457q-5 66 -22.5 110.5t-46.5 71.5t-69.5 39t-90.5 12z" />
    <glyph glyph-name="uni04E9" unicode="&#x4e9;" horiz-adv-x="615" 
d="M60 267q0 69 19 120t53 85t81.5 51t104.5 17q54 0 98 -16t74.5 -50t47.5 -86t17 -124q0 -75 -19.5 -127t-53 -85t-78.5 -48t-97 -15q-119 0 -183 73t-64 205zM314 64q68 0 108.5 39t47.5 127h-326q8 -79 51 -122.5t119 -43.5zM307 466q-72 0 -113.5 -41t-49.5 -121h326
q-8 82 -49.5 122t-113.5 40z" />
    <glyph glyph-name="uni1E9E" unicode="&#x1e9e;" horiz-adv-x="719" 
d="M112 480q0 61 18 104.5t49.5 71t74.5 40.5t94 13q26 0 55 -2.5t59.5 -11.5t61.5 -26t61 -47l-148 -205v-2q63 -5 103 -23t63.5 -45.5t32 -61.5t8.5 -69q0 -49 -15.5 -90t-46.5 -71t-77.5 -47t-107.5 -17q-40 0 -72 7v85q21 -5 38.5 -6.5t29.5 -1.5q37 0 66 7t49 23
t30.5 43t10.5 68q0 34 -9.5 59t-32 41t-58.5 24t-88 8h-27v48l139 200q-20 13 -51 21t-73 8q-41 0 -69 -11.5t-45 -31.5t-25 -46t-8 -56v-480h-90v480z" />
    <glyph glyph-name="figuredash" unicode="&#x2012;" horiz-adv-x="707" 
d="M120 396h467v-84h-467v84z" />
    <glyph glyph-name="endash" unicode="&#x2013;" horiz-adv-x="707" 
d="M120 337h467v-84h-467v84z" />
    <glyph glyph-name="emdash" unicode="&#x2014;" horiz-adv-x="877" 
d="M120 337h637v-84h-637v84z" />
    <glyph glyph-name="quoteleft" unicode="&#x2018;" horiz-adv-x="364" 
d="M304 680q-51 -5 -81.5 -31t-38.5 -62q33 0 50.5 -14t17.5 -49q0 -27 -16 -46t-49 -19q-38 0 -57.5 24t-19.5 69q0 43 14 76t36 56t47 36.5t48 18.5l49 -59v0z" />
    <glyph glyph-name="quoteright" unicode="&#x2019;" horiz-adv-x="364" 
d="M60 518q51 5 81.5 31t38.5 62q-33 0 -50.5 14t-17.5 49q0 27 16 46t49 19q38 0 57.5 -24t19.5 -69q0 -43 -14 -76t-36 -56t-47.5 -37t-47.5 -18l-49 59v0z" />
    <glyph glyph-name="quotesinglbase" unicode="&#x201a;" horiz-adv-x="364" 
d="M60 -102q51 5 81.5 31t38.5 62q-33 0 -50.5 14t-17.5 49q0 27 16 46t49 19q38 0 57.5 -24t19.5 -69q0 -43 -14 -76t-36 -56t-47.5 -37t-47.5 -18l-49 59v0z" />
    <glyph glyph-name="quotedblleft" unicode="&#x201c;" horiz-adv-x="572" 
d="M304 680q-51 -5 -81.5 -31t-38.5 -62q33 0 50.5 -14t17.5 -49q0 -27 -16 -46t-49 -19q-38 0 -57.5 24t-19.5 69q0 43 14 76t36 56t47 36.5t48 18.5l49 -59v0zM512 680q-51 -5 -81.5 -31t-38.5 -62q33 0 50.5 -14t17.5 -49q0 -27 -16 -46t-49 -19q-38 0 -57.5 24t-19.5 69
q0 43 14 76t36 56t47 36.5t48 18.5l49 -59v0z" />
    <glyph glyph-name="quotedblright" unicode="&#x201d;" horiz-adv-x="572" 
d="M60 518q51 5 81.5 31t38.5 62q-33 0 -50.5 14t-17.5 49q0 27 16 46t49 19q38 0 57.5 -24t19.5 -69q0 -43 -14 -76t-36 -56t-47.5 -37t-47.5 -18l-49 59v0zM268 518q51 5 81.5 31t38.5 62q-33 0 -50.5 14t-17.5 49q0 27 16 46t49 19q38 0 57.5 -24t19.5 -69q0 -43 -14 -76
t-36 -56t-47.5 -37t-47.5 -18l-49 59v0z" />
    <glyph glyph-name="quotedblbase" unicode="&#x201e;" horiz-adv-x="571" 
d="M267 -102q51 5 81.5 31t38.5 62q-33 0 -50.5 14t-17.5 49q0 27 16 46t49 19q38 0 57.5 -24t19.5 -69q0 -43 -14 -76t-36 -56t-47.5 -37t-47.5 -18l-49 59v0zM60 -102q51 5 81.5 31t38.5 62q-33 0 -50.5 14t-17.5 49q0 27 16 46t49 19q38 0 57.5 -24t19.5 -69
q0 -43 -14 -76t-36 -56t-47.5 -37t-47.5 -18l-49 59v0z" />
    <glyph glyph-name="dagger" unicode="&#x2020;" horiz-adv-x="510" 
d="M211 457h-155v73h155v170h89v-170h155v-73h-155v-457h-89v457z" />
    <glyph glyph-name="daggerdbl" unicode="&#x2021;" horiz-adv-x="510" 
d="M56 244h155v213h-155v73h155v170h89v-170h155v-73h-155v-213h155v-74h-155v-170h-89v170h-155v74z" />
    <glyph glyph-name="bullet" unicode="&#x2022;" horiz-adv-x="400" 
d="M100 356q0 21 5 39t16.5 31.5t30.5 21.5t48 8t48.5 -8t31 -21.5t16.5 -31.5t5 -39q0 -20 -5 -37.5t-16.5 -31t-31 -21.5t-48.5 -8t-48 8t-30.5 21.5t-16.5 31t-5 37.5z" />
    <glyph glyph-name="ellipsis" unicode="&#x2026;" horiz-adv-x="1033" 
d="M110 54q0 27 13.5 46t51.5 19t52 -19t14 -46q0 -26 -14 -45t-52 -19t-51.5 19t-13.5 45zM451 54q0 27 13.5 46t51.5 19t52 -19t14 -46q0 -26 -14 -45t-52 -19t-51.5 19t-13.5 45zM792 54q0 27 13.5 46t51.5 19t52 -19t14 -46q0 -26 -14 -45t-52 -19t-51.5 19t-13.5 45z
" />
    <glyph glyph-name="perthousand" unicode="&#x2030;" horiz-adv-x="1251" 
d="M650 700h87l-504 -700h-90zM470 147q0 78 47 120.5t131 42.5q73 0 118 -41t45 -122q0 -79 -48 -122t-129 -43q-78 0 -121 43t-43 122zM542 147q0 -43 26.5 -68t74.5 -25q46 0 71.5 23t25.5 70q0 44 -24 67.5t-75 23.5t-75 -23.5t-24 -67.5zM860 147q0 78 47 120.5
t131 42.5q73 0 118 -41t45 -122q0 -79 -48 -122t-129 -43q-78 0 -121 43t-43 122zM932 147q0 -43 26.5 -68t74.5 -25q46 0 71.5 23t25.5 70q0 44 -24 67.5t-75 23.5t-75 -23.5t-24 -67.5zM60 547q0 78 47 120.5t131 42.5q73 0 118 -41t45 -122q0 -79 -48 -122t-129 -43
q-78 0 -121 43t-43 122zM132 547q0 -43 26.5 -68t74.5 -25q46 0 71.5 23t25.5 70q0 44 -24 67.5t-75 23.5t-75 -23.5t-24 -67.5z" />
    <glyph glyph-name="guilsinglleft" unicode="&#x2039;" horiz-adv-x="371" 
d="M60 268l141 222h89l-140 -220l141 -220h-93z" />
    <glyph glyph-name="guilsinglright" unicode="&#x203a;" horiz-adv-x="371" 
d="M220 270l-140 220h93l138 -218l-142 -222h-89z" />
    <glyph glyph-name="fraction" unicode="&#x2044;" horiz-adv-x="334" 
d="M410 700h90l-574 -700h-93z" />
    <glyph glyph-name="uni2070" unicode="&#x2070;" horiz-adv-x="450" 
d="M37 592q0 60 12.5 101t36.5 67t59 37.5t79 11.5q48 0 83.5 -11.5t59 -37.5t35 -67t11.5 -101q0 -61 -12.5 -103t-36.5 -67.5t-59 -36.5t-80 -11q-93 0 -140.5 50t-47.5 168zM119 592q0 -86 29 -119t80 -33q50 0 75.5 33.5t25.5 118.5q0 43 -6.5 72.5t-20 46.5t-33 24.5
t-45.5 7.5q-24 0 -43 -7.5t-33 -24.5t-21.5 -46.5t-7.5 -72.5z" />
    <glyph glyph-name="uni2074" unicode="&#x2074;" horiz-adv-x="450" 
d="M18 533l248 267h95v-263h55v-68h-55v-87h-75v87h-268v64zM286 720h-1l-171 -183h172v183z" />
    <glyph glyph-name="uni2075" unicode="&#x2075;" horiz-adv-x="450" 
d="M81 800h299v-69h-239l-4 -82q21 1 45.5 2t60.5 1q75 0 114.5 -33t39.5 -97q0 -70 -46.5 -109t-129.5 -39q-35 0 -74 5t-74 13v71q24 -7 43 -11t35.5 -6t33 -2.5t34.5 -0.5q49 0 72.5 20t23.5 54q0 17 -5 30t-17 22t-32.5 13.5t-52.5 4.5h-35.5t-31.5 -0.5t-33 -1
t-38 -1.5z" />
    <glyph glyph-name="uni2076" unicode="&#x2076;" horiz-adv-x="450" 
d="M225 374q-58 0 -95 16.5t-58 44.5t-28.5 65t-7.5 77q0 49 10 91.5t34 73.5t63.5 49t98.5 18q64 0 122 -13v-69q-32 9 -63 11t-56 2q-27 0 -51.5 -6.5t-43.5 -22t-30 -41.5t-11 -64q23 20 58.5 34.5t75.5 14.5q35 0 65 -7t52 -23t34.5 -42t12.5 -64q0 -35 -13.5 -62
t-38 -45.5t-58 -28t-72.5 -9.5zM115 546q0 -51 28 -79.5t84 -28.5q40 0 69.5 20t29.5 60q0 35 -26 53t-68 18q-29 0 -60 -10t-57 -33z" />
    <glyph glyph-name="uni2077" unicode="&#x2077;" horiz-adv-x="450" 
d="M317 731h-272v69h360v-54l-201 -364h-83z" />
    <glyph glyph-name="uni2078" unicode="&#x2078;" horiz-adv-x="450" 
d="M225 374q-41 0 -75.5 7.5t-59.5 22.5t-39 38.5t-14 55.5q0 41 23.5 67t68.5 36q-35 9 -56.5 34.5t-21.5 59.5q0 57 46.5 85.5t127.5 28.5t127.5 -28.5t46.5 -85.5q0 -34 -21.5 -59.5t-56.5 -34.5q45 -10 68.5 -36t23.5 -67q0 -32 -14 -55.5t-39 -38.5t-59.5 -22.5
t-75.5 -7.5zM225 441q60 0 85.5 19t25.5 47q0 12 -4.5 23t-16.5 19.5t-34 13.5t-56 5q-35 0 -56.5 -5t-33.5 -13.5t-16.5 -19.5t-4.5 -23q0 -28 25.5 -47t85.5 -19zM225 742q-59 0 -80.5 -15.5t-21.5 -40.5q0 -23 21.5 -39t80.5 -16t80.5 16t21.5 39q0 25 -21.5 40.5
t-80.5 15.5z" />
    <glyph glyph-name="uni2079" unicode="&#x2079;" horiz-adv-x="450" 
d="M217 809q61 0 98.5 -16.5t58 -44.5t27 -65t6.5 -77q0 -49 -10 -91.5t-32.5 -73.5t-60.5 -49t-93 -18q-35 0 -71 4t-71 12v71q38 -11 74 -14.5t65 -3.5q25 0 48 6.5t40.5 22t28 41.5t10.5 64q-23 -26 -61.5 -41.5t-76.5 -15.5q-30 0 -57 8t-48 25t-33.5 44.5t-12.5 65.5
q0 35 13 62t36 46t54 28.5t68 9.5zM331 642q-1 19 -7.5 38t-20.5 33t-35.5 23t-52.5 9q-36 0 -62 -20t-26 -60t23 -60.5t60 -20.5q41 0 70.5 17t50.5 41z" />
    <glyph glyph-name="uni2080" unicode="&#x2080;" horiz-adv-x="450" 
d="M37 111q0 60 12.5 101t36.5 67t59 37.5t79 11.5q48 0 83.5 -11.5t59 -37.5t35 -67t11.5 -101q0 -61 -12.5 -103t-36.5 -67.5t-59 -36.5t-80 -11q-93 0 -140.5 50t-47.5 168zM119 111q0 -86 29 -119t80 -33q50 0 75.5 33.5t25.5 118.5q0 43 -6.5 72.5t-20 46.5t-33 24.5
t-45.5 7.5q-24 0 -43 -7.5t-33 -24.5t-21.5 -46.5t-7.5 -72.5z" />
    <glyph glyph-name="uni2081" unicode="&#x2081;" horiz-adv-x="450" 
d="M221 227l-122 -56l-32 63l173 85h64v-418h-83v326z" />
    <glyph glyph-name="uni2082" unicode="&#x2082;" horiz-adv-x="450" 
d="M53 -24l120 85q33 23 55.5 41t36.5 33.5t20.5 30t6.5 30.5q0 31 -24 47t-69 16q-35 0 -69.5 -6t-59.5 -21v73q33 13 65.5 18t71.5 5q35 0 66 -6t54 -19.5t36.5 -35.5t13.5 -55q0 -51 -37.5 -96.5t-121.5 -98.5l-69 -44v-1h234v-71h-330v75z" />
    <glyph glyph-name="uni2083" unicode="&#x2083;" horiz-adv-x="450" 
d="M136 148h79q47 0 69 12t22 44q0 29 -22 42t-76 13q-35 0 -70.5 -4.5t-61.5 -15.5v69q15 6 33.5 10t39.5 6.5t42 3t41 0.5q75 0 115 -28.5t40 -78.5q0 -44 -27 -65t-74 -34v-2q35 -5 57 -15.5t34 -24t16 -29.5t4 -31q0 -35 -16 -59t-41.5 -39t-58.5 -22t-66 -7
q-35 0 -73.5 3t-71.5 16v71q26 -13 62 -17t75 -4q56 0 81.5 14.5t25.5 44.5q0 39 -23 53.5t-69 14.5h-86v59z" />
    <glyph glyph-name="uni2084" unicode="&#x2084;" horiz-adv-x="450" 
d="M18 52l248 267h95v-263h55v-68h-55v-87h-75v87h-268v64zM286 239h-1l-171 -183h172v183z" />
    <glyph glyph-name="uni2085" unicode="&#x2085;" horiz-adv-x="450" 
d="M81 319h299v-69h-239l-4 -82q21 1 45.5 2t60.5 1q75 0 114.5 -33t39.5 -97q0 -70 -46.5 -109t-129.5 -39q-35 0 -74 5t-74 13v71q24 -7 43 -11t35.5 -6t33 -2.5t34.5 -0.5q49 0 72.5 20t23.5 54q0 17 -5 30t-17 22t-32.5 13.5t-52.5 4.5h-35.5t-31.5 -0.5t-33 -1
t-38 -1.5z" />
    <glyph glyph-name="uni2086" unicode="&#x2086;" horiz-adv-x="450" 
d="M225 -107q-58 0 -95 16.5t-58 44.5t-28.5 65t-7.5 77q0 49 10 91.5t34 73.5t63.5 49t98.5 18q64 0 122 -13v-69q-32 9 -63 11t-56 2q-27 0 -51.5 -6.5t-43.5 -22t-30 -41.5t-11 -64q23 20 58.5 34.5t75.5 14.5q35 0 65 -7t52 -23t34.5 -42t12.5 -64q0 -35 -13.5 -62
t-38 -45.5t-58 -28t-72.5 -9.5zM115 65q0 -51 28 -79.5t84 -28.5q40 0 69.5 20t29.5 60q0 35 -26 53t-68 18q-29 0 -60 -10t-57 -33z" />
    <glyph glyph-name="uni2087" unicode="&#x2087;" horiz-adv-x="450" 
d="M317 250h-272v69h360v-54l-201 -364h-83z" />
    <glyph glyph-name="uni2088" unicode="&#x2088;" horiz-adv-x="450" 
d="M225 -107q-41 0 -75.5 7.5t-59.5 22.5t-39 38.5t-14 55.5q0 41 23.5 67t68.5 36q-35 9 -56.5 34.5t-21.5 59.5q0 57 46.5 85.5t127.5 28.5t127.5 -28.5t46.5 -85.5q0 -34 -21.5 -59.5t-56.5 -34.5q45 -10 68.5 -36t23.5 -67q0 -32 -14 -55.5t-39 -38.5t-59.5 -22.5
t-75.5 -7.5zM225 -40q60 0 85.5 19t25.5 47q0 12 -4.5 23t-16.5 19.5t-34 13.5t-56 5q-35 0 -56.5 -5t-33.5 -13.5t-16.5 -19.5t-4.5 -23q0 -28 25.5 -47t85.5 -19zM225 261q-59 0 -80.5 -15.5t-21.5 -40.5q0 -23 21.5 -39t80.5 -16t80.5 16t21.5 39q0 25 -21.5 40.5
t-80.5 15.5z" />
    <glyph glyph-name="uni2089" unicode="&#x2089;" horiz-adv-x="450" 
d="M217 328q61 0 98.5 -16.5t58 -44.5t27 -65t6.5 -77q0 -49 -10 -91.5t-32.5 -73.5t-60.5 -49t-93 -18q-35 0 -71 4t-71 12v71q38 -11 74 -14.5t65 -3.5q25 0 48 6.5t40.5 22t28 41.5t10.5 64q-23 -26 -61.5 -41.5t-76.5 -15.5q-30 0 -57 8t-48 25t-33.5 44.5t-12.5 65.5
q0 35 13 62t36 46t54 28.5t68 9.5zM331 161q-1 19 -7.5 38t-20.5 33t-35.5 23t-52.5 9q-36 0 -62 -20t-26 -60t23 -60.5t60 -20.5q41 0 70.5 17t50.5 41z" />
    <glyph glyph-name="Euro" unicode="&#x20ac;" horiz-adv-x="580" 
d="M375 708q45 0 76 -6.5t53 -14.5v-90q-23 10 -53 20.5t-78 10.5q-78 0 -120.5 -35.5t-62.5 -108.5h270l-16 -78h-267q-1 -11 -1.5 -23t-0.5 -24v-32t2 -29h248l-14 -78h-220q26 -76 74.5 -111.5t114.5 -35.5q22 0 43.5 3t40.5 8t34.5 11t25.5 12v-81q-22 -13 -62 -23.5
t-84 -10.5q-106 0 -176.5 58t-96.5 170h-75l15 78h48q-1 13 -1.5 25.5t-0.5 26.5t1 28l2 28h-59l15 78h57q28 110 94 167t174 57z" />
    <glyph glyph-name="uni20B4" unicode="&#x20b4;" 
d="M110 318h114q5 6 16 16t23 21t22.5 21t16.5 16h-192v58h250q31 25 48 54t17 53q0 22 -9 35t-22.5 20.5t-29 10t-28.5 2.5q-26 0 -44 -1t-34.5 -3.5t-35 -7.5t-43.5 -12v84q22 7 44.5 11.5t43.5 7.5t39 4t31 1q62 0 98 -13.5t55 -34.5t24 -45t5 -45q0 -35 -16.5 -66.5
t-37.5 -54.5h75v-58h-125q-6 -6 -17 -16t-24 -21t-24 -21t-17 -16h207v-58h-258q-28 -23 -39 -50.5t-11 -50.5q0 -42 31 -63t98 -21q29 0 69 4.5t73 20.5v-85q-40 -14 -83.5 -19t-71.5 -5q-60 0 -100.5 14t-65 36.5t-35 50.5t-10.5 56q0 38 12.5 65t28.5 47h-68v58z" />
    <glyph glyph-name="uni20B8" unicode="&#x20b8;" 
d="M281 499h-194v74h477v-74h-193v-499h-90v499zM87 700h477v-74h-477v74z" />
    <glyph glyph-name="uni20BD" unicode="&#x20bd;" horiz-adv-x="590" 
d="M216 291v-87h197v-79h-197v-125h-86v125h-81v79h81v87h-81v79h81v325q15 1 36 3t45 4t49 3t49 1q48 0 89.5 -10.5t72 -33.5t48.5 -59t18 -87q0 -112 -59 -168.5t-185 -56.5h-77zM302 620q-26 0 -46.5 -1t-39.5 -3v-246h68q90 0 126.5 34t36.5 95q0 27 -6 49.5t-22 38.5
t-44.5 24.5t-72.5 8.5z" />
    <glyph glyph-name="afii61352" unicode="&#x2116;" horiz-adv-x="1061" 
d="M100 700h88l293 -454q17 -26 28.5 -47.5t22.5 -42.5q-2 24 -2.5 49t-0.5 56v439h90v-700h-90l-272 428q-17 27 -36 62t-37 69q2 -29 4 -57.5t2 -63.5v-438h-90v700zM723 313h267v-84h-267v84zM700 547q0 42 11 73t31 51t47.5 29.5t59.5 9.5t60 -9t48.5 -28.5t32.5 -50.5
t12 -75q0 -45 -11.5 -76.5t-31 -51t-46.5 -28.5t-58 -9q-35 0 -63.5 9t-48.5 28.5t-31.5 51t-11.5 76.5zM772 547q0 -54 23.5 -73.5t58.5 -19.5q15 0 29 3.5t24.5 14t17 28.5t6.5 47q0 51 -22 71t-57 20q-36 0 -58 -20t-22 -71z" />
    <glyph glyph-name="uni2120" unicode="&#x2120;" horiz-adv-x="841" 
d="M398 700h72l102 -181h1l101 181h72v-324h-61v234l-93 -159h-40l-92 159h-1v-234h-61v324zM314 629q-19 11 -43.5 18.5t-56.5 7.5q-46 0 -63.5 -9.5t-17.5 -28.5q0 -18 14.5 -27t37 -14.5t48 -10.5t48 -15t37 -28t14.5 -49q0 -52 -33 -78.5t-115 -26.5q-27 0 -58.5 4.5
t-55.5 14.5v66q19 -14 49.5 -22.5t64.5 -8.5q46 0 65 11t19 37q0 18 -14.5 27t-36.5 14.5t-48 11t-48 16t-36.5 28.5t-14.5 49q0 21 6.5 37.5t23 28.5t44.5 18.5t70 6.5q29 0 56 -5t44 -11v-62z" />
    <glyph glyph-name="trademark" unicode="&#x2122;" horiz-adv-x="806" 
d="M363 700h72l102 -181h1l101 181h72v-324h-61v234l-93 -159h-40l-92 159h-1v-234h-61v324zM140 643h-104v57h274v-57h-105v-267h-65v267z" />
    <glyph glyph-name="onethird" unicode="&#x2153;" horiz-adv-x="950" 
d="M685 700h90l-574 -700h-93zM654 250h79q47 0 69 12t22 44q0 29 -22 42t-76 13q-35 0 -70.5 -4.5t-61.5 -15.5v69q15 6 33.5 10t39.5 6.5t42 3t41 0.5q75 0 115 -28.5t40 -78.5q0 -44 -27 -65t-74 -34v-2q35 -5 57 -15.5t34 -24t16 -29.5t4 -31q0 -35 -16 -59t-41.5 -39
t-58.5 -22t-66 -7q-35 0 -73.5 3t-71.5 16v71q26 -13 62 -17t75 -4q56 0 81.5 14.5t25.5 44.5q0 39 -23 53.5t-69 14.5h-86v59zM200 609l-122 -56l-32 63l173 85h64v-418h-83v326z" />
    <glyph glyph-name="twothirds" unicode="&#x2154;" horiz-adv-x="950" 
d="M734 700h90l-574 -700h-93zM675 250h79q47 0 69 12t22 44q0 29 -22 42t-76 13q-35 0 -70.5 -4.5t-61.5 -15.5v69q15 6 33.5 10t39.5 6.5t42 3t41 0.5q75 0 115 -28.5t40 -78.5q0 -44 -27 -65t-74 -34v-2q35 -5 57 -15.5t34 -24t16 -29.5t4 -31q0 -35 -16 -59t-41.5 -39
t-58.5 -22t-66 -7q-35 0 -73.5 3t-71.5 16v71q26 -13 62 -17t75 -4q56 0 81.5 14.5t25.5 44.5q0 39 -23 53.5t-69 14.5h-86v59zM32 358l120 85q33 23 55.5 41t36.5 33.5t20.5 30t6.5 30.5q0 31 -24 47t-69 16q-35 0 -69.5 -6t-59.5 -21v73q33 13 65.5 18t71.5 5q35 0 66 -6
t54 -19.5t36.5 -35.5t13.5 -55q0 -51 -37.5 -96.5t-121.5 -98.5l-69 -44v-1h234v-71h-330v75z" />
    <glyph glyph-name="oneeighth" unicode="&#x215b;" horiz-adv-x="950" 
d="M678 700h90l-574 -700h-93zM733 -5q-41 0 -75.5 7.5t-59.5 22.5t-39 38.5t-14 55.5q0 41 23.5 67t68.5 36q-35 9 -56.5 34.5t-21.5 59.5q0 57 46.5 85.5t127.5 28.5t127.5 -28.5t46.5 -85.5q0 -34 -21.5 -59.5t-56.5 -34.5q45 -10 68.5 -36t23.5 -67q0 -32 -14 -55.5
t-39 -38.5t-59.5 -22.5t-75.5 -7.5zM733 62q60 0 85.5 19t25.5 47q0 12 -4.5 23t-16.5 19.5t-34 13.5t-56 5q-35 0 -56.5 -5t-33.5 -13.5t-16.5 -19.5t-4.5 -23q0 -28 25.5 -47t85.5 -19zM733 363q-59 0 -80.5 -15.5t-21.5 -40.5q0 -23 21.5 -39t80.5 -16t80.5 16t21.5 39
q0 25 -21.5 40.5t-80.5 15.5zM196 609l-122 -56l-32 63l173 85h64v-418h-83v326z" />
    <glyph glyph-name="threeeighths" unicode="&#x215c;" horiz-adv-x="950" 
d="M701 700h90l-574 -700h-93zM735 -5q-41 0 -75.5 7.5t-59.5 22.5t-39 38.5t-14 55.5q0 41 23.5 67t68.5 36q-35 9 -56.5 34.5t-21.5 59.5q0 57 46.5 85.5t127.5 28.5t127.5 -28.5t46.5 -85.5q0 -34 -21.5 -59.5t-56.5 -34.5q45 -10 68.5 -36t23.5 -67q0 -32 -14 -55.5
t-39 -38.5t-59.5 -22.5t-75.5 -7.5zM735 62q60 0 85.5 19t25.5 47q0 12 -4.5 23t-16.5 19.5t-34 13.5t-56 5q-35 0 -56.5 -5t-33.5 -13.5t-16.5 -19.5t-4.5 -23q0 -28 25.5 -47t85.5 -19zM735 363q-59 0 -80.5 -15.5t-21.5 -40.5q0 -23 21.5 -39t80.5 -16t80.5 16t21.5 39
q0 25 -21.5 40.5t-80.5 15.5zM106 530h79q47 0 69 12t22 44q0 29 -22 42t-76 13q-35 0 -70.5 -4.5t-61.5 -15.5v69q15 6 33.5 10t39.5 6.5t42 3t41 0.5q75 0 115 -28.5t40 -78.5q0 -44 -27 -65t-74 -34v-2q35 -5 57 -15.5t34 -24t16 -29.5t4 -31q0 -35 -16 -59t-41.5 -39
t-58.5 -22t-66 -7q-35 0 -73.5 3t-71.5 16v71q26 -13 62 -17t75 -4q56 0 81.5 14.5t25.5 44.5q0 39 -23 53.5t-69 14.5h-86v59z" />
    <glyph glyph-name="fiveeighths" unicode="&#x215d;" horiz-adv-x="950" 
d="M712 700h90l-574 -700h-93zM745 -5q-41 0 -75.5 7.5t-59.5 22.5t-39 38.5t-14 55.5q0 41 23.5 67t68.5 36q-35 9 -56.5 34.5t-21.5 59.5q0 57 46.5 85.5t127.5 28.5t127.5 -28.5t46.5 -85.5q0 -34 -21.5 -59.5t-56.5 -34.5q45 -10 68.5 -36t23.5 -67q0 -32 -14 -55.5
t-39 -38.5t-59.5 -22.5t-75.5 -7.5zM745 62q60 0 85.5 19t25.5 47q0 12 -4.5 23t-16.5 19.5t-34 13.5t-56 5q-35 0 -56.5 -5t-33.5 -13.5t-16.5 -19.5t-4.5 -23q0 -28 25.5 -47t85.5 -19zM745 363q-59 0 -80.5 -15.5t-21.5 -40.5q0 -23 21.5 -39t80.5 -16t80.5 16t21.5 39
q0 25 -21.5 40.5t-80.5 15.5zM67 701h299v-69h-239l-4 -82q21 1 45.5 2t60.5 1q75 0 114.5 -33t39.5 -97q0 -70 -46.5 -109t-129.5 -39q-35 0 -74 5t-74 13v71q24 -7 43 -11t35.5 -6t33 -2.5t34.5 -0.5q49 0 72.5 20t23.5 54q0 17 -5 30t-17 22t-32.5 13.5t-52.5 4.5h-35.5
t-31.5 -0.5t-33 -1t-38 -1.5z" />
    <glyph glyph-name="seveneighths" unicode="&#x215e;" horiz-adv-x="950" 
d="M665 700h90l-574 -700h-93zM738 -5q-41 0 -75.5 7.5t-59.5 22.5t-39 38.5t-14 55.5q0 41 23.5 67t68.5 36q-35 9 -56.5 34.5t-21.5 59.5q0 57 46.5 85.5t127.5 28.5t127.5 -28.5t46.5 -85.5q0 -34 -21.5 -59.5t-56.5 -34.5q45 -10 68.5 -36t23.5 -67q0 -32 -14 -55.5
t-39 -38.5t-59.5 -22.5t-75.5 -7.5zM738 62q60 0 85.5 19t25.5 47q0 12 -4.5 23t-16.5 19.5t-34 13.5t-56 5q-35 0 -56.5 -5t-33.5 -13.5t-16.5 -19.5t-4.5 -23q0 -28 25.5 -47t85.5 -19zM738 363q-59 0 -80.5 -15.5t-21.5 -40.5q0 -23 21.5 -39t80.5 -16t80.5 16t21.5 39
q0 25 -21.5 40.5t-80.5 15.5zM322 632h-272v69h360v-54l-201 -364h-83z" />
    <glyph glyph-name="minus" unicode="&#x2212;" horiz-adv-x="551" 
d="M63 363h425v-79h-425v79z" />
    <glyph glyph-name="infinity" unicode="&#x221e;" 
d="M326 296l-47 -50q-23 -27 -50.5 -36.5t-54.5 -9.5q-35 0 -59 13t-40 34t-23 47.5t-7 52.5q0 25 7 51.5t23 48.5t40 36t59 14q25 0 53 -10t53 -38l46 -51l49 57q20 23 47.5 32.5t54.5 9.5q34 0 58.5 -13t40 -34t23 -48t7.5 -55q0 -25 -7 -51t-23 -47.5t-40.5 -35
t-58.5 -13.5q-25 0 -53 9.5t-53 38.5zM413 299q25 -28 59 -28q33 0 48.5 22t15.5 54q0 37 -18.5 58t-44.5 21q-17 0 -34.5 -8.5t-34.5 -28.5l-34 -42zM236 397q-13 14 -26 21.5t-30 7.5q-18 0 -30.5 -7t-20 -18.5t-10.5 -25.5t-3 -28q0 -38 18 -57t44 -19q15 0 32.5 8
t34.5 26l37 42z" />
    <glyph glyph-name="approxequal" unicode="&#x2248;" 
d="M118 224q13 32 43.5 55t68.5 23q30 0 54.5 -10t47 -21.5t43.5 -21.5t44 -10q14 0 26.5 6.5t23 16.5t18.5 21.5t14 20.5l31 -64q-6 -16 -17.5 -30t-26 -25t-32 -17.5t-36.5 -6.5q-29 0 -53 10t-46.5 21.5t-43.5 21.5t-44 10q-14 0 -27 -7t-23.5 -17t-19 -21.5t-14.5 -20.5
zM118 375q13 32 43.5 55.5t68.5 23.5q30 0 54.5 -10t47 -21.5t43.5 -21.5t44 -10q14 0 26.5 7t23 17t18.5 21.5t14 20.5l31 -65q-6 -16 -17.5 -30t-26 -25t-32 -17.5t-36.5 -6.5q-29 0 -53.5 10t-46.5 21.5t-43.5 21.5t-43.5 10q-14 0 -27 -7t-23.5 -16.5t-19 -21
t-14.5 -20.5z" />
    <glyph glyph-name="notequal" unicode="&#x2260;" horiz-adv-x="600" 
d="M88 477h250l47 78h82l-47 -78h92v-79h-140l-81 -135h221v-79h-268l-55 -91h-83l55 91h-73v79h120l82 135h-202v79z" />
    <glyph glyph-name="lessequal" unicode="&#x2264;" horiz-adv-x="550" 
d="M68 150h415v-79h-415v79zM68 431l415 173v-84l-316 -123v-2l316 -123v-85l-415 174v70z" />
    <glyph glyph-name="greaterequal" unicode="&#x2265;" horiz-adv-x="550" 
d="M68 150h415v-79h-415v79zM68 272l315 123v2l-315 123v84l415 -173v-70l-415 -174v85z" />
    <glyph glyph-name="lozenge" unicode="&#x25ca;" 
d="M80 350l245 359l245 -359l-245 -359zM470 350l-145 205l-144 -205l144 -206z" />
    <glyph glyph-name="uniF406" unicode="&#xf406;" 
d="M222 910q11 -38 36 -59t67 -21t67 21t36 59l52 -16q-15 -62 -55 -93t-100 -31t-100 31t-55 93z" />
    <glyph glyph-name="uniF407" unicode="&#xf407;" 
d="M313 0h57l-7 -49q22 -1 41 -5t33.5 -14t22.5 -26.5t8 -41.5q0 -23 -9 -42t-25 -33.5t-38 -22.5t-48 -8q-31 0 -49 4.5t-32 11.5l8 54q16 -7 30 -10t34 -3q19 0 35.5 10t16.5 36q0 23 -17.5 32t-34.5 9q-8 0 -19.5 -0.5t-18.5 -2.5z" />
    <glyph glyph-name="uniF408" unicode="&#xf408;" 
d="M275 910h100l105 -140h-87l-68 88l-68 -88h-87z" />
    <glyph glyph-name="uniF409" unicode="&#xf409;" 
d="M269 -209q23 3 42.5 15.5t19.5 37.5q-5 -1 -9.5 -1.5t-9.5 -0.5q-23 0 -39 11t-16 32q0 19 17 33t49 14q29 0 48.5 -16.5t19.5 -53.5q0 -18 -6 -37.5t-20 -35.5t-36 -27.5t-55 -13.5l-5 43v0z" />
    <glyph glyph-name="uniF40A" unicode="&#xf40a;" horiz-adv-x="205" 
d="M91 700h94l-76 -190h-64z" />
    <glyph glyph-name="uniF40B" unicode="&#xf40b;" 
d="M271 840q0 26 14 40t40 14t40 -14t14 -40t-14 -40t-40 -14t-40 14t-14 40z" />
    <glyph glyph-name="uniF40C" unicode="&#xf40c;" 
d="M233 840q0 21 8 38t20.5 29t29 18.5t34.5 6.5t34.5 -6.5t29 -18.5t20.5 -29t8 -38t-8 -38t-20.5 -29t-29 -18.5t-34.5 -6.5t-34.5 6.5t-29 18.5t-20.5 29t-8 38zM281 840q0 -20 12 -32t32 -12t32 12t12 32t-12 32t-32 12t-32 -12t-12 -32z" />
    <glyph glyph-name="uniF40D" unicode="&#xf40d;" 
d="M170 794q2 50 26.5 78t62.5 28q21 0 37.5 -7.5t36.5 -18.5q17 -9 31 -15.5t25 -6.5t19 9.5t12 38.5l60 -15q-5 -51 -31 -78t-58 -27q-16 0 -30 5.5t-44 21.5q-20 10 -29 16t-24 6q-11 0 -19.5 -10t-13.5 -39z" />
    <glyph glyph-name="uniF40E" unicode="&#xf40e;" 
d="M426 5q-34 -26 -59 -57.5t-25 -73.5q0 -20 14 -32t40 -12q28 0 57 17v-60q-17 -8 -37 -13.5t-46 -5.5q-53 0 -79 24t-26 69q0 24 9.5 45t24.5 39.5t34 34.5t39 30z" />
    <glyph glyph-name="zero.tab" unicode="&#xf4e0;" 
d="M85 349q0 100 15.5 169t46.5 111t78 60.5t111 18.5q61 0 104.5 -20.5t71 -64t40.5 -111.5t13 -163q0 -105 -15.5 -174t-46 -110.5t-75.5 -58t-103 -16.5q-125 0 -182.5 88t-57.5 271zM173 349q0 -80 9.5 -134t29 -87t48.5 -47.5t69 -14.5t68 12.5t46 44t26 85.5t8 138
q0 87 -8 142.5t-26 87.5t-47 44t-71 12q-43 0 -72 -13.5t-47 -45.5t-25.5 -87t-7.5 -137z" />
    <glyph glyph-name="one.tab" unicode="&#xf4e1;" 
d="M125 80h206v522l-206 -123v87l230 141h60v-627h128v-80h-418v80z" />
    <glyph glyph-name="two.tab" unicode="&#xf4e2;" 
d="M83 56q72 62 127 109t96 84t69 67t45 57.5t24.5 55t7.5 60.5q0 72 -40 103.5t-122 31.5q-60 0 -106.5 -18.5t-89.5 -45.5v102q40 21 92 33.5t121 12.5q124 0 178.5 -53.5t54.5 -151.5q0 -57 -14.5 -103.5t-50.5 -93.5t-97.5 -101t-155.5 -125h334v-80h-473v56z" />
    <glyph glyph-name="three.tab" unicode="&#xf4e3;" 
d="M210 393h55q91 0 131 32t40 98q0 26 -6.5 45.5t-22.5 32t-44 19t-70 6.5q-66 0 -115.5 -21t-82.5 -42v93q31 20 83.5 36t130.5 16q109 0 160 -39t52 -131q1 -68 -33 -109.5t-109 -61.5q83 -5 129.5 -46t46.5 -118q0 -103 -59.5 -157t-182.5 -54q-83 0 -138.5 14.5
t-84.5 34.5v110q15 -13 36.5 -26t49 -23t60 -16.5t70.5 -6.5q90 0 127 30.5t37 93.5q0 27 -9.5 48t-32.5 36t-62.5 23t-99.5 8h-56v75z" />
    <glyph glyph-name="four.tab" unicode="&#xf4e4;" 
d="M67 250l315 450h107v-427h104v-80h-104v-193h-84v193h-338v57zM405 602l-226 -329h226v329z" />
    <glyph glyph-name="five.tab" unicode="&#xf4e5;" 
d="M152 700h383v-80h-313l-18 -182q11 1 41 1h64q70 0 116.5 -14.5t75 -41.5t40.5 -66.5t12 -88.5q0 -113 -60.5 -174.5t-196.5 -61.5q-50 0 -102 7t-87 23v101q16 -11 38.5 -19t47 -14t48.5 -9t44 -3q51 0 85.5 9t55.5 27t30 44.5t9 61.5q0 37 -8 64t-29.5 44t-59 25
t-97.5 8q-43 0 -84.5 -1.5t-67.5 -5.5z" />
    <glyph glyph-name="six.tab" unicode="&#xf4e6;" 
d="M338 -8q-71 0 -120 22.5t-80 65t-45 105.5t-14 144q0 107 23.5 179.5t65.5 117t100 63.5t127 19q35 0 69.5 -5.5t59.5 -15.5v-96q-22 12 -53.5 21.5t-89.5 9.5q-49 0 -89.5 -14.5t-70 -47t-46 -83.5t-16.5 -124q0 -18 0.5 -22.5t1.5 -9.5q26 63 74 98t136 35q51 0 89 -17
t63 -45.5t37 -66t12 -79.5q0 -67 -19 -115t-51 -79t-74.5 -45.5t-89.5 -14.5zM179 256q1 -81 41 -128.5t124 -47.5q63 0 102.5 36.5t39.5 111.5q0 70 -32.5 107.5t-110.5 37.5q-39 0 -67 -10.5t-47.5 -27t-31 -37.5t-18.5 -42z" />
    <glyph glyph-name="seven.tab" unicode="&#xf4e7;" 
d="M464 610h-374v90h480v-58l-289 -642h-97z" />
    <glyph glyph-name="eight.tab" unicode="&#xf4e8;" 
d="M84 200q0 25 4.5 51t18.5 49.5t39.5 43t66.5 30.5q-62 16 -87.5 50.5t-25.5 99.5q0 43 12.5 77.5t39.5 59t70 37.5t103 13t101.5 -12.5t67 -34.5t37 -52t11.5 -64q0 -32 -3.5 -59.5t-15.5 -49.5t-34 -38t-58 -26q77 -18 106 -59t29 -110q0 -47 -13.5 -86t-43 -67.5
t-75 -44.5t-108.5 -16q-120 0 -181 55.5t-61 152.5zM172 213q0 -71 41.5 -103t113.5 -32q84 0 118.5 34t34.5 99q0 63 -41 93t-113 30q-75 0 -114.5 -32.5t-39.5 -88.5zM183 513q0 -46 33.5 -79t107.5 -33q72 0 103.5 31.5t31.5 82.5q0 58 -30 84t-105 26t-108 -28t-33 -84z
" />
    <glyph glyph-name="nine.tab" unicode="&#xf4e9;" 
d="M313 708q70 0 119.5 -22.5t80.5 -65t45 -105.5t14 -144q0 -107 -23.5 -180t-65.5 -117t-100 -63t-127 -19q-35 0 -69.5 5.5t-59.5 15.5v96q22 -12 53.5 -21.5t89.5 -9.5q49 0 89.5 14.5t70 47t46 83.5t16.5 124q0 18 -0.5 22.5t-1.5 9.5q-13 -32 -30 -56.5t-41.5 -41.5
t-57 -26t-76.5 -9q-51 0 -90 17t-64.5 45.5t-38.5 66t-13 79.5q0 67 19 115t51 79t74.5 45.5t89.5 14.5zM473 454q-2 36 -12.5 67t-31 53t-50.5 34t-72 12q-63 -1 -101.5 -37t-40.5 -111q-2 -70 34 -107.5t114 -37.5q39 0 67 10.5t47 28t30 40.5t16 48z" />
    <glyph glyph-name="dollar.tab" unicode="&#xf4ec;" 
d="M463 185q0 47 -26 72.5t-65 42t-85 29.5t-85 34t-65 56.5t-26 96.5q0 83 43.5 131t145.5 58v95h64v-92q50 -2 92 -10.5t74 -25.5v-106q-30 28 -78.5 45t-101.5 17q-43 0 -71 -6t-44.5 -18.5t-23.5 -31t-7 -43.5q0 -45 26 -69t65.5 -39t85.5 -28t85.5 -35.5t65.5 -61
t26 -105.5q0 -85 -45.5 -135.5t-148.5 -60.5v-115h-64v112q-59 2 -112.5 17t-85.5 41v118q17 -19 38.5 -36t47.5 -30.5t56.5 -21.5t65.5 -8q80 0 116.5 28t36.5 85z" />
    <glyph glyph-name="Euro.tab" unicode="&#xf4ed;" 
d="M415 708q45 0 76 -6.5t53 -14.5v-90q-23 10 -53 20.5t-78 10.5q-78 0 -120.5 -35.5t-62.5 -108.5h270l-16 -78h-267q-1 -11 -1.5 -23t-0.5 -24v-32t2 -29h248l-14 -78h-220q26 -76 74.5 -111.5t114.5 -35.5q22 0 43.5 3t40.5 8t34.5 11t25.5 12v-81q-22 -13 -62 -23.5
t-84 -10.5q-106 0 -176.5 58t-96.5 170h-75l15 78h48q-1 13 -1.5 25.5t-0.5 26.5t1 28l2 28h-59l15 78h57q28 110 94 167t174 57z" />
    <glyph glyph-name="cent.tab" unicode="&#xf4ee;" 
d="M322 -5q-100 11 -148.5 83t-48.5 191q0 118 50 186.5t147 79.5v95h57v-93q39 -2 64 -7.5t42 -10.5v-76q-17 6 -44.5 12.5t-64.5 6.5q-78 0 -119.5 -44.5t-41.5 -140.5q0 -109 44 -159t125 -50q36 0 64.5 7t44.5 14v-75q-16 -7 -44 -13.5t-70 -8.5v-112h-57v115z" />
    <glyph glyph-name="sterling.tab" unicode="&#xf4ef;" 
d="M125 84h85v258h-85v60h85v78q0 31 6 70.5t28 75t66 59.5t120 24q34 0 63 -5t47 -11v-83q-29 8 -52.5 12t-58.5 4q-39 0 -64 -11.5t-39.5 -31t-20 -45.5t-5.5 -56v-80h159v-60h-159v-258h245v-84h-420v84z" />
    <glyph glyph-name="yen.tab" unicode="&#xf4fa;" 
d="M148 233h132v60l-8 14h-124v59h95l-170 334h104l149 -310l146 310h105l-170 -334h95v-59h-125l-7 -14v-60h132v-59h-132v-174h-90v174h-132v59z" />
    <glyph glyph-name="florin.tab" unicode="&#xf4fb;" 
d="M82 -129q16 -3 26 -3q18 0 33.5 3.5t28 14.5t22 32.5t16.5 57.5l87 458h-94l15 76h93l15 76q7 38 20 70t34.5 54.5t53 35t75.5 12.5q15 0 29 -1.5t32 -4.5l-15 -76q-6 2 -17.5 4t-26.5 2q-24 0 -41.5 -5t-29.5 -18.5t-20 -37t-15 -60.5l-11 -51h130l-15 -76h-128
l-85 -450q-9 -44 -21 -80.5t-33 -62.5t-53.5 -40.5t-81.5 -14.5q-25 0 -41 4z" />
    <glyph glyph-name="uni20B4.tab" unicode="&#xf4fc;" 
d="M110 318h114q5 6 16 16t23 21t22.5 21t16.5 16h-192v58h250q31 25 48 54t17 53q0 22 -9 35t-22.5 20.5t-29 10t-28.5 2.5q-26 0 -44 -1t-34.5 -3.5t-35 -7.5t-43.5 -12v84q22 7 44.5 11.5t43.5 7.5t39 4t31 1q62 0 98 -13.5t55 -34.5t24 -45t5 -45q0 -35 -16.5 -66.5
t-37.5 -54.5h75v-58h-125q-6 -6 -17 -16t-24 -21t-24 -21t-17 -16h207v-58h-258q-28 -23 -39 -50.5t-11 -50.5q0 -42 31 -63t98 -21q29 0 69 4.5t73 20.5v-85q-40 -14 -83.5 -19t-71.5 -5q-60 0 -100.5 14t-65 36.5t-35 50.5t-10.5 56q0 38 12.5 65t28.5 47h-68v58z" />
    <glyph glyph-name="uni20BD.tab" unicode="&#xf4fd;" 
d="M246 291v-87h197v-79h-197v-125h-86v125h-81v79h81v87h-81v79h81v325q15 1 36 3t45 4t49 3t49 1q48 0 89.5 -10.5t72 -33.5t48.5 -59t18 -87q0 -112 -59 -168.5t-185 -56.5h-77zM332 620q-26 0 -46.5 -1t-39.5 -3v-246h68q90 0 126.5 34t36.5 95q0 27 -6 49.5t-22 38.5
t-44.5 24.5t-72.5 8.5z" />
    <glyph glyph-name="uni20B8.tab" unicode="&#xf5f3;" 
d="M281 499h-194v74h477v-74h-193v-499h-90v499zM87 700h477v-74h-477v74z" />
    <glyph glyph-name="zero.denominator" unicode="&#xf655;" horiz-adv-x="450" 
d="M37 211q0 60 12.5 101t36.5 67t59 37.5t79 11.5q48 0 83.5 -11.5t59 -37.5t35 -67t11.5 -101q0 -61 -12.5 -103t-36.5 -67.5t-59 -36.5t-80 -11q-93 0 -140.5 50t-47.5 168zM119 211q0 -86 29 -119t80 -33q50 0 75.5 33.5t25.5 118.5q0 43 -6.5 72.5t-20 46.5t-33 24.5
t-45.5 7.5q-24 0 -43 -7.5t-33 -24.5t-21.5 -46.5t-7.5 -72.5z" />
    <glyph glyph-name="one.denominator" unicode="&#xf656;" horiz-adv-x="450" 
d="M221 327l-122 -56l-32 63l173 85h64v-418h-83v326z" />
    <glyph glyph-name="two.denominator" unicode="&#xf657;" horiz-adv-x="450" 
d="M53 76l120 85q33 23 55.5 41t36.5 33.5t20.5 30t6.5 30.5q0 31 -24 47t-69 16q-35 0 -69.5 -6t-59.5 -21v73q33 13 65.5 18t71.5 5q35 0 66 -6t54 -19.5t36.5 -35.5t13.5 -55q0 -51 -37.5 -96.5t-121.5 -98.5l-69 -44v-1h234v-71h-330v75z" />
    <glyph glyph-name="three.denominator" unicode="&#xf658;" horiz-adv-x="450" 
d="M136 248h79q47 0 69 12t22 44q0 29 -22 42t-76 13q-35 0 -70.5 -4.5t-61.5 -15.5v69q15 6 33.5 10t39.5 6.5t42 3t41 0.5q75 0 115 -28.5t40 -78.5q0 -44 -27 -65t-74 -34v-2q35 -5 57 -15.5t34 -24t16 -29.5t4 -31q0 -35 -16 -59t-41.5 -39t-58.5 -22t-66 -7
q-35 0 -73.5 3t-71.5 16v71q26 -13 62 -17t75 -4q56 0 81.5 14.5t25.5 44.5q0 39 -23 53.5t-69 14.5h-86v59z" />
    <glyph glyph-name="four.denominator" unicode="&#xf659;" horiz-adv-x="450" 
d="M18 152l248 267h95v-263h55v-68h-55v-87h-75v87h-268v64zM286 339h-1l-171 -183h172v183z" />
    <glyph glyph-name="five.denominator" unicode="&#xf65a;" horiz-adv-x="450" 
d="M81 419h299v-69h-239l-4 -82q21 1 45.5 2t60.5 1q75 0 114.5 -33t39.5 -97q0 -70 -46.5 -109t-129.5 -39q-35 0 -74 5t-74 13v71q24 -7 43 -11t35.5 -6t33 -2.5t34.5 -0.5q49 0 72.5 20t23.5 54q0 17 -5 30t-17 22t-32.5 13.5t-52.5 4.5h-35.5t-31.5 -0.5t-33 -1
t-38 -1.5z" />
    <glyph glyph-name="six.denominator" unicode="&#xf65b;" horiz-adv-x="450" 
d="M225 -7q-58 0 -95 16.5t-58 44.5t-28.5 65t-7.5 77q0 49 10 91.5t34 73.5t63.5 49t98.5 18q64 0 122 -13v-69q-32 9 -63 11t-56 2q-27 0 -51.5 -6.5t-43.5 -22t-30 -41.5t-11 -64q23 20 58.5 34.5t75.5 14.5q35 0 65 -7t52 -23t34.5 -42t12.5 -64q0 -35 -13.5 -62
t-38 -45.5t-58 -28t-72.5 -9.5zM115 165q0 -51 28 -79.5t84 -28.5q40 0 69.5 20t29.5 60q0 35 -26 53t-68 18q-29 0 -60 -10t-57 -33z" />
    <glyph glyph-name="seven.denominator" unicode="&#xf65c;" horiz-adv-x="450" 
d="M317 350h-272v69h360v-54l-201 -364h-83z" />
    <glyph glyph-name="eight.denominator" unicode="&#xf65d;" horiz-adv-x="450" 
d="M225 -7q-41 0 -75.5 7.5t-59.5 22.5t-39 38.5t-14 55.5q0 41 23.5 67t68.5 36q-35 9 -56.5 34.5t-21.5 59.5q0 57 46.5 85.5t127.5 28.5t127.5 -28.5t46.5 -85.5q0 -34 -21.5 -59.5t-56.5 -34.5q45 -10 68.5 -36t23.5 -67q0 -32 -14 -55.5t-39 -38.5t-59.5 -22.5
t-75.5 -7.5zM225 60q60 0 85.5 19t25.5 47q0 12 -4.5 23t-16.5 19.5t-34 13.5t-56 5q-35 0 -56.5 -5t-33.5 -13.5t-16.5 -19.5t-4.5 -23q0 -28 25.5 -47t85.5 -19zM225 361q-59 0 -80.5 -15.5t-21.5 -40.5q0 -23 21.5 -39t80.5 -16t80.5 16t21.5 39q0 25 -21.5 40.5
t-80.5 15.5z" />
    <glyph glyph-name="nine.denominator" unicode="&#xf65e;" horiz-adv-x="450" 
d="M217 428q61 0 98.5 -16.5t58 -44.5t27 -65t6.5 -77q0 -49 -10 -91.5t-32.5 -73.5t-60.5 -49t-93 -18q-35 0 -71 4t-71 12v71q38 -11 74 -14.5t65 -3.5q25 0 48 6.5t40.5 22t28 41.5t10.5 64q-23 -26 -61.5 -41.5t-76.5 -15.5q-30 0 -57 8t-48 25t-33.5 44.5t-12.5 65.5
q0 35 13 62t36 46t54 28.5t68 9.5zM331 261q-1 19 -7.5 38t-20.5 33t-35.5 23t-52.5 9q-36 0 -62 -20t-26 -60t23 -60.5t60 -20.5q41 0 70.5 17t50.5 41z" />
    <glyph glyph-name="zero.numerator" unicode="&#xf661;" horiz-adv-x="450" 
d="M37 493q0 60 12.5 101t36.5 67t59 37.5t79 11.5q48 0 83.5 -11.5t59 -37.5t35 -67t11.5 -101q0 -61 -12.5 -103t-36.5 -67.5t-59 -36.5t-80 -11q-93 0 -140.5 50t-47.5 168zM119 493q0 -86 29 -119t80 -33q50 0 75.5 33.5t25.5 118.5q0 43 -6.5 72.5t-20 46.5t-33 24.5
t-45.5 7.5q-24 0 -43 -7.5t-33 -24.5t-21.5 -46.5t-7.5 -72.5z" />
    <glyph glyph-name="one.numerator" unicode="&#xf662;" horiz-adv-x="450" 
d="M221 609l-122 -56l-32 63l173 85h64v-418h-83v326z" />
    <glyph glyph-name="two.numerator" unicode="&#xf663;" horiz-adv-x="450" 
d="M53 358l120 85q33 23 55.5 41t36.5 33.5t20.5 30t6.5 30.5q0 31 -24 47t-69 16q-35 0 -69.5 -6t-59.5 -21v73q33 13 65.5 18t71.5 5q35 0 66 -6t54 -19.5t36.5 -35.5t13.5 -55q0 -51 -37.5 -96.5t-121.5 -98.5l-69 -44v-1h234v-71h-330v75z" />
    <glyph glyph-name="three.numerator" unicode="&#xf664;" horiz-adv-x="450" 
d="M136 530h79q47 0 69 12t22 44q0 29 -22 42t-76 13q-35 0 -70.5 -4.5t-61.5 -15.5v69q15 6 33.5 10t39.5 6.5t42 3t41 0.5q75 0 115 -28.5t40 -78.5q0 -44 -27 -65t-74 -34v-2q35 -5 57 -15.5t34 -24t16 -29.5t4 -31q0 -35 -16 -59t-41.5 -39t-58.5 -22t-66 -7
q-35 0 -73.5 3t-71.5 16v71q26 -13 62 -17t75 -4q56 0 81.5 14.5t25.5 44.5q0 39 -23 53.5t-69 14.5h-86v59z" />
    <glyph glyph-name="four.numerator" unicode="&#xf665;" horiz-adv-x="450" 
d="M18 434l248 267h95v-263h55v-68h-55v-87h-75v87h-268v64zM286 621h-1l-171 -183h172v183z" />
    <glyph glyph-name="five.numerator" unicode="&#xf666;" horiz-adv-x="450" 
d="M81 701h299v-69h-239l-4 -82q21 1 45.5 2t60.5 1q75 0 114.5 -33t39.5 -97q0 -70 -46.5 -109t-129.5 -39q-35 0 -74 5t-74 13v71q24 -7 43 -11t35.5 -6t33 -2.5t34.5 -0.5q49 0 72.5 20t23.5 54q0 17 -5 30t-17 22t-32.5 13.5t-52.5 4.5h-35.5t-31.5 -0.5t-33 -1
t-38 -1.5z" />
    <glyph glyph-name="six.numerator" unicode="&#xf667;" horiz-adv-x="450" 
d="M225 275q-58 0 -95 16.5t-58 44.5t-28.5 65t-7.5 77q0 49 10 91.5t34 73.5t63.5 49t98.5 18q64 0 122 -13v-69q-32 9 -63 11t-56 2q-27 0 -51.5 -6.5t-43.5 -22t-30 -41.5t-11 -64q23 20 58.5 34.5t75.5 14.5q35 0 65 -7t52 -23t34.5 -42t12.5 -64q0 -35 -13.5 -62
t-38 -45.5t-58 -28t-72.5 -9.5zM115 447q0 -51 28 -79.5t84 -28.5q40 0 69.5 20t29.5 60q0 35 -26 53t-68 18q-29 0 -60 -10t-57 -33z" />
    <glyph glyph-name="seven.numerator" unicode="&#xf668;" horiz-adv-x="450" 
d="M317 632h-272v69h360v-54l-201 -364h-83z" />
    <glyph glyph-name="eight.numerator" unicode="&#xf669;" horiz-adv-x="450" 
d="M225 275q-41 0 -75.5 7.5t-59.5 22.5t-39 38.5t-14 55.5q0 41 23.5 67t68.5 36q-35 9 -56.5 34.5t-21.5 59.5q0 57 46.5 85.5t127.5 28.5t127.5 -28.5t46.5 -85.5q0 -34 -21.5 -59.5t-56.5 -34.5q45 -10 68.5 -36t23.5 -67q0 -32 -14 -55.5t-39 -38.5t-59.5 -22.5
t-75.5 -7.5zM225 342q60 0 85.5 19t25.5 47q0 12 -4.5 23t-16.5 19.5t-34 13.5t-56 5q-35 0 -56.5 -5t-33.5 -13.5t-16.5 -19.5t-4.5 -23q0 -28 25.5 -47t85.5 -19zM225 643q-59 0 -80.5 -15.5t-21.5 -40.5q0 -23 21.5 -39t80.5 -16t80.5 16t21.5 39q0 25 -21.5 40.5
t-80.5 15.5z" />
    <glyph glyph-name="nine.numerator" unicode="&#xf66a;" horiz-adv-x="450" 
d="M217 710q61 0 98.5 -16.5t58 -44.5t27 -65t6.5 -77q0 -49 -10 -91.5t-32.5 -73.5t-60.5 -49t-93 -18q-35 0 -71 4t-71 12v71q38 -11 74 -14.5t65 -3.5q25 0 48 6.5t40.5 22t28 41.5t10.5 64q-23 -26 -61.5 -41.5t-76.5 -15.5q-30 0 -57 8t-48 25t-33.5 44.5t-12.5 65.5
q0 35 13 62t36 46t54 28.5t68 9.5zM331 543q-1 19 -7.5 38t-20.5 33t-35.5 23t-52.5 9q-36 0 -62 -20t-26 -60t23 -60.5t60 -20.5q41 0 70.5 17t50.5 41z" />
    <glyph glyph-name="uniF6BA" unicode="&#xf6ba;" horiz-adv-x="467" 
d="M100 396h267v-84h-267v84z" />
    <glyph glyph-name="uniF6BB" unicode="&#xf6bb;" horiz-adv-x="707" 
d="M120 396h467v-84h-467v84z" />
    <glyph glyph-name="uniF6BC" unicode="&#xf6bc;" horiz-adv-x="877" 
d="M120 396h637v-84h-637v84z" />
    <glyph glyph-name="uniF6C3" unicode="&#xf6c3;" 
d="M269 -209q23 3 42.5 15.5t19.5 37.5q-5 -1 -9.5 -1.5t-9.5 -0.5q-23 0 -39 11t-16 32q0 19 17 33t49 14q29 0 48.5 -16.5t19.5 -53.5q0 -18 -6 -37.5t-20 -35.5t-36 -27.5t-55 -13.5l-5 43v0z" />
    <glyph glyph-name="uniF6C9" unicode="&#xf6c9;" 
d="M371 910h116l-124 -140h-76z" />
    <glyph glyph-name="uniF6CA" unicode="&#xf6ca;" 
d="M170 910h88l67 -88l68 88h87l-105 -140h-100z" />
    <glyph glyph-name="uniF6CB" unicode="&#xf6cb;" 
d="M175 840q0 26 14 40t40 14t40 -14t14 -40t-14 -40t-40 -14t-40 14t-14 40zM367 840q0 26 14 40t40 14t40 -14t14 -40t-14 -40t-40 -14t-40 14t-14 40z" />
    <glyph glyph-name="uniF6CE" unicode="&#xf6ce;" 
d="M287 910l78 -140h-80l-122 140h124z" />
    <glyph glyph-name="uniF6CF" unicode="&#xf6cf;" 
d="M254 910h106l-86 -140h-76zM458 910h120l-126 -140h-80z" />
    <glyph glyph-name="uniF6D0" unicode="&#xf6d0;" 
d="M180 876h290v-72h-290v72z" />
    <glyph glyph-name="uniF6D1" unicode="&#xf6d1;" 
d="M238 910q4 -42 24.5 -61t62.5 -19t63.5 19t25.5 61h76q-8 -76 -51.5 -108t-113.5 -32t-113.5 32t-51.5 108h78z" />
    <glyph glyph-name="uniF6D4" unicode="&#xf6d4;" 
d="M246 760q4 -38 20.5 -60t58.5 -22t59.5 22t21.5 60h74q-8 -74 -49.5 -107t-105.5 -33t-105.5 33t-49.5 107h76z" />
    <glyph glyph-name="uniFEFF" unicode="&#xfeff;" horiz-adv-x="0" 
 />
    <glyph glyph-name="percent.tab" 
d="M526 700h87l-484 -700h-89zM59 547q0 85 31.5 124t87.5 39q55 0 89 -37.5t34 -125.5q0 -90 -32 -127.5t-85 -37.5q-59 0 -92 37.5t-33 127.5zM230 547q0 51 -12 71t-37 20q-26 0 -38 -20t-12 -71q0 -54 13.5 -73.5t38.5 -19.5q11 0 19.5 3.5t14.5 14t9.5 28.5t3.5 47z
M359 155q0 85 31.5 124t87.5 39q55 0 89 -37.5t34 -125.5q0 -90 -32 -127.5t-85 -37.5q-59 0 -92 37.5t-33 127.5zM530 155q0 51 -12 71t-37 20q-26 0 -38 -20t-12 -71q0 -54 13.5 -73.5t38.5 -19.5q11 0 19.5 3.5t14.5 14t9.5 28.5t3.5 47z" />
    <glyph glyph-name="plus.tab" 
d="M115 387h168v168h84v-168h168v-84h-168v-168h-84v168h-168v84z" />
    <glyph glyph-name="less.tab" 
d="M93 361l415 173v-84l-316 -123v-2l316 -123v-85l-415 174v70z" />
    <glyph glyph-name="equal.tab" 
d="M112 263h425v-79h-425v79zM112 477h425v-79h-425v79z" />
    <glyph glyph-name="greater.tab" 
d="M142 202l315 123v2l-315 123v84l415 -173v-70l-415 -174v85z" />
    <glyph glyph-name="multiply.tab" 
d="M274 323l-138 149l55 52l133 -144l135 144l55 -52l-138 -149l138 -148l-55 -51l-135 144l-133 -144l-55 51z" />
    <glyph glyph-name="divide.tab" 
d="M262 151q0 32 17.5 49t46.5 17t46.5 -17.5t17.5 -48.5q0 -33 -17 -50t-47 -17q-29 0 -46.5 17.5t-17.5 49.5zM262 497q0 32 17.5 49t46.5 17t46.5 -17t17.5 -49t-17 -49.5t-47 -17.5q-29 0 -46.5 17.5t-17.5 49.5zM113 363h425v-79h-425v79z" />
    <glyph glyph-name="perthousand.tab" 
d="M57 255l-25 49l463 226l23 -50zM27 567q0 75 30 109t84 34q53 0 85.5 -32.5t32.5 -110.5q0 -79 -30.5 -112t-81.5 -33q-57 0 -88.5 33t-31.5 112zM99 567q0 -43 12 -58t35 -15q20 0 30.5 14t11.5 59q0 40 -10.5 55.5t-33.5 15.5t-34 -15.5t-11 -55.5zM128 135
q0 75 30 109t84 34q53 0 85.5 -32.5t32.5 -110.5q0 -79 -30.5 -112t-81.5 -33q-57 0 -88.5 33t-31.5 112zM200 135q0 -43 12 -58t35 -15q20 0 30.5 14t11.5 59q0 40 -10.5 55.5t-33.5 15.5t-34 -15.5t-11 -55.5zM388 135q0 75 30 109t84 34q53 0 85.5 -32.5t32.5 -110.5
q0 -79 -30.5 -112t-81.5 -33q-57 0 -88.5 33t-31.5 112zM460 135q0 -43 12 -58t35 -15q20 0 30.5 14t11.5 59q0 40 -10.5 55.5t-33.5 15.5t-34 -15.5t-11 -55.5z" />
    <glyph glyph-name="minus.tab" 
d="M113 363h425v-79h-425v79z" />
    <glyph glyph-name="f_b" horiz-adv-x="984" 
d="M454 670q-30 2 -69 4t-81 2q-29 0 -48 -4t-30 -15.5t-15.5 -30.5t-4.5 -49v-47h180v-78h-180v-452h-83v452h-83v78h84v60q0 47 11.5 79t34.5 51t57 27t78 8q42 0 79.5 -2.5t69.5 -2.5h83v-305q10 20 24 37.5t34 30t47.5 20t65.5 7.5q52 0 92.5 -13.5t68 -45t41.5 -82
t14 -123.5q0 -77 -14 -131.5t-41.5 -89t-69.5 -50.5t-98 -16q-66 0 -106.5 21.5t-61.5 58.5l-5 -69h-74v670zM535 229q0 -84 41 -124.5t112 -40.5q41 0 70 11t47.5 36t27 64.5t8.5 95.5q0 57 -9.5 94.5t-28 59.5t-47 31t-67.5 9q-80 0 -116.5 -42t-37.5 -114v-80z" />
    <glyph glyph-name="f_f_b" horiz-adv-x="1315" 
d="M123 452h-83v78h84v60q0 47 11.5 79t34.5 51t57 27t78 8q31 0 51.5 -3t30.5 -6v-87q-14 6 -32.5 11.5t-50.5 5.5q-29 0 -48 -4t-30 -15.5t-15.5 -30.5t-4.5 -49v-47h249v60q0 47 11.5 79t34.5 51t57 27t78 8q42 0 79.5 -2.5t69.5 -2.5h83v-305q10 20 24 37.5t34 30
t47.5 20t65.5 7.5q52 0 92.5 -13.5t68 -45t41.5 -82t14 -123.5q0 -77 -14 -131.5t-41.5 -89t-69.5 -50.5t-98 -16q-66 0 -106.5 21.5t-61.5 58.5l-5 -69h-74v670q-30 2 -69 4t-81 2q-29 0 -48 -4t-30 -15.5t-15.5 -30.5t-4.5 -49v-47h180v-78h-180v-452h-83v452h-248v-452
h-83v452zM866 229q0 -84 41 -124.5t112 -40.5q41 0 70 11t47.5 36t27 64.5t8.5 95.5q0 57 -9.5 94.5t-28 59.5t-47 31t-67.5 9q-80 0 -116.5 -42t-37.5 -114v-80z" />
    <glyph glyph-name="f_f_h" horiz-adv-x="1311" 
d="M123 452h-83v78h84v60q0 47 11.5 79t34.5 51t57 27t78 8q31 0 51.5 -3t30.5 -6v-87q-14 6 -32.5 11.5t-50.5 5.5q-29 0 -48 -4t-30 -15.5t-15.5 -30.5t-4.5 -49v-47h249v60q0 47 11.5 79t34.5 51t57 27t78 8q42 0 79.5 -2.5t69.5 -2.5h83v-302q19 45 62 68.5t111 23.5
q94 0 137.5 -42t43.5 -140v-358h-83v347q0 64 -29.5 91.5t-99.5 27.5q-71 0 -106.5 -34t-35.5 -113v-319h-83v670q-30 2 -69 4t-81 2q-29 0 -48 -4t-30 -15.5t-15.5 -30.5t-4.5 -49v-47h180v-78h-180v-452h-83v452h-248v-452h-83v452z" />
    <glyph glyph-name="f_f_j" horiz-adv-x="978" 
d="M123 452h-83v78h84v60q0 47 11.5 79t34.5 51t57 27t78 8q31 0 51.5 -3t30.5 -6v-87q-14 6 -32.5 11.5t-50.5 5.5q-29 0 -48 -4t-30 -15.5t-15.5 -30.5t-4.5 -49v-47h249v60q0 47 11 79t32.5 51t53 27t73.5 8q27 0 49.5 -3.5t35.5 -5.5v-87q-17 5 -39 11t-47 6
q-26 0 -42.5 -4t-26.5 -15.5t-14 -30.5t-4 -49v-47h331v-530q0 -92 -35.5 -139t-119.5 -47q-26 0 -47 4t-32 9v87q17 -11 37.5 -16t41.5 -5q38 0 55 22.5t17 76.5v460h-248v-452h-83v452h-248v-452h-83v452zM771 702q0 21 11.5 36t43.5 15t44 -15t12 -36t-12 -37.5
t-44 -16.5t-43.5 16.5t-11.5 37.5z" />
    <glyph glyph-name="f_f_k" horiz-adv-x="1255" 
d="M123 452h-83v78h84v60q0 47 11.5 79t34.5 51t57 27t78 8q31 0 51.5 -3t30.5 -6v-87q-14 6 -32.5 11.5t-50.5 5.5q-29 0 -48 -4t-30 -15.5t-15.5 -30.5t-4.5 -49v-47h249v60q0 47 11.5 79t34.5 51t57 27t78 8q42 0 79.5 -2.5t69.5 -2.5h83v-446h47l193 226h95l-218 -251
l250 -279h-105l-217 239h-45v-239h-83v670q-30 2 -69 4t-81 2q-29 0 -48 -4t-30 -15.5t-15.5 -30.5t-4.5 -49v-47h180v-78h-180v-452h-83v452h-248v-452h-83v452z" />
    <glyph glyph-name="f_h" horiz-adv-x="980" 
d="M454 670q-30 2 -69 4t-81 2q-29 0 -48 -4t-30 -15.5t-15.5 -30.5t-4.5 -49v-47h180v-78h-180v-452h-83v452h-83v78h84v60q0 47 11.5 79t34.5 51t57 27t78 8q42 0 79.5 -2.5t69.5 -2.5h83v-302q19 45 62 68.5t111 23.5q94 0 137.5 -42t43.5 -140v-358h-83v347
q0 64 -29.5 91.5t-99.5 27.5q-71 0 -106.5 -34t-35.5 -113v-319h-83v670z" />
    <glyph glyph-name="f_j" horiz-adv-x="647" 
d="M440 702q0 21 11.5 36t43.5 15t44 -15t12 -36t-12 -37.5t-44 -16.5t-43.5 16.5t-11.5 37.5zM454 452h-248v-452h-83v452h-83v78h84v60q0 47 11 79t32.5 51t53 27t73.5 8q27 0 49.5 -3.5t35.5 -5.5v-87q-17 5 -39 11t-47 6q-26 0 -42.5 -4t-26.5 -15.5t-14 -30.5t-4 -49
v-47h331v-530q0 -92 -35.5 -139t-119.5 -47q-26 0 -47 4t-32 9v87q17 -11 37.5 -16t41.5 -5q38 0 55 22.5t17 76.5v460z" />
    <glyph glyph-name="f_k" horiz-adv-x="924" 
d="M537 750v-446h47l193 226h95l-218 -251l250 -279h-105l-217 239h-45v-239h-83v670q-30 2 -69 4t-81 2q-29 0 -48 -4t-30 -15.5t-15.5 -30.5t-4.5 -49v-47h180v-78h-180v-452h-83v452h-83v78h84v60q0 47 11.5 79t34.5 51t57 27t78 8q42 0 79.5 -2.5t69.5 -2.5h83z" />
    </font>
</defs>
</svg>
